<?xml version="1.0" encoding="utf-8" standalone="no"?>
<!DOCTYPE svg PUBLIC "-//W3C//DTD SVG 1.1//EN"
  "http://www.w3.org/Graphics/SVG/1.1/DTD/svg11.dtd">
<svg xmlns:xlink="http://www.w3.org/1999/xlink" width="698.397072pt" height="420.95575pt" viewBox="0 0 698.397072 420.95575" xmlns="http://www.w3.org/2000/svg" version="1.1">
 <metadata>
  <rdf:RDF xmlns:dc="http://purl.org/dc/elements/1.1/" xmlns:cc="http://creativecommons.org/ns#" xmlns:rdf="http://www.w3.org/1999/02/22-rdf-syntax-ns#">
   <cc:Work>
    <dc:type rdf:resource="http://purl.org/dc/dcmitype/StillImage"/>
    <dc:date>2026-04-25T22:00:24.572673</dc:date>
    <dc:format>image/svg+xml</dc:format>
    <dc:creator>
     <cc:Agent>
      <dc:title>Matplotlib v3.9.4, https://matplotlib.org/</dc:title>
     </cc:Agent>
    </dc:creator>
   </cc:Work>
  </rdf:RDF>
 </metadata>
 <defs>
  <style type="text/css">*{stroke-linejoin: round; stroke-linecap: butt}</style>
 </defs>
 <g id="figure_1">
  <g id="patch_1">
   <path d="M 0 420.95575 
L 698.397072 420.95575 
L 698.397072 0 
L 0 0 
z
" style="fill: #ffffff"/>
  </g>
  <g id="axes_1">
   <g id="patch_2">
    <path d="M 48.362344 385.737625 
L 687.010028 385.737625 
L 687.010028 46.635125 
L 48.362344 46.635125 
z
" style="fill: #ffffff"/>
   </g>
   <g id="patch_3">
    <path d="M 77.391784 80825.235971 
L 211.373815 80825.235971 
L 211.373815 353.774743 
L 77.391784 353.774743 
z
" clip-path="url(#p13eb3559c4)" style="fill: #95a5a6; stroke: #2c3e50; stroke-linejoin: miter"/>
   </g>
   <g id="patch_4">
    <path d="M 300.69517 80825.235971 
L 434.677201 80825.235971 
L 434.677201 305.41677 
L 300.69517 305.41677 
z
" clip-path="url(#p13eb3559c4)" style="fill: #e67e22; stroke: #2c3e50; stroke-linejoin: miter"/>
   </g>
   <g id="patch_5">
    <path d="M 523.998556 80825.235971 
L 657.980587 80825.235971 
L 657.980587 78.598007 
L 523.998556 78.598007 
z
" clip-path="url(#p13eb3559c4)" style="fill: #c0392b; stroke: #2c3e50; stroke-linejoin: miter"/>
   </g>
   <g id="matplotlib.axis_1">
    <g id="xtick_1">
     <g id="line2d_1">
      <defs>
       <path id="m7093d3f81a" d="M 0 0 
L 0 3.5 
" style="stroke: #000000; stroke-width: 0.8"/>
      </defs>
      <g>
       <use xlink:href="#m7093d3f81a" x="144.3828" y="385.737625" style="stroke: #000000; stroke-width: 0.8"/>
      </g>
     </g>
     <g id="text_1">
      <!-- Dog + Travois -->
      <g transform="translate(108.08905 400.193875) scale(0.1 -0.1)">
       <defs>
        <path id="DejaVuSerif-44" d="M 1581 331 
L 2163 331 
Q 3072 331 3558 850 
Q 4044 1369 4044 2338 
Q 4044 3306 3559 3818 
Q 3075 4331 2163 4331 
L 1581 4331 
L 1581 331 
z
M 353 0 
L 353 331 
L 947 331 
L 947 4331 
L 353 4331 
L 353 4666 
L 2209 4666 
Q 3416 4666 4089 4050 
Q 4763 3434 4763 2338 
Q 4763 1238 4088 619 
Q 3413 0 2209 0 
L 353 0 
z
" transform="scale(0.015625)"/>
        <path id="DejaVuSerif-6f" d="M 1925 219 
Q 2388 219 2623 584 
Q 2859 950 2859 1663 
Q 2859 2375 2623 2739 
Q 2388 3103 1925 3103 
Q 1463 3103 1227 2739 
Q 991 2375 991 1663 
Q 991 950 1228 584 
Q 1466 219 1925 219 
z
M 1925 -91 
Q 1200 -91 759 389 
Q 319 869 319 1663 
Q 319 2456 758 2934 
Q 1197 3413 1925 3413 
Q 2653 3413 3092 2934 
Q 3531 2456 3531 1663 
Q 3531 869 3092 389 
Q 2653 -91 1925 -91 
z
" transform="scale(0.015625)"/>
        <path id="DejaVuSerif-67" d="M 3359 2988 
L 3359 72 
Q 3359 -644 2965 -1033 
Q 2572 -1422 1844 -1422 
Q 1516 -1422 1216 -1362 
Q 916 -1303 641 -1184 
L 641 -488 
L 941 -488 
Q 997 -813 1206 -963 
Q 1416 -1113 1806 -1113 
Q 2313 -1113 2548 -827 
Q 2784 -541 2784 72 
L 2784 519 
Q 2616 206 2355 57 
Q 2094 -91 1709 -91 
Q 1097 -91 708 395 
Q 319 881 319 1663 
Q 319 2444 706 2928 
Q 1094 3413 1709 3413 
Q 2094 3413 2355 3264 
Q 2616 3116 2784 2803 
L 2784 3322 
L 3909 3322 
L 3909 2988 
L 3359 2988 
z
M 2784 1825 
Q 2784 2422 2554 2737 
Q 2325 3053 1888 3053 
Q 1444 3053 1217 2703 
Q 991 2353 991 1663 
Q 991 975 1217 622 
Q 1444 269 1888 269 
Q 2325 269 2554 583 
Q 2784 897 2784 1497 
L 2784 1825 
z
" transform="scale(0.015625)"/>
        <path id="DejaVuSerif-20" transform="scale(0.015625)"/>
        <path id="DejaVuSerif-2b" d="M 2931 4013 
L 2931 2259 
L 4684 2259 
L 4684 1753 
L 2931 1753 
L 2931 0 
L 2431 0 
L 2431 1753 
L 678 1753 
L 678 2259 
L 2431 2259 
L 2431 4013 
L 2931 4013 
z
" transform="scale(0.015625)"/>
        <path id="DejaVuSerif-54" d="M 1222 0 
L 1222 331 
L 1819 331 
L 1819 4294 
L 447 4294 
L 447 3566 
L 63 3566 
L 63 4666 
L 4206 4666 
L 4206 3566 
L 3822 3566 
L 3822 4294 
L 2450 4294 
L 2450 331 
L 3047 331 
L 3047 0 
L 1222 0 
z
" transform="scale(0.015625)"/>
        <path id="DejaVuSerif-72" d="M 3059 3328 
L 3059 2497 
L 2728 2497 
Q 2713 2744 2591 2866 
Q 2469 2988 2234 2988 
Q 1809 2988 1582 2694 
Q 1356 2400 1356 1850 
L 1356 331 
L 2022 331 
L 2022 0 
L 263 0 
L 263 331 
L 781 331 
L 781 2994 
L 231 2994 
L 231 3322 
L 1356 3322 
L 1356 2731 
Q 1525 3078 1790 3245 
Q 2056 3413 2438 3413 
Q 2578 3413 2733 3391 
Q 2888 3369 3059 3328 
z
" transform="scale(0.015625)"/>
        <path id="DejaVuSerif-61" d="M 2547 1044 
L 2547 1747 
L 1806 1747 
Q 1378 1747 1168 1562 
Q 959 1378 959 997 
Q 959 650 1171 447 
Q 1384 244 1747 244 
Q 2106 244 2326 466 
Q 2547 688 2547 1044 
z
M 3122 2075 
L 3122 331 
L 3634 331 
L 3634 0 
L 2547 0 
L 2547 359 
Q 2356 128 2106 18 
Q 1856 -91 1522 -91 
Q 969 -91 644 203 
Q 319 497 319 997 
Q 319 1513 691 1797 
Q 1063 2081 1741 2081 
L 2547 2081 
L 2547 2309 
Q 2547 2688 2317 2895 
Q 2088 3103 1672 3103 
Q 1328 3103 1125 2947 
Q 922 2791 872 2484 
L 575 2484 
L 575 3156 
Q 875 3284 1158 3348 
Q 1441 3413 1709 3413 
Q 2400 3413 2761 3070 
Q 3122 2728 3122 2075 
z
" transform="scale(0.015625)"/>
        <path id="DejaVuSerif-76" d="M 1581 0 
L 359 2988 
L -19 2988 
L -19 3322 
L 1509 3322 
L 1509 2988 
L 978 2988 
L 1913 703 
L 2847 2988 
L 2350 2988 
L 2350 3322 
L 3597 3322 
L 3597 2988 
L 3225 2988 
L 2003 0 
L 1581 0 
z
" transform="scale(0.015625)"/>
        <path id="DejaVuSerif-69" d="M 622 4353 
Q 622 4497 726 4603 
Q 831 4709 978 4709 
Q 1122 4709 1226 4603 
Q 1331 4497 1331 4353 
Q 1331 4206 1228 4103 
Q 1125 4000 978 4000 
Q 831 4000 726 4103 
Q 622 4206 622 4353 
z
M 1356 331 
L 1900 331 
L 1900 0 
L 231 0 
L 231 331 
L 781 331 
L 781 2988 
L 231 2988 
L 231 3322 
L 1356 3322 
L 1356 331 
z
" transform="scale(0.015625)"/>
        <path id="DejaVuSerif-73" d="M 359 184 
L 359 959 
L 691 959 
Q 703 588 923 403 
Q 1144 219 1575 219 
Q 1963 219 2166 364 
Q 2369 509 2369 788 
Q 2369 1006 2220 1140 
Q 2072 1275 1594 1428 
L 1178 1569 
Q 750 1706 558 1912 
Q 366 2119 366 2438 
Q 366 2894 700 3153 
Q 1034 3413 1625 3413 
Q 1888 3413 2178 3344 
Q 2469 3275 2778 3144 
L 2778 2419 
L 2447 2419 
Q 2434 2741 2221 2922 
Q 2009 3103 1644 3103 
Q 1281 3103 1095 2975 
Q 909 2847 909 2591 
Q 909 2381 1050 2254 
Q 1191 2128 1613 1997 
L 2069 1856 
Q 2541 1709 2748 1489 
Q 2956 1269 2956 922 
Q 2956 450 2595 179 
Q 2234 -91 1600 -91 
Q 1278 -91 972 -22 
Q 666 47 359 184 
z
" transform="scale(0.015625)"/>
       </defs>
       <use xlink:href="#DejaVuSerif-44"/>
       <use xlink:href="#DejaVuSerif-6f" x="80.175781"/>
       <use xlink:href="#DejaVuSerif-67" x="140.380859"/>
       <use xlink:href="#DejaVuSerif-20" x="204.394531"/>
       <use xlink:href="#DejaVuSerif-2b" x="236.181641"/>
       <use xlink:href="#DejaVuSerif-20" x="319.970703"/>
       <use xlink:href="#DejaVuSerif-54" x="351.757812"/>
       <use xlink:href="#DejaVuSerif-72" x="418.457031"/>
       <use xlink:href="#DejaVuSerif-61" x="466.259766"/>
       <use xlink:href="#DejaVuSerif-76" x="525.878906"/>
       <use xlink:href="#DejaVuSerif-6f" x="582.373047"/>
       <use xlink:href="#DejaVuSerif-69" x="642.578125"/>
       <use xlink:href="#DejaVuSerif-73" x="674.560547"/>
      </g>
      <!-- (pre-1700) -->
      <g transform="translate(117.516393 411.533875) scale(0.1 -0.1)">
       <defs>
        <path id="DejaVuSerif-28" d="M 2041 -997 
Q 1281 -656 893 83 
Q 506 822 506 1931 
Q 506 3044 893 3783 
Q 1281 4522 2041 4863 
L 2041 4556 
Q 1559 4225 1350 3623 
Q 1141 3022 1141 1931 
Q 1141 844 1350 242 
Q 1559 -359 2041 -691 
L 2041 -997 
z
" transform="scale(0.015625)"/>
        <path id="DejaVuSerif-70" d="M 1313 1825 
L 1313 1497 
Q 1313 897 1542 583 
Q 1772 269 2209 269 
Q 2650 269 2876 622 
Q 3103 975 3103 1663 
Q 3103 2353 2876 2703 
Q 2650 3053 2209 3053 
Q 1772 3053 1542 2737 
Q 1313 2422 1313 1825 
z
M 738 2988 
L 184 2988 
L 184 3322 
L 1313 3322 
L 1313 2803 
Q 1481 3116 1742 3264 
Q 2003 3413 2388 3413 
Q 3000 3413 3387 2928 
Q 3775 2444 3775 1663 
Q 3775 881 3387 395 
Q 3000 -91 2388 -91 
Q 2003 -91 1742 57 
Q 1481 206 1313 519 
L 1313 -997 
L 1856 -997 
L 1856 -1331 
L 184 -1331 
L 184 -997 
L 738 -997 
L 738 2988 
z
" transform="scale(0.015625)"/>
        <path id="DejaVuSerif-65" d="M 3469 1600 
L 991 1600 
L 991 1575 
Q 991 903 1244 561 
Q 1497 219 1991 219 
Q 2369 219 2611 417 
Q 2853 616 2950 1006 
L 3413 1006 
Q 3275 459 2904 184 
Q 2534 -91 1931 -91 
Q 1203 -91 761 389 
Q 319 869 319 1663 
Q 319 2450 753 2931 
Q 1188 3413 1894 3413 
Q 2647 3413 3050 2948 
Q 3453 2484 3469 1600 
z
M 2791 1931 
Q 2772 2513 2545 2808 
Q 2319 3103 1894 3103 
Q 1497 3103 1269 2806 
Q 1041 2509 991 1931 
L 2791 1931 
z
" transform="scale(0.015625)"/>
        <path id="DejaVuSerif-2d" d="M 281 1959 
L 1881 1959 
L 1881 1472 
L 281 1472 
L 281 1959 
z
" transform="scale(0.015625)"/>
        <path id="DejaVuSerif-31" d="M 909 0 
L 909 331 
L 1722 331 
L 1722 4213 
L 781 3603 
L 781 4013 
L 1919 4750 
L 2350 4750 
L 2350 331 
L 3163 331 
L 3163 0 
L 909 0 
z
" transform="scale(0.015625)"/>
        <path id="DejaVuSerif-37" d="M 3609 4347 
L 1784 0 
L 1319 0 
L 3059 4153 
L 903 4153 
L 903 3578 
L 538 3578 
L 538 4666 
L 3609 4666 
L 3609 4347 
z
" transform="scale(0.015625)"/>
        <path id="DejaVuSerif-30" d="M 2034 219 
Q 2513 219 2750 744 
Q 2988 1269 2988 2328 
Q 2988 3391 2750 3916 
Q 2513 4441 2034 4441 
Q 1556 4441 1318 3916 
Q 1081 3391 1081 2328 
Q 1081 1269 1318 744 
Q 1556 219 2034 219 
z
M 2034 -91 
Q 1275 -91 848 546 
Q 422 1184 422 2328 
Q 422 3475 848 4112 
Q 1275 4750 2034 4750 
Q 2797 4750 3222 4112 
Q 3647 3475 3647 2328 
Q 3647 1184 3222 546 
Q 2797 -91 2034 -91 
z
" transform="scale(0.015625)"/>
        <path id="DejaVuSerif-29" d="M 453 -997 
L 453 -691 
Q 934 -359 1145 242 
Q 1356 844 1356 1931 
Q 1356 3022 1145 3623 
Q 934 4225 453 4556 
L 453 4863 
Q 1216 4522 1603 3783 
Q 1991 3044 1991 1931 
Q 1991 822 1603 83 
Q 1216 -656 453 -997 
z
" transform="scale(0.015625)"/>
       </defs>
       <use xlink:href="#DejaVuSerif-28"/>
       <use xlink:href="#DejaVuSerif-70" x="39.013672"/>
       <use xlink:href="#DejaVuSerif-72" x="103.027344"/>
       <use xlink:href="#DejaVuSerif-65" x="150.830078"/>
       <use xlink:href="#DejaVuSerif-2d" x="210.009766"/>
       <use xlink:href="#DejaVuSerif-31" x="243.798828"/>
       <use xlink:href="#DejaVuSerif-37" x="307.421875"/>
       <use xlink:href="#DejaVuSerif-30" x="371.044922"/>
       <use xlink:href="#DejaVuSerif-30" x="434.667969"/>
       <use xlink:href="#DejaVuSerif-29" x="498.291016"/>
      </g>
     </g>
    </g>
    <g id="xtick_2">
     <g id="line2d_2">
      <g>
       <use xlink:href="#m7093d3f81a" x="367.686186" y="385.737625" style="stroke: #000000; stroke-width: 0.8"/>
      </g>
     </g>
     <g id="text_2">
      <!-- Horse + Travois -->
      <g transform="translate(326.326811 400.336062) scale(0.1 -0.1)">
       <defs>
        <path id="DejaVuSerif-48" d="M 353 0 
L 353 331 
L 947 331 
L 947 4331 
L 353 4331 
L 353 4666 
L 2175 4666 
L 2175 4331 
L 1581 4331 
L 1581 2719 
L 4000 2719 
L 4000 4331 
L 3406 4331 
L 3406 4666 
L 5228 4666 
L 5228 4331 
L 4634 4331 
L 4634 331 
L 5228 331 
L 5228 0 
L 3406 0 
L 3406 331 
L 4000 331 
L 4000 2338 
L 1581 2338 
L 1581 331 
L 2175 331 
L 2175 0 
L 353 0 
z
" transform="scale(0.015625)"/>
       </defs>
       <use xlink:href="#DejaVuSerif-48"/>
       <use xlink:href="#DejaVuSerif-6f" x="87.207031"/>
       <use xlink:href="#DejaVuSerif-72" x="147.412109"/>
       <use xlink:href="#DejaVuSerif-73" x="195.214844"/>
       <use xlink:href="#DejaVuSerif-65" x="246.533203"/>
       <use xlink:href="#DejaVuSerif-20" x="305.712891"/>
       <use xlink:href="#DejaVuSerif-2b" x="337.5"/>
       <use xlink:href="#DejaVuSerif-20" x="421.289062"/>
       <use xlink:href="#DejaVuSerif-54" x="453.076172"/>
       <use xlink:href="#DejaVuSerif-72" x="519.775391"/>
       <use xlink:href="#DejaVuSerif-61" x="567.578125"/>
       <use xlink:href="#DejaVuSerif-76" x="627.197266"/>
       <use xlink:href="#DejaVuSerif-6f" x="683.691406"/>
       <use xlink:href="#DejaVuSerif-69" x="743.896484"/>
       <use xlink:href="#DejaVuSerif-73" x="775.878906"/>
      </g>
      <!-- (~1710) -->
      <g transform="translate(346.869779 411.533875) scale(0.1 -0.1)">
       <defs>
        <path id="DejaVuSerif-7e" d="M 4684 2522 
L 4684 2059 
Q 4372 1784 4090 1653 
Q 3809 1522 3519 1522 
Q 3219 1522 2675 1728 
L 2644 1741 
Q 2609 1753 2541 1781 
Q 2081 1959 1784 1959 
Q 1497 1959 1226 1845 
Q 956 1731 678 1491 
L 678 1966 
Q 991 2238 1270 2364 
Q 1550 2491 1844 2491 
Q 2144 2491 2688 2284 
L 2719 2272 
Q 2753 2259 2816 2234 
Q 3269 2053 3572 2053 
Q 3859 2053 4134 2168 
Q 4409 2284 4684 2522 
z
" transform="scale(0.015625)"/>
       </defs>
       <use xlink:href="#DejaVuSerif-28"/>
       <use xlink:href="#DejaVuSerif-7e" x="39.013672"/>
       <use xlink:href="#DejaVuSerif-31" x="122.802734"/>
       <use xlink:href="#DejaVuSerif-37" x="186.425781"/>
       <use xlink:href="#DejaVuSerif-31" x="250.048828"/>
       <use xlink:href="#DejaVuSerif-30" x="313.671875"/>
       <use xlink:href="#DejaVuSerif-29" x="377.294922"/>
      </g>
     </g>
    </g>
    <g id="xtick_3">
     <g id="line2d_3">
      <g>
       <use xlink:href="#m7093d3f81a" x="590.989572" y="385.737625" style="stroke: #000000; stroke-width: 0.8"/>
      </g>
     </g>
     <g id="text_3">
      <!-- Railroad Freight Car -->
      <g transform="translate(538.127072 400.336062) scale(0.1 -0.1)">
       <defs>
        <path id="DejaVuSerif-52" d="M 3066 2316 
Q 3284 2256 3442 2114 
Q 3600 1972 3725 1716 
L 4403 331 
L 4972 331 
L 4972 0 
L 3872 0 
L 3144 1484 
Q 2934 1916 2759 2042 
Q 2584 2169 2278 2169 
L 1581 2169 
L 1581 331 
L 2241 331 
L 2241 0 
L 353 0 
L 353 331 
L 947 331 
L 947 4331 
L 353 4331 
L 353 4666 
L 2719 4666 
Q 3400 4666 3770 4341 
Q 4141 4016 4141 3419 
Q 4141 2938 3870 2661 
Q 3600 2384 3066 2316 
z
M 1581 2503 
L 2503 2503 
Q 2975 2503 3200 2726 
Q 3425 2950 3425 3419 
Q 3425 3888 3200 4109 
Q 2975 4331 2503 4331 
L 1581 4331 
L 1581 2503 
z
" transform="scale(0.015625)"/>
        <path id="DejaVuSerif-6c" d="M 1313 331 
L 1856 331 
L 1856 0 
L 184 0 
L 184 331 
L 738 331 
L 738 4531 
L 184 4531 
L 184 4863 
L 1313 4863 
L 1313 331 
z
" transform="scale(0.015625)"/>
        <path id="DejaVuSerif-64" d="M 3359 331 
L 3909 331 
L 3909 0 
L 2784 0 
L 2784 519 
Q 2616 206 2355 57 
Q 2094 -91 1709 -91 
Q 1097 -91 708 395 
Q 319 881 319 1663 
Q 319 2444 706 2928 
Q 1094 3413 1709 3413 
Q 2094 3413 2355 3264 
Q 2616 3116 2784 2803 
L 2784 4531 
L 2241 4531 
L 2241 4863 
L 3359 4863 
L 3359 331 
z
M 2784 1497 
L 2784 1825 
Q 2784 2422 2554 2737 
Q 2325 3053 1888 3053 
Q 1444 3053 1217 2703 
Q 991 2353 991 1663 
Q 991 975 1217 622 
Q 1444 269 1888 269 
Q 2325 269 2554 583 
Q 2784 897 2784 1497 
z
" transform="scale(0.015625)"/>
        <path id="DejaVuSerif-46" d="M 353 0 
L 353 331 
L 947 331 
L 947 4331 
L 353 4331 
L 353 4666 
L 4172 4666 
L 4172 3628 
L 3788 3628 
L 3788 4281 
L 1581 4281 
L 1581 2719 
L 3175 2719 
L 3175 3303 
L 3559 3303 
L 3559 1753 
L 3175 1753 
L 3175 2338 
L 1581 2338 
L 1581 331 
L 2328 331 
L 2328 0 
L 353 0 
z
" transform="scale(0.015625)"/>
        <path id="DejaVuSerif-68" d="M 263 0 
L 263 331 
L 781 331 
L 781 4531 
L 231 4531 
L 231 4863 
L 1356 4863 
L 1356 2731 
Q 1516 3069 1770 3241 
Q 2025 3413 2363 3413 
Q 2913 3413 3172 3097 
Q 3431 2781 3431 2113 
L 3431 331 
L 3944 331 
L 3944 0 
L 2356 0 
L 2356 331 
L 2853 331 
L 2853 1931 
Q 2853 2541 2704 2764 
Q 2556 2988 2175 2988 
Q 1775 2988 1565 2697 
Q 1356 2406 1356 1850 
L 1356 331 
L 1856 331 
L 1856 0 
L 263 0 
z
" transform="scale(0.015625)"/>
        <path id="DejaVuSerif-74" d="M 691 2988 
L 184 2988 
L 184 3322 
L 691 3322 
L 691 4353 
L 1269 4353 
L 1269 3322 
L 2350 3322 
L 2350 2988 
L 1269 2988 
L 1269 878 
Q 1269 456 1350 337 
Q 1431 219 1650 219 
Q 1875 219 1978 351 
Q 2081 484 2088 781 
L 2522 781 
Q 2497 328 2275 118 
Q 2053 -91 1600 -91 
Q 1103 -91 897 129 
Q 691 350 691 878 
L 691 2988 
z
" transform="scale(0.015625)"/>
        <path id="DejaVuSerif-43" d="M 4513 1234 
Q 4306 581 3820 245 
Q 3334 -91 2591 -91 
Q 2134 -91 1743 65 
Q 1353 222 1050 525 
Q 700 875 529 1320 
Q 359 1766 359 2328 
Q 359 3416 987 4083 
Q 1616 4750 2644 4750 
Q 3025 4750 3456 4650 
Q 3888 4550 4384 4347 
L 4384 3272 
L 4031 3272 
Q 3916 3859 3567 4137 
Q 3219 4416 2591 4416 
Q 1844 4416 1459 3886 
Q 1075 3356 1075 2328 
Q 1075 1303 1459 773 
Q 1844 244 2591 244 
Q 3113 244 3450 492 
Q 3788 741 3938 1234 
L 4513 1234 
z
" transform="scale(0.015625)"/>
       </defs>
       <use xlink:href="#DejaVuSerif-52"/>
       <use xlink:href="#DejaVuSerif-61" x="77.542969"/>
       <use xlink:href="#DejaVuSerif-69" x="137.162109"/>
       <use xlink:href="#DejaVuSerif-6c" x="169.144531"/>
       <use xlink:href="#DejaVuSerif-72" x="201.126953"/>
       <use xlink:href="#DejaVuSerif-6f" x="248.929688"/>
       <use xlink:href="#DejaVuSerif-61" x="309.134766"/>
       <use xlink:href="#DejaVuSerif-64" x="368.753906"/>
       <use xlink:href="#DejaVuSerif-20" x="432.767578"/>
       <use xlink:href="#DejaVuSerif-46" x="464.554688"/>
       <use xlink:href="#DejaVuSerif-72" x="533.939453"/>
       <use xlink:href="#DejaVuSerif-65" x="581.742188"/>
       <use xlink:href="#DejaVuSerif-69" x="640.921875"/>
       <use xlink:href="#DejaVuSerif-67" x="672.904297"/>
       <use xlink:href="#DejaVuSerif-68" x="736.917969"/>
       <use xlink:href="#DejaVuSerif-74" x="801.322266"/>
       <use xlink:href="#DejaVuSerif-20" x="841.507812"/>
       <use xlink:href="#DejaVuSerif-43" x="873.294922"/>
       <use xlink:href="#DejaVuSerif-61" x="949.808594"/>
       <use xlink:href="#DejaVuSerif-72" x="1009.427734"/>
      </g>
      <!-- (~1870) -->
      <g transform="translate(570.173165 411.676062) scale(0.1 -0.1)">
       <defs>
        <path id="DejaVuSerif-38" d="M 2981 1275 
Q 2981 1775 2732 2051 
Q 2484 2328 2034 2328 
Q 1584 2328 1336 2051 
Q 1088 1775 1088 1275 
Q 1088 772 1336 495 
Q 1584 219 2034 219 
Q 2484 219 2732 495 
Q 2981 772 2981 1275 
z
M 2853 3541 
Q 2853 3966 2637 4203 
Q 2422 4441 2034 4441 
Q 1650 4441 1433 4203 
Q 1216 3966 1216 3541 
Q 1216 3113 1433 2875 
Q 1650 2638 2034 2638 
Q 2422 2638 2637 2875 
Q 2853 3113 2853 3541 
z
M 2516 2484 
Q 3047 2413 3344 2092 
Q 3641 1772 3641 1275 
Q 3641 619 3225 264 
Q 2809 -91 2034 -91 
Q 1263 -91 845 264 
Q 428 619 428 1275 
Q 428 1772 725 2092 
Q 1022 2413 1556 2484 
Q 1084 2569 832 2842 
Q 581 3116 581 3541 
Q 581 4103 968 4426 
Q 1356 4750 2034 4750 
Q 2713 4750 3100 4426 
Q 3488 4103 3488 3541 
Q 3488 3116 3236 2842 
Q 2984 2569 2516 2484 
z
" transform="scale(0.015625)"/>
       </defs>
       <use xlink:href="#DejaVuSerif-28"/>
       <use xlink:href="#DejaVuSerif-7e" x="39.013672"/>
       <use xlink:href="#DejaVuSerif-31" x="122.802734"/>
       <use xlink:href="#DejaVuSerif-38" x="186.425781"/>
       <use xlink:href="#DejaVuSerif-37" x="250.048828"/>
       <use xlink:href="#DejaVuSerif-30" x="313.671875"/>
       <use xlink:href="#DejaVuSerif-29" x="377.294922"/>
      </g>
     </g>
    </g>
   </g>
   <g id="matplotlib.axis_2">
    <g id="ytick_1">
     <g id="line2d_4">
      <defs>
       <path id="mc1341d2f99" d="M 0 0 
L -3.5 0 
" style="stroke: #000000; stroke-width: 0.8"/>
      </defs>
      <g>
       <use xlink:href="#mc1341d2f99" x="48.362344" y="343.739557" style="stroke: #000000; stroke-width: 0.8"/>
      </g>
     </g>
     <g id="text_4">
      <!-- $\mathdefault{10^{2}}$ -->
      <g transform="translate(22.002344 347.918698) scale(0.11 -0.11)">
       <defs>
        <path id="DejaVuSerif-32" d="M 819 3553 
L 469 3553 
L 469 4384 
Q 803 4563 1142 4656 
Q 1481 4750 1806 4750 
Q 2534 4750 2956 4397 
Q 3378 4044 3378 3438 
Q 3378 2753 2422 1800 
Q 2347 1728 2309 1691 
L 1131 513 
L 3078 513 
L 3078 1088 
L 3444 1088 
L 3444 0 
L 434 0 
L 434 341 
L 1850 1753 
Q 2319 2222 2519 2614 
Q 2719 3006 2719 3438 
Q 2719 3909 2473 4175 
Q 2228 4441 1797 4441 
Q 1350 4441 1106 4219 
Q 863 3997 819 3553 
z
" transform="scale(0.015625)"/>
       </defs>
       <use xlink:href="#DejaVuSerif-31" transform="translate(0 0.7125)"/>
       <use xlink:href="#DejaVuSerif-30" transform="translate(63.623047 0.7125)"/>
       <use xlink:href="#DejaVuSerif-32" transform="translate(128.154453 37.046875) scale(0.7)"/>
      </g>
     </g>
    </g>
    <g id="ytick_2">
     <g id="line2d_5">
      <g>
       <use xlink:href="#mc1341d2f99" x="48.362344" y="263.418703" style="stroke: #000000; stroke-width: 0.8"/>
      </g>
     </g>
     <g id="text_5">
      <!-- $\mathdefault{10^{3}}$ -->
      <g transform="translate(22.002344 267.597843) scale(0.11 -0.11)">
       <defs>
        <path id="DejaVuSerif-33" d="M 622 4469 
Q 988 4606 1323 4678 
Q 1659 4750 1953 4750 
Q 2638 4750 3022 4454 
Q 3406 4159 3406 3634 
Q 3406 3213 3140 2930 
Q 2875 2647 2388 2547 
Q 2963 2466 3280 2130 
Q 3597 1794 3597 1259 
Q 3597 606 3158 257 
Q 2719 -91 1894 -91 
Q 1528 -91 1179 -12 
Q 831 66 488 225 
L 488 1131 
L 838 1131 
Q 869 681 1141 450 
Q 1413 219 1906 219 
Q 2384 219 2661 495 
Q 2938 772 2938 1253 
Q 2938 1803 2653 2086 
Q 2369 2369 1819 2369 
L 1522 2369 
L 1522 2688 
L 1678 2688 
Q 2225 2688 2498 2914 
Q 2772 3141 2772 3597 
Q 2772 4006 2547 4223 
Q 2322 4441 1900 4441 
Q 1478 4441 1245 4241 
Q 1013 4041 972 3647 
L 622 3647 
L 622 4469 
z
" transform="scale(0.015625)"/>
       </defs>
       <use xlink:href="#DejaVuSerif-31" transform="translate(0 0.7125)"/>
       <use xlink:href="#DejaVuSerif-30" transform="translate(63.623047 0.7125)"/>
       <use xlink:href="#DejaVuSerif-33" transform="translate(128.154453 37.046875) scale(0.7)"/>
      </g>
     </g>
    </g>
    <g id="ytick_3">
     <g id="line2d_6">
      <g>
       <use xlink:href="#mc1341d2f99" x="48.362344" y="183.097848" style="stroke: #000000; stroke-width: 0.8"/>
      </g>
     </g>
     <g id="text_6">
      <!-- $\mathdefault{10^{4}}$ -->
      <g transform="translate(22.002344 187.276988) scale(0.11 -0.11)">
       <defs>
        <path id="DejaVuSerif-34" d="M 2234 1581 
L 2234 4063 
L 641 1581 
L 2234 1581 
z
M 3609 0 
L 1484 0 
L 1484 331 
L 2234 331 
L 2234 1247 
L 197 1247 
L 197 1588 
L 2241 4750 
L 2859 4750 
L 2859 1581 
L 3750 1581 
L 3750 1247 
L 2859 1247 
L 2859 331 
L 3609 331 
L 3609 0 
z
" transform="scale(0.015625)"/>
       </defs>
       <use xlink:href="#DejaVuSerif-31" transform="translate(0 0.7125)"/>
       <use xlink:href="#DejaVuSerif-30" transform="translate(63.623047 0.7125)"/>
       <use xlink:href="#DejaVuSerif-34" transform="translate(128.154453 37.046875) scale(0.7)"/>
      </g>
     </g>
    </g>
    <g id="ytick_4">
     <g id="line2d_7">
      <g>
       <use xlink:href="#mc1341d2f99" x="48.362344" y="102.776993" style="stroke: #000000; stroke-width: 0.8"/>
      </g>
     </g>
     <g id="text_7">
      <!-- $\mathdefault{10^{5}}$ -->
      <g transform="translate(22.002344 106.956134) scale(0.11 -0.11)">
       <defs>
        <path id="DejaVuSerif-35" d="M 3219 4666 
L 3219 4153 
L 1081 4153 
L 1081 2816 
Q 1244 2928 1461 2984 
Q 1678 3041 1947 3041 
Q 2703 3041 3140 2622 
Q 3578 2203 3578 1478 
Q 3578 738 3136 323 
Q 2694 -91 1894 -91 
Q 1572 -91 1234 -12 
Q 897 66 544 225 
L 544 1131 
L 897 1131 
Q 925 688 1179 453 
Q 1434 219 1894 219 
Q 2388 219 2653 544 
Q 2919 869 2919 1478 
Q 2919 2084 2655 2407 
Q 2391 2731 1894 2731 
Q 1613 2731 1398 2631 
Q 1184 2531 1019 2322 
L 750 2322 
L 750 4666 
L 3219 4666 
z
" transform="scale(0.015625)"/>
       </defs>
       <use xlink:href="#DejaVuSerif-31" transform="translate(0 0.63125)"/>
       <use xlink:href="#DejaVuSerif-30" transform="translate(63.623047 0.63125)"/>
       <use xlink:href="#DejaVuSerif-35" transform="translate(128.154453 36.965625) scale(0.7)"/>
      </g>
     </g>
    </g>
    <g id="ytick_5">
     <g id="line2d_8">
      <defs>
       <path id="m1bcf3e541c" d="M 0 0 
L -2 0 
" style="stroke: #000000; stroke-width: 0.6"/>
      </defs>
      <g>
       <use xlink:href="#m1bcf3e541c" x="48.362344" y="385.737625" style="stroke: #000000; stroke-width: 0.6"/>
      </g>
     </g>
    </g>
    <g id="ytick_6">
     <g id="line2d_9">
      <g>
       <use xlink:href="#m1bcf3e541c" x="48.362344" y="375.702439" style="stroke: #000000; stroke-width: 0.6"/>
      </g>
     </g>
    </g>
    <g id="ytick_7">
     <g id="line2d_10">
      <g>
       <use xlink:href="#m1bcf3e541c" x="48.362344" y="367.918544" style="stroke: #000000; stroke-width: 0.6"/>
      </g>
     </g>
    </g>
    <g id="ytick_8">
     <g id="line2d_11">
      <g>
       <use xlink:href="#m1bcf3e541c" x="48.362344" y="361.558638" style="stroke: #000000; stroke-width: 0.6"/>
      </g>
     </g>
    </g>
    <g id="ytick_9">
     <g id="line2d_12">
      <g>
       <use xlink:href="#m1bcf3e541c" x="48.362344" y="356.181415" style="stroke: #000000; stroke-width: 0.6"/>
      </g>
     </g>
    </g>
    <g id="ytick_10">
     <g id="line2d_13">
      <g>
       <use xlink:href="#m1bcf3e541c" x="48.362344" y="351.523452" style="stroke: #000000; stroke-width: 0.6"/>
      </g>
     </g>
    </g>
    <g id="ytick_11">
     <g id="line2d_14">
      <g>
       <use xlink:href="#m1bcf3e541c" x="48.362344" y="347.414838" style="stroke: #000000; stroke-width: 0.6"/>
      </g>
     </g>
    </g>
    <g id="ytick_12">
     <g id="line2d_15">
      <g>
       <use xlink:href="#m1bcf3e541c" x="48.362344" y="319.560571" style="stroke: #000000; stroke-width: 0.6"/>
      </g>
     </g>
    </g>
    <g id="ytick_13">
     <g id="line2d_16">
      <g>
       <use xlink:href="#m1bcf3e541c" x="48.362344" y="305.41677" style="stroke: #000000; stroke-width: 0.6"/>
      </g>
     </g>
    </g>
    <g id="ytick_14">
     <g id="line2d_17">
      <g>
       <use xlink:href="#m1bcf3e541c" x="48.362344" y="295.381584" style="stroke: #000000; stroke-width: 0.6"/>
      </g>
     </g>
    </g>
    <g id="ytick_15">
     <g id="line2d_18">
      <g>
       <use xlink:href="#m1bcf3e541c" x="48.362344" y="287.597689" style="stroke: #000000; stroke-width: 0.6"/>
      </g>
     </g>
    </g>
    <g id="ytick_16">
     <g id="line2d_19">
      <g>
       <use xlink:href="#m1bcf3e541c" x="48.362344" y="281.237784" style="stroke: #000000; stroke-width: 0.6"/>
      </g>
     </g>
    </g>
    <g id="ytick_17">
     <g id="line2d_20">
      <g>
       <use xlink:href="#m1bcf3e541c" x="48.362344" y="275.86056" style="stroke: #000000; stroke-width: 0.6"/>
      </g>
     </g>
    </g>
    <g id="ytick_18">
     <g id="line2d_21">
      <g>
       <use xlink:href="#m1bcf3e541c" x="48.362344" y="271.202598" style="stroke: #000000; stroke-width: 0.6"/>
      </g>
     </g>
    </g>
    <g id="ytick_19">
     <g id="line2d_22">
      <g>
       <use xlink:href="#m1bcf3e541c" x="48.362344" y="267.093983" style="stroke: #000000; stroke-width: 0.6"/>
      </g>
     </g>
    </g>
    <g id="ytick_20">
     <g id="line2d_23">
      <g>
       <use xlink:href="#m1bcf3e541c" x="48.362344" y="239.239716" style="stroke: #000000; stroke-width: 0.6"/>
      </g>
     </g>
    </g>
    <g id="ytick_21">
     <g id="line2d_24">
      <g>
       <use xlink:href="#m1bcf3e541c" x="48.362344" y="225.095916" style="stroke: #000000; stroke-width: 0.6"/>
      </g>
     </g>
    </g>
    <g id="ytick_22">
     <g id="line2d_25">
      <g>
       <use xlink:href="#m1bcf3e541c" x="48.362344" y="215.060729" style="stroke: #000000; stroke-width: 0.6"/>
      </g>
     </g>
    </g>
    <g id="ytick_23">
     <g id="line2d_26">
      <g>
       <use xlink:href="#m1bcf3e541c" x="48.362344" y="207.276834" style="stroke: #000000; stroke-width: 0.6"/>
      </g>
     </g>
    </g>
    <g id="ytick_24">
     <g id="line2d_27">
      <g>
       <use xlink:href="#m1bcf3e541c" x="48.362344" y="200.916929" style="stroke: #000000; stroke-width: 0.6"/>
      </g>
     </g>
    </g>
    <g id="ytick_25">
     <g id="line2d_28">
      <g>
       <use xlink:href="#m1bcf3e541c" x="48.362344" y="195.539706" style="stroke: #000000; stroke-width: 0.6"/>
      </g>
     </g>
    </g>
    <g id="ytick_26">
     <g id="line2d_29">
      <g>
       <use xlink:href="#m1bcf3e541c" x="48.362344" y="190.881743" style="stroke: #000000; stroke-width: 0.6"/>
      </g>
     </g>
    </g>
    <g id="ytick_27">
     <g id="line2d_30">
      <g>
       <use xlink:href="#m1bcf3e541c" x="48.362344" y="186.773129" style="stroke: #000000; stroke-width: 0.6"/>
      </g>
     </g>
    </g>
    <g id="ytick_28">
     <g id="line2d_31">
      <g>
       <use xlink:href="#m1bcf3e541c" x="48.362344" y="158.918861" style="stroke: #000000; stroke-width: 0.6"/>
      </g>
     </g>
    </g>
    <g id="ytick_29">
     <g id="line2d_32">
      <g>
       <use xlink:href="#m1bcf3e541c" x="48.362344" y="144.775061" style="stroke: #000000; stroke-width: 0.6"/>
      </g>
     </g>
    </g>
    <g id="ytick_30">
     <g id="line2d_33">
      <g>
       <use xlink:href="#m1bcf3e541c" x="48.362344" y="134.739875" style="stroke: #000000; stroke-width: 0.6"/>
      </g>
     </g>
    </g>
    <g id="ytick_31">
     <g id="line2d_34">
      <g>
       <use xlink:href="#m1bcf3e541c" x="48.362344" y="126.95598" style="stroke: #000000; stroke-width: 0.6"/>
      </g>
     </g>
    </g>
    <g id="ytick_32">
     <g id="line2d_35">
      <g>
       <use xlink:href="#m1bcf3e541c" x="48.362344" y="120.596074" style="stroke: #000000; stroke-width: 0.6"/>
      </g>
     </g>
    </g>
    <g id="ytick_33">
     <g id="line2d_36">
      <g>
       <use xlink:href="#m1bcf3e541c" x="48.362344" y="115.218851" style="stroke: #000000; stroke-width: 0.6"/>
      </g>
     </g>
    </g>
    <g id="ytick_34">
     <g id="line2d_37">
      <g>
       <use xlink:href="#m1bcf3e541c" x="48.362344" y="110.560888" style="stroke: #000000; stroke-width: 0.6"/>
      </g>
     </g>
    </g>
    <g id="ytick_35">
     <g id="line2d_38">
      <g>
       <use xlink:href="#m1bcf3e541c" x="48.362344" y="106.452274" style="stroke: #000000; stroke-width: 0.6"/>
      </g>
     </g>
    </g>
    <g id="ytick_36">
     <g id="line2d_39">
      <g>
       <use xlink:href="#m1bcf3e541c" x="48.362344" y="78.598007" style="stroke: #000000; stroke-width: 0.6"/>
      </g>
     </g>
    </g>
    <g id="ytick_37">
     <g id="line2d_40">
      <g>
       <use xlink:href="#m1bcf3e541c" x="48.362344" y="64.454206" style="stroke: #000000; stroke-width: 0.6"/>
      </g>
     </g>
    </g>
    <g id="ytick_38">
     <g id="line2d_41">
      <g>
       <use xlink:href="#m1bcf3e541c" x="48.362344" y="54.41902" style="stroke: #000000; stroke-width: 0.6"/>
      </g>
     </g>
    </g>
    <g id="ytick_39">
     <g id="line2d_42">
      <g>
       <use xlink:href="#m1bcf3e541c" x="48.362344" y="46.635125" style="stroke: #000000; stroke-width: 0.6"/>
      </g>
     </g>
    </g>
    <g id="text_8">
     <!-- Cargo Capacity (lbs, log scale) -->
     <g transform="translate(15.558281 301.500828) rotate(-90) scale(0.11 -0.11)">
      <defs>
       <path id="DejaVuSerif-63" d="M 3291 997 
Q 3169 466 2822 187 
Q 2475 -91 1925 -91 
Q 1200 -91 759 389 
Q 319 869 319 1663 
Q 319 2459 759 2936 
Q 1200 3413 1925 3413 
Q 2241 3413 2553 3339 
Q 2866 3266 3181 3116 
L 3181 2266 
L 2847 2266 
Q 2781 2703 2561 2903 
Q 2341 3103 1931 3103 
Q 1466 3103 1228 2742 
Q 991 2381 991 1663 
Q 991 944 1227 581 
Q 1463 219 1931 219 
Q 2303 219 2525 412 
Q 2747 606 2828 997 
L 3291 997 
z
" transform="scale(0.015625)"/>
       <path id="DejaVuSerif-79" d="M 1381 -609 
L 1600 -56 
L 359 2988 
L -19 2988 
L -19 3322 
L 1509 3322 
L 1509 2988 
L 978 2988 
L 1913 703 
L 2847 2988 
L 2350 2988 
L 2350 3322 
L 3597 3322 
L 3597 2988 
L 3225 2988 
L 1703 -750 
Q 1547 -1138 1356 -1280 
Q 1166 -1422 819 -1422 
Q 672 -1422 517 -1397 
Q 363 -1372 206 -1325 
L 206 -691 
L 500 -691 
Q 519 -903 608 -995 
Q 697 -1088 884 -1088 
Q 1056 -1088 1161 -992 
Q 1266 -897 1381 -609 
z
" transform="scale(0.015625)"/>
       <path id="DejaVuSerif-62" d="M 738 331 
L 738 4531 
L 184 4531 
L 184 4863 
L 1313 4863 
L 1313 2803 
Q 1481 3116 1742 3264 
Q 2003 3413 2388 3413 
Q 3000 3413 3387 2928 
Q 3775 2444 3775 1663 
Q 3775 881 3387 395 
Q 3000 -91 2388 -91 
Q 2003 -91 1742 57 
Q 1481 206 1313 519 
L 1313 0 
L 184 0 
L 184 331 
L 738 331 
z
M 1313 1497 
Q 1313 897 1542 583 
Q 1772 269 2209 269 
Q 2650 269 2876 622 
Q 3103 975 3103 1663 
Q 3103 2353 2876 2703 
Q 2650 3053 2209 3053 
Q 1772 3053 1542 2737 
Q 1313 2422 1313 1825 
L 1313 1497 
z
" transform="scale(0.015625)"/>
       <path id="DejaVuSerif-2c" d="M 231 -622 
Q 525 -406 662 -114 
Q 800 178 800 594 
L 800 709 
L 1416 709 
Q 1391 175 1164 -208 
Q 938 -591 481 -872 
L 231 -622 
z
" transform="scale(0.015625)"/>
      </defs>
      <use xlink:href="#DejaVuSerif-43"/>
      <use xlink:href="#DejaVuSerif-61" x="76.513672"/>
      <use xlink:href="#DejaVuSerif-72" x="136.132812"/>
      <use xlink:href="#DejaVuSerif-67" x="183.935547"/>
      <use xlink:href="#DejaVuSerif-6f" x="247.949219"/>
      <use xlink:href="#DejaVuSerif-20" x="308.154297"/>
      <use xlink:href="#DejaVuSerif-43" x="339.941406"/>
      <use xlink:href="#DejaVuSerif-61" x="416.455078"/>
      <use xlink:href="#DejaVuSerif-70" x="476.074219"/>
      <use xlink:href="#DejaVuSerif-61" x="540.087891"/>
      <use xlink:href="#DejaVuSerif-63" x="599.707031"/>
      <use xlink:href="#DejaVuSerif-69" x="655.712891"/>
      <use xlink:href="#DejaVuSerif-74" x="687.695312"/>
      <use xlink:href="#DejaVuSerif-79" x="727.880859"/>
      <use xlink:href="#DejaVuSerif-20" x="784.375"/>
      <use xlink:href="#DejaVuSerif-28" x="816.162109"/>
      <use xlink:href="#DejaVuSerif-6c" x="855.175781"/>
      <use xlink:href="#DejaVuSerif-62" x="887.158203"/>
      <use xlink:href="#DejaVuSerif-73" x="951.171875"/>
      <use xlink:href="#DejaVuSerif-2c" x="1002.490234"/>
      <use xlink:href="#DejaVuSerif-20" x="1034.277344"/>
      <use xlink:href="#DejaVuSerif-6c" x="1066.064453"/>
      <use xlink:href="#DejaVuSerif-6f" x="1098.046875"/>
      <use xlink:href="#DejaVuSerif-67" x="1158.251953"/>
      <use xlink:href="#DejaVuSerif-20" x="1222.265625"/>
      <use xlink:href="#DejaVuSerif-73" x="1254.052734"/>
      <use xlink:href="#DejaVuSerif-63" x="1305.371094"/>
      <use xlink:href="#DejaVuSerif-61" x="1361.376953"/>
      <use xlink:href="#DejaVuSerif-6c" x="1420.996094"/>
      <use xlink:href="#DejaVuSerif-65" x="1452.978516"/>
      <use xlink:href="#DejaVuSerif-29" x="1512.158203"/>
     </g>
    </g>
   </g>
   <g id="patch_6">
    <path d="M 48.362344 385.737625 
L 48.362344 46.635125 
" style="fill: none; stroke: #000000; stroke-width: 0.8; stroke-linejoin: miter; stroke-linecap: square"/>
   </g>
   <g id="patch_7">
    <path d="M 48.362344 385.737625 
L 687.010028 385.737625 
" style="fill: none; stroke: #000000; stroke-width: 0.8; stroke-linejoin: miter; stroke-linecap: square"/>
   </g>
   <g id="text_9">
    <!-- 75 lbs -->
    <g style="fill: #2c3e50" transform="translate(124.092487 342.127091) scale(0.12 -0.12)">
     <defs>
      <path id="DejaVuSerif-Bold-37" d="M 3922 3872 
L 1997 0 
L 1363 0 
L 3238 3781 
L 934 3781 
L 934 3150 
L 506 3150 
L 506 4666 
L 3922 4666 
L 3922 3872 
z
" transform="scale(0.015625)"/>
      <path id="DejaVuSerif-Bold-35" d="M 3609 4666 
L 3609 3847 
L 1113 3847 
L 1113 2822 
Q 1319 2981 1572 3062 
Q 1825 3144 2106 3144 
Q 2969 3144 3469 2708 
Q 3969 2272 3969 1522 
Q 3969 759 3469 334 
Q 2969 -91 2069 -91 
Q 1688 -91 1311 -28 
Q 934 34 525 166 
L 525 1184 
L 900 1184 
Q 919 725 1139 500 
Q 1359 275 1791 275 
Q 2250 275 2472 583 
Q 2694 891 2694 1522 
Q 2694 2144 2476 2451 
Q 2259 2759 1819 2759 
Q 1581 2759 1395 2661 
Q 1209 2563 1050 2356 
L 738 2356 
L 738 4666 
L 3609 4666 
z
" transform="scale(0.015625)"/>
      <path id="DejaVuSerif-Bold-20" transform="scale(0.015625)"/>
      <path id="DejaVuSerif-Bold-6c" d="M 1797 378 
L 2272 378 
L 2272 0 
L 219 0 
L 219 378 
L 691 378 
L 691 4488 
L 219 4488 
L 219 4863 
L 1797 4863 
L 1797 378 
z
" transform="scale(0.015625)"/>
      <path id="DejaVuSerif-Bold-62" d="M 622 378 
L 622 4488 
L 147 4488 
L 147 4863 
L 1728 4863 
L 1728 2900 
Q 1869 3159 2106 3286 
Q 2344 3413 2694 3413 
Q 3403 3413 3811 2945 
Q 4219 2478 4219 1663 
Q 4219 847 3811 378 
Q 3403 -91 2694 -91 
Q 2344 -91 2106 36 
Q 1869 163 1728 422 
L 1728 0 
L 147 0 
L 147 378 
L 622 378 
z
M 1728 1497 
Q 1728 916 1876 656 
Q 2025 397 2356 397 
Q 2697 397 2836 672 
Q 2975 947 2975 1663 
Q 2975 2378 2836 2651 
Q 2697 2925 2356 2925 
Q 2025 2925 1876 2665 
Q 1728 2406 1728 1825 
L 1728 1497 
z
" transform="scale(0.015625)"/>
      <path id="DejaVuSerif-Bold-73" d="M 300 97 
L 300 1025 
L 653 1025 
Q 697 653 931 458 
Q 1166 263 1569 263 
Q 1906 263 2086 380 
Q 2266 497 2266 716 
Q 2266 916 2152 1025 
Q 2038 1134 1709 1216 
L 1253 1331 
Q 738 1459 506 1698 
Q 275 1938 275 2344 
Q 275 2884 650 3148 
Q 1025 3413 1806 3413 
Q 2100 3413 2433 3364 
Q 2766 3316 3169 3213 
L 3169 2375 
L 2816 2375 
Q 2788 2716 2573 2887 
Q 2359 3059 1959 3059 
Q 1622 3059 1448 2951 
Q 1275 2844 1275 2638 
Q 1275 2469 1375 2372 
Q 1475 2275 1734 2209 
L 2188 2094 
Q 2841 1928 3091 1684 
Q 3341 1441 3341 1006 
Q 3341 444 2939 176 
Q 2538 -91 1691 -91 
Q 1381 -91 1034 -44 
Q 688 3 300 97 
z
" transform="scale(0.015625)"/>
     </defs>
     <use xlink:href="#DejaVuSerif-Bold-37"/>
     <use xlink:href="#DejaVuSerif-Bold-35" x="69.580078"/>
     <use xlink:href="#DejaVuSerif-Bold-20" x="139.160156"/>
     <use xlink:href="#DejaVuSerif-Bold-6c" x="173.974609"/>
     <use xlink:href="#DejaVuSerif-Bold-62" x="211.962891"/>
     <use xlink:href="#DejaVuSerif-Bold-73" x="281.884766"/>
    </g>
   </g>
   <g id="text_10">
    <!-- 300 lbs -->
    <g style="fill: #2c3e50" transform="translate(343.221186 293.769118) scale(0.12 -0.12)">
     <defs>
      <path id="DejaVuSerif-Bold-33" d="M 550 4531 
Q 963 4641 1350 4695 
Q 1738 4750 2106 4750 
Q 2950 4750 3401 4448 
Q 3853 4147 3853 3584 
Q 3853 3163 3593 2900 
Q 3334 2638 2834 2547 
Q 3444 2450 3744 2131 
Q 4044 1813 4044 1259 
Q 4044 606 3526 257 
Q 3009 -91 2028 -91 
Q 1659 -91 1267 -28 
Q 875 34 447 159 
L 447 1184 
L 825 1184 
Q 859 741 1103 508 
Q 1347 275 1778 275 
Q 2253 275 2512 539 
Q 2772 803 2772 1288 
Q 2772 1794 2501 2069 
Q 2231 2344 1734 2344 
L 1528 2344 
L 1528 2719 
L 1691 2719 
Q 2150 2719 2381 2931 
Q 2613 3144 2613 3566 
Q 2613 3963 2395 4173 
Q 2178 4384 1772 4384 
Q 1403 4384 1187 4182 
Q 972 3981 928 3597 
L 550 3597 
L 550 4531 
z
" transform="scale(0.015625)"/>
      <path id="DejaVuSerif-Bold-30" d="M 2228 275 
Q 2603 275 2742 615 
Q 2881 956 2881 2328 
Q 2881 3691 2742 4037 
Q 2603 4384 2228 4384 
Q 1853 4384 1714 4043 
Q 1575 3703 1575 2328 
Q 1575 956 1714 615 
Q 1853 275 2228 275 
z
M 2228 -91 
Q 1294 -91 797 532 
Q 300 1156 300 2328 
Q 300 3500 797 4125 
Q 1294 4750 2228 4750 
Q 3159 4750 3656 4125 
Q 4153 3500 4153 2328 
Q 4153 1156 3656 532 
Q 3159 -91 2228 -91 
z
" transform="scale(0.015625)"/>
     </defs>
     <use xlink:href="#DejaVuSerif-Bold-33"/>
     <use xlink:href="#DejaVuSerif-Bold-30" x="69.580078"/>
     <use xlink:href="#DejaVuSerif-Bold-30" x="139.160156"/>
     <use xlink:href="#DejaVuSerif-Bold-20" x="208.740234"/>
     <use xlink:href="#DejaVuSerif-Bold-6c" x="243.554688"/>
     <use xlink:href="#DejaVuSerif-Bold-62" x="281.542969"/>
     <use xlink:href="#DejaVuSerif-Bold-73" x="351.464844"/>
    </g>
   </g>
   <g id="text_11">
    <!-- 200,000 lbs -->
    <g style="fill: #2c3e50" transform="translate(551.911759 66.950354) scale(0.12 -0.12)">
     <defs>
      <path id="DejaVuSerif-Bold-32" d="M 844 3513 
L 469 3513 
L 469 4519 
Q 850 4634 1223 4692 
Q 1597 4750 1978 4750 
Q 2869 4750 3367 4386 
Q 3866 4022 3866 3372 
Q 3866 2909 3591 2542 
Q 3316 2175 2541 1672 
L 1241 819 
L 3450 819 
L 3450 1369 
L 3878 1369 
L 3878 0 
L 428 0 
L 428 763 
L 1119 1241 
Q 2003 1850 2297 2278 
Q 2591 2706 2591 3278 
Q 2591 3819 2367 4101 
Q 2144 4384 1716 4384 
Q 1347 4384 1125 4161 
Q 903 3938 844 3513 
z
" transform="scale(0.015625)"/>
      <path id="DejaVuSerif-Bold-2c" d="M 84 -616 
Q 409 -353 562 -28 
Q 716 297 716 728 
L 716 997 
L 1606 997 
L 1606 972 
Q 1606 281 1317 -217 
Q 1028 -716 428 -1056 
L 84 -616 
z
" transform="scale(0.015625)"/>
     </defs>
     <use xlink:href="#DejaVuSerif-Bold-32"/>
     <use xlink:href="#DejaVuSerif-Bold-30" x="69.580078"/>
     <use xlink:href="#DejaVuSerif-Bold-30" x="139.160156"/>
     <use xlink:href="#DejaVuSerif-Bold-2c" x="208.740234"/>
     <use xlink:href="#DejaVuSerif-Bold-30" x="243.554688"/>
     <use xlink:href="#DejaVuSerif-Bold-30" x="313.134766"/>
     <use xlink:href="#DejaVuSerif-Bold-30" x="382.714844"/>
     <use xlink:href="#DejaVuSerif-Bold-20" x="452.294922"/>
     <use xlink:href="#DejaVuSerif-Bold-6c" x="487.109375"/>
     <use xlink:href="#DejaVuSerif-Bold-62" x="525.097656"/>
     <use xlink:href="#DejaVuSerif-Bold-73" x="595.019531"/>
    </g>
   </g>
   <g id="text_12">
    <g id="patch_8">
     <path d="M 243.764493 335.778351 
L 268.304493 335.778351 
Q 273.104493 335.778351 273.104493 330.978351 
L 273.104493 315.493351 
Q 273.104493 310.693351 268.304493 310.693351 
L 243.764493 310.693351 
Q 238.964493 310.693351 238.964493 315.493351 
L 238.964493 330.978351 
Q 238.964493 335.778351 243.764493 335.778351 
z
" style="fill: #ffffff; stroke: #e67e22; stroke-linejoin: miter"/>
    </g>
    <!-- 4× -->
    <g style="fill: #e67e22" transform="translate(243.764493 327.650851) scale(0.16 -0.16)">
     <defs>
      <path id="DejaVuSerif-Bold-34" d="M 4084 0 
L 1516 0 
L 1516 378 
L 2209 378 
L 2209 1228 
L 263 1228 
L 263 1588 
L 2216 4750 
L 3391 4750 
L 3391 1631 
L 4191 1631 
L 4191 1228 
L 3391 1228 
L 3391 378 
L 4084 378 
L 4084 0 
z
M 2209 1631 
L 2209 3897 
L 819 1631 
L 2209 1631 
z
" transform="scale(0.015625)"/>
      <path id="DejaVuSerif-Bold-d7" d="M 4538 3378 
L 3163 2003 
L 4538 628 
L 4056 147 
L 2681 1522 
L 1306 147 
L 825 628 
L 2203 2003 
L 825 3378 
L 1306 3866 
L 2681 2491 
L 4056 3866 
L 4538 3378 
z
" transform="scale(0.015625)"/>
     </defs>
     <use xlink:href="#DejaVuSerif-Bold-34"/>
     <use xlink:href="#DejaVuSerif-Bold-d7" x="69.580078"/>
    </g>
   </g>
   <g id="patch_9">
    <path d="M 146.382908 329.595757 
Q 256.03332 329.595757 363.447663 329.595757 
" style="fill: none; stroke: #e67e22; stroke-width: 2; stroke-linecap: round"/>
    <path d="M 359.047663 327.395757 
L 363.447663 329.595757 
L 359.047663 331.795757 
" style="fill: none; stroke: #e67e22; stroke-width: 2; stroke-linecap: round"/>
   </g>
   <g id="text_13">
    <g id="patch_10">
     <path d="M 455.935379 203.424243 
L 502.740379 203.424243 
Q 507.540379 203.424243 507.540379 198.624243 
L 507.540379 183.139243 
Q 507.540379 178.339243 502.740379 178.339243 
L 455.935379 178.339243 
Q 451.135379 178.339243 451.135379 183.139243 
L 451.135379 198.624243 
Q 451.135379 203.424243 455.935379 203.424243 
z
" style="fill: #ffffff; stroke: #c0392b; stroke-linejoin: miter"/>
    </g>
    <!-- 667× -->
    <g style="fill: #c0392b" transform="translate(455.935379 195.296743) scale(0.16 -0.16)">
     <defs>
      <path id="DejaVuSerif-Bold-36" d="M 1575 2766 
Q 1778 2928 2029 3009 
Q 2281 3091 2578 3091 
Q 3294 3091 3701 2672 
Q 4109 2253 4109 1522 
Q 4109 750 3650 329 
Q 3191 -91 2344 -91 
Q 1388 -91 895 486 
Q 403 1063 403 2181 
Q 403 3453 950 4101 
Q 1497 4750 2572 4750 
Q 2853 4750 3175 4703 
Q 3497 4656 3866 4563 
L 3866 3738 
L 3488 3738 
Q 3409 4056 3192 4220 
Q 2975 4384 2631 4384 
Q 2075 4384 1826 4003 
Q 1578 3622 1575 2766 
z
M 2272 275 
Q 2594 275 2731 548 
Q 2869 822 2869 1497 
Q 2869 2172 2731 2445 
Q 2594 2719 2272 2719 
Q 1950 2719 1814 2445 
Q 1678 2172 1678 1497 
Q 1678 822 1814 548 
Q 1950 275 2272 275 
z
" transform="scale(0.015625)"/>
     </defs>
     <use xlink:href="#DejaVuSerif-Bold-36"/>
     <use xlink:href="#DejaVuSerif-Bold-36" x="69.580078"/>
     <use xlink:href="#DejaVuSerif-Bold-37" x="139.160156"/>
     <use xlink:href="#DejaVuSerif-Bold-d7" x="208.740234"/>
    </g>
   </g>
   <g id="patch_11">
    <path d="M 369.686294 207.276834 
Q 479.336706 207.276834 586.751049 207.276834 
" style="fill: none; stroke: #c0392b; stroke-width: 2; stroke-linecap: round"/>
    <path d="M 582.351049 205.076834 
L 586.751049 207.276834 
L 582.351049 209.476834 
" style="fill: none; stroke: #c0392b; stroke-width: 2; stroke-linecap: round"/>
   </g>
   <g id="text_14">
    <!-- First friction collapse: -->
    <g style="fill: #e67e22" transform="translate(211.161993 358.960294) scale(0.08 -0.08)">
     <defs>
      <path id="DejaVuSerif-Italic-46" d="M -97 0 
L -34 331 
L 559 331 
L 1338 4331 
L 744 4331 
L 809 4666 
L 4628 4666 
L 4428 3628 
L 4044 3628 
L 4169 4281 
L 1963 4281 
L 1659 2719 
L 3253 2719 
L 3366 3303 
L 3750 3303 
L 3450 1753 
L 3066 1753 
L 3178 2338 
L 1584 2338 
L 1194 331 
L 1941 331 
L 1878 0 
L -97 0 
z
" transform="scale(0.015625)"/>
      <path id="DejaVuSerif-Italic-69" d="M 1009 4353 
Q 1038 4497 1163 4603 
Q 1288 4709 1434 4709 
Q 1578 4709 1663 4603 
Q 1728 4522 1728 4422 
Q 1728 4388 1719 4353 
Q 1691 4206 1567 4103 
Q 1444 4000 1297 4000 
Q 1150 4000 1066 4103 
Q 1003 4181 1003 4281 
Q 1003 4316 1009 4353 
z
M 963 331 
L 1506 331 
L 1444 0 
L 325 0 
L 903 2988 
L 353 2988 
L 419 3322 
L 1544 3322 
L 963 331 
z
" transform="scale(0.015625)"/>
      <path id="DejaVuSerif-Italic-72" d="M 3375 3328 
L 3213 2497 
L 2881 2497 
Q 2891 2559 2891 2613 
Q 2891 2775 2816 2866 
Q 2719 2988 2484 2988 
Q 2059 2988 1775 2694 
Q 1491 2400 1384 1850 
L 1025 0 
L 450 0 
L 1031 2994 
L 481 2994 
L 544 3322 
L 1669 3322 
L 1556 2731 
Q 1791 3078 2089 3245 
Q 2388 3413 2769 3413 
Q 2909 3413 3059 3391 
Q 3209 3369 3375 3328 
z
" transform="scale(0.015625)"/>
      <path id="DejaVuSerif-Italic-73" d="M 222 959 
L 553 959 
Q 541 869 541 788 
Q 541 219 1313 219 
Q 2088 219 2200 788 
Q 2209 844 2209 944 
Q 2209 1041 2103 1158 
Q 1997 1275 1550 1428 
L 1159 1569 
Q 759 1706 629 1882 
Q 500 2059 500 2263 
Q 500 2344 516 2438 
Q 606 2894 990 3153 
Q 1375 3413 1931 3413 
Q 2484 3413 3066 3144 
L 2925 2419 
L 2594 2419 
Q 2606 2491 2606 2553 
Q 2606 2781 2448 2942 
Q 2291 3103 1925 3103 
Q 1191 3103 1091 2591 
Q 1078 2538 1078 2444 
Q 1078 2347 1179 2237 
Q 1281 2128 1678 1997 
L 2106 1856 
Q 2550 1709 2716 1488 
Q 2831 1331 2831 1178 
Q 2831 522 2306 181 
Q 1894 -91 1262 -91 
Q 631 -91 72 184 
L 222 959 
z
" transform="scale(0.015625)"/>
      <path id="DejaVuSerif-Italic-74" d="M 856 2988 
L 350 2988 
L 416 3322 
L 922 3322 
L 1122 4353 
L 1700 4353 
L 1500 3322 
L 2581 3322 
L 2516 2988 
L 1434 2988 
L 1025 878 
Q 978 631 978 488 
Q 978 388 1000 338 
Q 1059 219 1278 219 
Q 1503 219 1633 351 
Q 1763 484 1825 781 
L 2259 781 
Q 2147 328 1884 118 
Q 1622 -91 1169 -91 
Q 672 -91 506 131 
Q 406 266 406 516 
Q 406 675 447 878 
L 856 2988 
z
" transform="scale(0.015625)"/>
      <path id="DejaVuSerif-Italic-20" transform="scale(0.015625)"/>
      <path id="DejaVuSerif-Italic-66" d="M 3191 4078 
L 2888 4078 
Q 2900 4144 2900 4203 
Q 2900 4347 2825 4434 
Q 2719 4556 2472 4556 
Q 2150 4556 1984 4379 
Q 1819 4203 1731 3750 
L 1647 3322 
L 2575 3322 
L 2509 2988 
L 1581 2988 
L 963 -206 
Q 853 -763 509 -1047 
Q 166 -1331 -394 -1331 
L -356 -1025 
Q -28 -1025 131 -850 
Q 297 -663 388 -206 
L 1006 2988 
L 456 2988 
L 522 3322 
L 1072 3322 
L 1153 3738 
Q 1263 4297 1606 4578 
Q 1950 4863 2509 4863 
Q 2719 4863 2920 4825 
Q 3122 4788 3316 4709 
L 3191 4078 
z
" transform="scale(0.015625)"/>
      <path id="DejaVuSerif-Italic-63" d="M 3163 997 
Q 2938 466 2536 187 
Q 2134 -91 1584 -91 
Q 859 -91 513 388 
Q 272 722 272 1203 
Q 272 1419 319 1663 
Q 475 2459 1008 2936 
Q 1541 3413 2266 3413 
Q 2581 3413 2879 3339 
Q 3178 3266 3463 3116 
L 3300 2266 
L 2966 2266 
Q 2966 2309 2966 2347 
Q 2966 2722 2803 2903 
Q 2622 3103 2213 3103 
Q 1747 3103 1439 2742 
Q 1131 2381 991 1663 
Q 928 1334 928 1078 
Q 928 778 1016 581 
Q 1181 219 1650 219 
Q 2022 219 2281 412 
Q 2541 606 2700 997 
L 3163 997 
z
" transform="scale(0.015625)"/>
      <path id="DejaVuSerif-Italic-6f" d="M 1644 219 
Q 2106 219 2414 584 
Q 2722 950 2859 1663 
Q 2922 1988 2922 2241 
Q 2922 2541 2834 2738 
Q 2669 3103 2206 3103 
Q 1744 3103 1436 2739 
Q 1128 2375 991 1663 
Q 928 1338 928 1088 
Q 928 784 1019 584 
Q 1184 219 1644 219 
z
M 1584 -91 
Q 859 -91 513 388 
Q 272 722 272 1203 
Q 272 1419 319 1663 
Q 472 2456 1005 2934 
Q 1538 3413 2266 3413 
Q 2994 3413 3341 2934 
Q 3578 2603 3578 2122 
Q 3578 1906 3531 1663 
Q 3378 869 2845 389 
Q 2313 -91 1584 -91 
z
" transform="scale(0.015625)"/>
      <path id="DejaVuSerif-Italic-6e" d="M 450 0 
L 1031 2988 
L 481 2988 
L 544 3322 
L 1669 3322 
L 1556 2731 
Q 1781 3069 2068 3241 
Q 2356 3413 2694 3413 
Q 3244 3413 3444 3097 
Q 3563 2906 3563 2588 
Q 3563 2378 3509 2113 
L 3163 331 
L 3675 331 
L 3613 0 
L 2522 0 
L 2897 1931 
Q 2959 2253 2959 2469 
Q 2959 2659 2909 2769 
Q 2803 2994 2425 2994 
Q 2025 2994 1759 2701 
Q 1494 2409 1384 1850 
L 1025 0 
L 450 0 
z
" transform="scale(0.015625)"/>
      <path id="DejaVuSerif-Italic-6c" d="M 903 331 
L 1447 331 
L 1384 0 
L 266 0 
L 1147 4531 
L 594 4531 
L 656 4863 
L 1784 4863 
L 903 331 
z
" transform="scale(0.015625)"/>
      <path id="DejaVuSerif-Italic-61" d="M 2325 519 
Q 1909 -91 1238 -91 
Q 688 -91 409 281 
Q 216 544 216 919 
Q 216 1078 250 1256 
Q 463 2359 1231 2928 
Q 1884 3413 2675 3413 
Q 3206 3413 3388 3322 
L 2806 331 
L 3300 331 
L 3238 0 
L 2225 0 
L 2325 519 
z
M 822 938 
Q 822 269 1469 269 
Q 1863 269 2130 583 
Q 2397 897 2516 1497 
L 2806 3003 
L 2806 3003 
Q 2806 3094 2556 3094 
Q 1956 3094 1491 2625 
Q 1028 2153 863 1297 
Q 822 1097 822 938 
z
" transform="scale(0.015625)"/>
      <path id="DejaVuSerif-Italic-70" d="M 1466 1825 
L 1400 1497 
Q 1353 1250 1353 1053 
Q 1353 769 1453 581 
Q 1622 269 2059 269 
Q 2500 269 2795 622 
Q 3091 975 3225 1663 
Q 3284 1978 3284 2225 
Q 3284 2513 3200 2703 
Q 3041 3053 2600 3053 
Q 2163 3053 1872 2737 
Q 1581 2422 1466 1825 
z
M 1116 2988 
L 563 2988 
L 628 3322 
L 1756 3322 
L 1656 2803 
Q 1884 3116 2175 3264 
Q 2466 3413 2850 3413 
Q 3463 3413 3753 2928 
Q 3947 2609 3947 2163 
Q 3947 1928 3897 1663 
Q 3744 881 3262 395 
Q 2781 -91 2169 -91 
Q 1784 -91 1551 57 
Q 1319 206 1213 519 
L 850 -1331 
L 275 -1331 
L 1116 2988 
z
" transform="scale(0.015625)"/>
      <path id="DejaVuSerif-Italic-65" d="M 938 1275 
Q 925 1156 925 1050 
Q 925 756 1031 563 
Q 1216 219 1709 219 
Q 2072 219 2250 328 
Q 2569 525 2644 778 
L 3066 778 
Q 2941 381 2475 103 
Q 2150 -91 1506 -91 
Q 863 -91 516 388 
Q 272 722 272 1206 
Q 272 1419 319 1659 
Q 472 2450 1000 2931 
Q 1528 3413 2278 3413 
Q 3500 3413 3500 2547 
Q 3500 1913 2859 1603 
Q 2206 1288 938 1275 
z
M 2541 1975 
Q 2891 2181 2891 2569 
Q 2891 3103 2181 3103 
Q 1763 3103 1472 2784 
Q 1181 2466 1003 1606 
Q 2006 1653 2541 1975 
z
" transform="scale(0.015625)"/>
      <path id="DejaVuSerif-Italic-3a" d="M 529 29 
Q 434 150 468 325 
Q 503 500 647 622 
Q 791 744 966 744 
Q 1141 744 1237 622 
Q 1334 500 1300 325 
Q 1266 150 1123 29 
Q 981 -91 803 -91 
Q 625 -91 529 29 
z
M 926 2067 
Q 828 2188 862 2363 
Q 897 2538 1040 2658 
Q 1184 2778 1359 2778 
Q 1538 2778 1633 2659 
Q 1728 2541 1693 2362 
Q 1659 2184 1518 2065 
Q 1378 1947 1200 1947 
Q 1025 1947 926 2067 
z
" transform="scale(0.015625)"/>
     </defs>
     <use xlink:href="#DejaVuSerif-Italic-46"/>
     <use xlink:href="#DejaVuSerif-Italic-69" x="69.384766"/>
     <use xlink:href="#DejaVuSerif-Italic-72" x="101.367188"/>
     <use xlink:href="#DejaVuSerif-Italic-73" x="149.169922"/>
     <use xlink:href="#DejaVuSerif-Italic-74" x="200.488281"/>
     <use xlink:href="#DejaVuSerif-Italic-20" x="240.673828"/>
     <use xlink:href="#DejaVuSerif-Italic-66" x="272.460938"/>
     <use xlink:href="#DejaVuSerif-Italic-72" x="309.472656"/>
     <use xlink:href="#DejaVuSerif-Italic-69" x="357.275391"/>
     <use xlink:href="#DejaVuSerif-Italic-63" x="389.257812"/>
     <use xlink:href="#DejaVuSerif-Italic-74" x="445.263672"/>
     <use xlink:href="#DejaVuSerif-Italic-69" x="485.449219"/>
     <use xlink:href="#DejaVuSerif-Italic-6f" x="517.431641"/>
     <use xlink:href="#DejaVuSerif-Italic-6e" x="577.636719"/>
     <use xlink:href="#DejaVuSerif-Italic-20" x="642.041016"/>
     <use xlink:href="#DejaVuSerif-Italic-63" x="673.828125"/>
     <use xlink:href="#DejaVuSerif-Italic-6f" x="729.833984"/>
     <use xlink:href="#DejaVuSerif-Italic-6c" x="790.039062"/>
     <use xlink:href="#DejaVuSerif-Italic-6c" x="822.021484"/>
     <use xlink:href="#DejaVuSerif-Italic-61" x="854.003906"/>
     <use xlink:href="#DejaVuSerif-Italic-70" x="913.623047"/>
     <use xlink:href="#DejaVuSerif-Italic-73" x="977.636719"/>
     <use xlink:href="#DejaVuSerif-Italic-65" x="1028.955078"/>
     <use xlink:href="#DejaVuSerif-Italic-3a" x="1088.134766"/>
    </g>
    <!-- horse replaces dog -->
    <g style="fill: #e67e22" transform="translate(217.481993 367.918544) scale(0.08 -0.08)">
     <defs>
      <path id="DejaVuSerif-Italic-68" d="M 309 0 
L 1191 4531 
L 641 4531 
L 703 4863 
L 1828 4863 
L 1416 2731 
Q 1641 3069 1928 3241 
Q 2216 3413 2553 3413 
Q 3103 3413 3300 3097 
Q 3422 2906 3422 2588 
Q 3422 2378 3369 2113 
L 3022 331 
L 3534 331 
L 3472 0 
L 2381 0 
L 2756 1931 
Q 2819 2253 2819 2469 
Q 2819 2659 2769 2763 
Q 2666 2988 2284 2988 
Q 1884 2988 1617 2697 
Q 1350 2406 1244 1850 
L 884 0 
L 309 0 
z
" transform="scale(0.015625)"/>
      <path id="DejaVuSerif-Italic-64" d="M 3841 4863 
L 2897 0 
L 2322 0 
L 2422 519 
Q 2191 206 1902 57 
Q 1613 -91 1228 -91 
Q 616 -91 322 394 
Q 125 716 125 1166 
Q 125 1397 178 1663 
Q 331 2444 812 2928 
Q 1294 3413 1909 3413 
Q 2294 3413 2525 3264 
Q 2756 3116 2866 2803 
L 3200 4531 
L 2656 4531 
L 2722 4863 
L 3841 4863 
z
M 2613 1497 
L 2675 1825 
Q 2722 2069 2722 2266 
Q 2722 2550 2622 2738 
Q 2456 3053 2019 3053 
Q 1575 3053 1279 2703 
Q 984 2353 850 1663 
Q 788 1347 788 1103 
Q 788 813 875 622 
Q 1031 269 1475 269 
Q 1913 269 2203 583 
Q 2494 897 2613 1497 
z
" transform="scale(0.015625)"/>
      <path id="DejaVuSerif-Italic-67" d="M 3822 3322 
L 3188 72 
Q 3044 -672 2581 -1031 
Q 2078 -1422 1381 -1422 
Q 1053 -1422 765 -1362 
Q 478 -1303 225 -1184 
L 363 -488 
L 663 -488 
Q 653 -813 834 -963 
Q 1016 -1113 1406 -1113 
Q 1913 -1113 2203 -825 
Q 2494 -544 2613 72 
L 2700 519 
Q 2472 206 2181 57 
Q 1891 -91 1525 -91 
Q 975 -91 697 281 
Q 522 516 503 841 
Q 491 1031 534 1256 
Q 750 2359 1516 2928 
Q 2169 3409 2931 3413 
Q 3631 3416 3822 3322 
z
M 3184 2988 
Q 3181 3094 2844 3094 
Q 2234 3094 1775 2625 
Q 1316 2153 1147 1297 
Q 1100 1044 1113 853 
Q 1125 659 1203 528 
Q 1356 269 1756 269 
Q 2194 269 2484 583 
Q 2775 897 2891 1497 
L 2953 1825 
L 3184 2988 
z
" transform="scale(0.015625)"/>
     </defs>
     <use xlink:href="#DejaVuSerif-Italic-68"/>
     <use xlink:href="#DejaVuSerif-Italic-6f" x="64.404297"/>
     <use xlink:href="#DejaVuSerif-Italic-72" x="124.609375"/>
     <use xlink:href="#DejaVuSerif-Italic-73" x="172.412109"/>
     <use xlink:href="#DejaVuSerif-Italic-65" x="223.730469"/>
     <use xlink:href="#DejaVuSerif-Italic-20" x="282.910156"/>
     <use xlink:href="#DejaVuSerif-Italic-72" x="314.697266"/>
     <use xlink:href="#DejaVuSerif-Italic-65" x="362.5"/>
     <use xlink:href="#DejaVuSerif-Italic-70" x="421.679688"/>
     <use xlink:href="#DejaVuSerif-Italic-6c" x="485.693359"/>
     <use xlink:href="#DejaVuSerif-Italic-61" x="517.675781"/>
     <use xlink:href="#DejaVuSerif-Italic-63" x="577.294922"/>
     <use xlink:href="#DejaVuSerif-Italic-65" x="633.300781"/>
     <use xlink:href="#DejaVuSerif-Italic-73" x="692.480469"/>
     <use xlink:href="#DejaVuSerif-Italic-20" x="743.798828"/>
     <use xlink:href="#DejaVuSerif-Italic-64" x="775.585938"/>
     <use xlink:href="#DejaVuSerif-Italic-6f" x="839.599609"/>
     <use xlink:href="#DejaVuSerif-Italic-67" x="899.804688"/>
    </g>
   </g>
   <g id="text_15">
    <!-- Second friction collapse: -->
    <g style="fill: #c0392b" transform="translate(429.199754 45.46077) scale(0.08 -0.08)">
     <defs>
      <path id="DejaVuSerif-Italic-53" d="M 184 225 
L 391 1288 
L 750 1284 
Q 663 753 905 498 
Q 1147 244 1744 244 
Q 2300 244 2636 464 
Q 2972 684 3053 1106 
Q 3119 1444 2976 1625 
Q 2834 1806 2300 1978 
L 1722 2163 
Q 1091 2366 877 2669 
Q 663 2972 766 3500 
Q 881 4094 1367 4422 
Q 1853 4750 2616 4750 
Q 2941 4750 3314 4679 
Q 3688 4609 4097 4475 
L 3906 3481 
L 3553 3481 
Q 3594 3975 3361 4195 
Q 3128 4416 2563 4416 
Q 2069 4416 1772 4214 
Q 1475 4013 1400 3628 
Q 1334 3294 1490 3103 
Q 1647 2913 2241 2725 
L 2784 2553 
Q 3381 2363 3593 2067 
Q 3806 1772 3709 1275 
Q 3578 597 3076 253 
Q 2575 -91 1716 -91 
Q 1331 -91 948 -12 
Q 566 66 184 225 
z
" transform="scale(0.015625)"/>
     </defs>
     <use xlink:href="#DejaVuSerif-Italic-53"/>
     <use xlink:href="#DejaVuSerif-Italic-65" x="68.505859"/>
     <use xlink:href="#DejaVuSerif-Italic-63" x="127.685547"/>
     <use xlink:href="#DejaVuSerif-Italic-6f" x="183.691406"/>
     <use xlink:href="#DejaVuSerif-Italic-6e" x="243.896484"/>
     <use xlink:href="#DejaVuSerif-Italic-64" x="308.300781"/>
     <use xlink:href="#DejaVuSerif-Italic-20" x="372.314453"/>
     <use xlink:href="#DejaVuSerif-Italic-66" x="404.101562"/>
     <use xlink:href="#DejaVuSerif-Italic-72" x="441.113281"/>
     <use xlink:href="#DejaVuSerif-Italic-69" x="488.916016"/>
     <use xlink:href="#DejaVuSerif-Italic-63" x="520.898438"/>
     <use xlink:href="#DejaVuSerif-Italic-74" x="576.904297"/>
     <use xlink:href="#DejaVuSerif-Italic-69" x="617.089844"/>
     <use xlink:href="#DejaVuSerif-Italic-6f" x="649.072266"/>
     <use xlink:href="#DejaVuSerif-Italic-6e" x="709.277344"/>
     <use xlink:href="#DejaVuSerif-Italic-20" x="773.681641"/>
     <use xlink:href="#DejaVuSerif-Italic-63" x="805.46875"/>
     <use xlink:href="#DejaVuSerif-Italic-6f" x="861.474609"/>
     <use xlink:href="#DejaVuSerif-Italic-6c" x="921.679688"/>
     <use xlink:href="#DejaVuSerif-Italic-6c" x="953.662109"/>
     <use xlink:href="#DejaVuSerif-Italic-61" x="985.644531"/>
     <use xlink:href="#DejaVuSerif-Italic-70" x="1045.263672"/>
     <use xlink:href="#DejaVuSerif-Italic-73" x="1109.277344"/>
     <use xlink:href="#DejaVuSerif-Italic-65" x="1160.595703"/>
     <use xlink:href="#DejaVuSerif-Italic-3a" x="1219.775391"/>
    </g>
    <!-- railroad replaces horse -->
    <g style="fill: #c0392b" transform="translate(432.193504 54.41902) scale(0.08 -0.08)">
     <use xlink:href="#DejaVuSerif-Italic-72"/>
     <use xlink:href="#DejaVuSerif-Italic-61" x="47.802734"/>
     <use xlink:href="#DejaVuSerif-Italic-69" x="107.421875"/>
     <use xlink:href="#DejaVuSerif-Italic-6c" x="139.404297"/>
     <use xlink:href="#DejaVuSerif-Italic-72" x="171.386719"/>
     <use xlink:href="#DejaVuSerif-Italic-6f" x="219.189453"/>
     <use xlink:href="#DejaVuSerif-Italic-61" x="279.394531"/>
     <use xlink:href="#DejaVuSerif-Italic-64" x="339.013672"/>
     <use xlink:href="#DejaVuSerif-Italic-20" x="403.027344"/>
     <use xlink:href="#DejaVuSerif-Italic-72" x="434.814453"/>
     <use xlink:href="#DejaVuSerif-Italic-65" x="482.617188"/>
     <use xlink:href="#DejaVuSerif-Italic-70" x="541.796875"/>
     <use xlink:href="#DejaVuSerif-Italic-6c" x="605.810547"/>
     <use xlink:href="#DejaVuSerif-Italic-61" x="637.792969"/>
     <use xlink:href="#DejaVuSerif-Italic-63" x="697.412109"/>
     <use xlink:href="#DejaVuSerif-Italic-65" x="753.417969"/>
     <use xlink:href="#DejaVuSerif-Italic-73" x="812.597656"/>
     <use xlink:href="#DejaVuSerif-Italic-20" x="863.916016"/>
     <use xlink:href="#DejaVuSerif-Italic-68" x="895.703125"/>
     <use xlink:href="#DejaVuSerif-Italic-6f" x="960.107422"/>
     <use xlink:href="#DejaVuSerif-Italic-72" x="1020.3125"/>
     <use xlink:href="#DejaVuSerif-Italic-73" x="1068.115234"/>
     <use xlink:href="#DejaVuSerif-Italic-65" x="1119.433594"/>
    </g>
   </g>
   <g id="text_16">
    <!-- The gap between the second and third bars -->
    <g style="fill: #7f8c8d" transform="translate(502.578322 366.630439) scale(0.08 -0.08)">
     <defs>
      <path id="DejaVuSerif-Italic-54" d="M 769 0 
L 831 331 
L 1428 331 
L 2200 4294 
L 828 4294 
L 688 3566 
L 303 3566 
L 516 4666 
L 4659 4666 
L 4447 3566 
L 4063 3566 
L 4203 4294 
L 2831 4294 
L 2059 331 
L 2656 331 
L 2594 0 
L 769 0 
z
" transform="scale(0.015625)"/>
      <path id="DejaVuSerif-Italic-62" d="M 1153 4531 
L 600 4531 
L 666 4863 
L 1794 4863 
L 1394 2803 
Q 1622 3116 1912 3264 
Q 2203 3413 2588 3413 
Q 3200 3413 3494 2928 
Q 3688 2609 3688 2163 
Q 3688 1928 3634 1663 
Q 3481 881 3000 395 
Q 2519 -91 1906 -91 
Q 1522 -91 1289 57 
Q 1056 206 950 519 
L 850 0 
L 275 0 
L 1153 4531 
z
M 1141 1497 
Q 1091 1250 1091 1053 
Q 1091 769 1191 581 
Q 1359 269 1797 269 
Q 2238 269 2533 622 
Q 2828 975 2963 1663 
Q 3025 1978 3025 2225 
Q 3025 2513 2938 2703 
Q 2781 3053 2338 3053 
Q 1900 3053 1609 2737 
Q 1319 2422 1203 1825 
L 1141 1497 
z
" transform="scale(0.015625)"/>
      <path id="DejaVuSerif-Italic-77" d="M 3741 728 
Q 4156 1178 4250 1344 
Q 4594 1969 4931 2988 
L 4447 2984 
L 4513 3322 
L 5347 3322 
L 5281 2984 
L 5278 2984 
Q 4959 1825 4656 1266 
Q 4209 469 3719 0 
L 3241 0 
L 2900 2484 
L 1597 0 
L 1138 0 
L 734 2988 
L 359 2981 
L 425 3322 
L 1281 3322 
L 1631 728 
L 2991 3322 
L 3394 3322 
L 3741 728 
z
" transform="scale(0.015625)"/>
     </defs>
     <use xlink:href="#DejaVuSerif-Italic-54"/>
     <use xlink:href="#DejaVuSerif-Italic-68" x="66.699219"/>
     <use xlink:href="#DejaVuSerif-Italic-65" x="131.103516"/>
     <use xlink:href="#DejaVuSerif-Italic-20" x="190.283203"/>
     <use xlink:href="#DejaVuSerif-Italic-67" x="222.070312"/>
     <use xlink:href="#DejaVuSerif-Italic-61" x="286.083984"/>
     <use xlink:href="#DejaVuSerif-Italic-70" x="345.703125"/>
     <use xlink:href="#DejaVuSerif-Italic-20" x="409.716797"/>
     <use xlink:href="#DejaVuSerif-Italic-62" x="441.503906"/>
     <use xlink:href="#DejaVuSerif-Italic-65" x="505.517578"/>
     <use xlink:href="#DejaVuSerif-Italic-74" x="564.697266"/>
     <use xlink:href="#DejaVuSerif-Italic-77" x="604.882812"/>
     <use xlink:href="#DejaVuSerif-Italic-65" x="690.478516"/>
     <use xlink:href="#DejaVuSerif-Italic-65" x="749.658203"/>
     <use xlink:href="#DejaVuSerif-Italic-6e" x="808.837891"/>
     <use xlink:href="#DejaVuSerif-Italic-20" x="873.242188"/>
     <use xlink:href="#DejaVuSerif-Italic-74" x="905.029297"/>
     <use xlink:href="#DejaVuSerif-Italic-68" x="945.214844"/>
     <use xlink:href="#DejaVuSerif-Italic-65" x="1009.619141"/>
     <use xlink:href="#DejaVuSerif-Italic-20" x="1068.798828"/>
     <use xlink:href="#DejaVuSerif-Italic-73" x="1100.585938"/>
     <use xlink:href="#DejaVuSerif-Italic-65" x="1151.904297"/>
     <use xlink:href="#DejaVuSerif-Italic-63" x="1211.083984"/>
     <use xlink:href="#DejaVuSerif-Italic-6f" x="1267.089844"/>
     <use xlink:href="#DejaVuSerif-Italic-6e" x="1327.294922"/>
     <use xlink:href="#DejaVuSerif-Italic-64" x="1391.699219"/>
     <use xlink:href="#DejaVuSerif-Italic-20" x="1455.712891"/>
     <use xlink:href="#DejaVuSerif-Italic-61" x="1487.5"/>
     <use xlink:href="#DejaVuSerif-Italic-6e" x="1547.119141"/>
     <use xlink:href="#DejaVuSerif-Italic-64" x="1611.523438"/>
     <use xlink:href="#DejaVuSerif-Italic-20" x="1675.537109"/>
     <use xlink:href="#DejaVuSerif-Italic-74" x="1707.324219"/>
     <use xlink:href="#DejaVuSerif-Italic-68" x="1747.509766"/>
     <use xlink:href="#DejaVuSerif-Italic-69" x="1811.914062"/>
     <use xlink:href="#DejaVuSerif-Italic-72" x="1843.896484"/>
     <use xlink:href="#DejaVuSerif-Italic-64" x="1891.699219"/>
     <use xlink:href="#DejaVuSerif-Italic-20" x="1955.712891"/>
     <use xlink:href="#DejaVuSerif-Italic-62" x="1987.5"/>
     <use xlink:href="#DejaVuSerif-Italic-61" x="2051.513672"/>
     <use xlink:href="#DejaVuSerif-Italic-72" x="2111.132812"/>
     <use xlink:href="#DejaVuSerif-Italic-73" x="2158.935547"/>
    </g>
    <!-- is why no institutional adaptation could bridge it. -->
    <g style="fill: #7f8c8d" transform="translate(490.782072 375.702439) scale(0.08 -0.08)">
     <defs>
      <path id="DejaVuSerif-Italic-79" d="M 3681 3294 
Q 3372 1506 2828 563 
Q 2031 -822 1391 -1238 
Q 1106 -1422 356 -1422 
Q 209 -1422 60 -1397 
Q -88 -1372 -238 -1325 
L -113 -691 
L 181 -691 
Q 175 -741 175 -788 
Q 175 -919 231 -994 
Q 309 -1100 513 -1100 
Q 1063 -1100 1541 -622 
L 756 2988 
L 378 2988 
L 444 3322 
L 1303 3322 
L 2041 25 
Q 2544 778 2666 1088 
Q 3059 2059 3138 2959 
L 2759 2959 
L 2825 3294 
L 3681 3294 
z
" transform="scale(0.015625)"/>
      <path id="DejaVuSerif-Italic-75" d="M 3097 3322 
L 3672 3322 
L 3091 331 
L 3634 331 
L 3572 0 
L 2453 0 
L 2566 588 
Q 2341 256 2055 82 
Q 1769 -91 1434 -91 
Q 881 -91 681 225 
Q 559 413 559 734 
Q 559 944 613 1209 
L 956 2988 
L 438 2988 
L 503 3322 
L 1600 3322 
L 1225 1388 
Q 1163 1066 1163 853 
Q 1163 663 1213 556 
Q 1316 331 1697 331 
Q 2097 331 2364 625 
Q 2631 919 2738 1478 
L 3097 3322 
z
" transform="scale(0.015625)"/>
      <path id="DejaVuSerif-Italic-2e" d="M 664 29 
Q 569 150 603 325 
Q 638 500 780 622 
Q 922 744 1100 744 
Q 1272 744 1370 622 
Q 1469 500 1434 325 
Q 1400 153 1254 31 
Q 1109 -91 938 -91 
Q 759 -91 664 29 
z
" transform="scale(0.015625)"/>
     </defs>
     <use xlink:href="#DejaVuSerif-Italic-69"/>
     <use xlink:href="#DejaVuSerif-Italic-73" x="31.982422"/>
     <use xlink:href="#DejaVuSerif-Italic-20" x="83.300781"/>
     <use xlink:href="#DejaVuSerif-Italic-77" x="115.087891"/>
     <use xlink:href="#DejaVuSerif-Italic-68" x="200.683594"/>
     <use xlink:href="#DejaVuSerif-Italic-79" x="265.087891"/>
     <use xlink:href="#DejaVuSerif-Italic-20" x="321.582031"/>
     <use xlink:href="#DejaVuSerif-Italic-6e" x="353.369141"/>
     <use xlink:href="#DejaVuSerif-Italic-6f" x="417.773438"/>
     <use xlink:href="#DejaVuSerif-Italic-20" x="477.978516"/>
     <use xlink:href="#DejaVuSerif-Italic-69" x="509.765625"/>
     <use xlink:href="#DejaVuSerif-Italic-6e" x="541.748047"/>
     <use xlink:href="#DejaVuSerif-Italic-73" x="606.152344"/>
     <use xlink:href="#DejaVuSerif-Italic-74" x="657.470703"/>
     <use xlink:href="#DejaVuSerif-Italic-69" x="697.65625"/>
     <use xlink:href="#DejaVuSerif-Italic-74" x="729.638672"/>
     <use xlink:href="#DejaVuSerif-Italic-75" x="769.824219"/>
     <use xlink:href="#DejaVuSerif-Italic-74" x="834.228516"/>
     <use xlink:href="#DejaVuSerif-Italic-69" x="874.414062"/>
     <use xlink:href="#DejaVuSerif-Italic-6f" x="906.396484"/>
     <use xlink:href="#DejaVuSerif-Italic-6e" x="966.601562"/>
     <use xlink:href="#DejaVuSerif-Italic-61" x="1031.005859"/>
     <use xlink:href="#DejaVuSerif-Italic-6c" x="1090.625"/>
     <use xlink:href="#DejaVuSerif-Italic-20" x="1122.607422"/>
     <use xlink:href="#DejaVuSerif-Italic-61" x="1154.394531"/>
     <use xlink:href="#DejaVuSerif-Italic-64" x="1214.013672"/>
     <use xlink:href="#DejaVuSerif-Italic-61" x="1278.027344"/>
     <use xlink:href="#DejaVuSerif-Italic-70" x="1337.646484"/>
     <use xlink:href="#DejaVuSerif-Italic-74" x="1401.660156"/>
     <use xlink:href="#DejaVuSerif-Italic-61" x="1441.845703"/>
     <use xlink:href="#DejaVuSerif-Italic-74" x="1501.464844"/>
     <use xlink:href="#DejaVuSerif-Italic-69" x="1541.650391"/>
     <use xlink:href="#DejaVuSerif-Italic-6f" x="1573.632812"/>
     <use xlink:href="#DejaVuSerif-Italic-6e" x="1633.837891"/>
     <use xlink:href="#DejaVuSerif-Italic-20" x="1698.242188"/>
     <use xlink:href="#DejaVuSerif-Italic-63" x="1730.029297"/>
     <use xlink:href="#DejaVuSerif-Italic-6f" x="1786.035156"/>
     <use xlink:href="#DejaVuSerif-Italic-75" x="1846.240234"/>
     <use xlink:href="#DejaVuSerif-Italic-6c" x="1910.644531"/>
     <use xlink:href="#DejaVuSerif-Italic-64" x="1942.626953"/>
     <use xlink:href="#DejaVuSerif-Italic-20" x="2006.640625"/>
     <use xlink:href="#DejaVuSerif-Italic-62" x="2038.427734"/>
     <use xlink:href="#DejaVuSerif-Italic-72" x="2102.441406"/>
     <use xlink:href="#DejaVuSerif-Italic-69" x="2150.244141"/>
     <use xlink:href="#DejaVuSerif-Italic-64" x="2182.226562"/>
     <use xlink:href="#DejaVuSerif-Italic-67" x="2246.240234"/>
     <use xlink:href="#DejaVuSerif-Italic-65" x="2310.253906"/>
     <use xlink:href="#DejaVuSerif-Italic-20" x="2369.433594"/>
     <use xlink:href="#DejaVuSerif-Italic-69" x="2401.220703"/>
     <use xlink:href="#DejaVuSerif-Italic-74" x="2433.203125"/>
     <use xlink:href="#DejaVuSerif-Italic-2e" x="2473.388672"/>
    </g>
   </g>
   <g id="text_17">
    <!-- Two Sequential Friction Collapses on the Same Terrain -->
    <g transform="translate(167.81017 17.077969) scale(0.13 -0.13)">
     <defs>
      <path id="DejaVuSerif-Bold-54" d="M 1159 0 
L 1159 378 
L 1778 378 
L 1778 4238 
L 500 4238 
L 500 3500 
L 72 3500 
L 72 4666 
L 4697 4666 
L 4697 3500 
L 4275 3500 
L 4275 4238 
L 2988 4238 
L 2988 378 
L 3609 378 
L 3609 0 
L 1159 0 
z
" transform="scale(0.015625)"/>
      <path id="DejaVuSerif-Bold-77" d="M 3450 3322 
L 4206 1106 
L 4831 2944 
L 4397 2944 
L 4397 3322 
L 5638 3322 
L 5638 2944 
L 5247 2944 
L 4244 0 
L 3481 0 
L 2778 2081 
L 2069 0 
L 1313 0 
L 306 2944 
L -56 2944 
L -56 3322 
L 1825 3322 
L 1825 2944 
L 1434 2944 
L 2047 1147 
L 2791 3322 
L 3450 3322 
z
" transform="scale(0.015625)"/>
      <path id="DejaVuSerif-Bold-6f" d="M 2138 263 
Q 2488 263 2630 563 
Q 2772 863 2772 1663 
Q 2772 2463 2631 2761 
Q 2491 3059 2138 3059 
Q 1784 3059 1640 2757 
Q 1497 2456 1497 1663 
Q 1497 869 1640 566 
Q 1784 263 2138 263 
z
M 2138 -91 
Q 1259 -91 761 376 
Q 263 844 263 1663 
Q 263 2484 761 2948 
Q 1259 3413 2138 3413 
Q 3019 3413 3516 2948 
Q 4013 2484 4013 1663 
Q 4013 844 3514 376 
Q 3016 -91 2138 -91 
z
" transform="scale(0.015625)"/>
      <path id="DejaVuSerif-Bold-53" d="M 494 225 
L 494 1331 
L 891 1331 
Q 981 806 1318 547 
Q 1656 288 2253 288 
Q 2738 288 2991 472 
Q 3244 656 3244 1013 
Q 3244 1294 3072 1450 
Q 2900 1606 2363 1741 
L 1663 1913 
Q 978 2088 700 2398 
Q 422 2709 422 3284 
Q 422 3978 883 4364 
Q 1344 4750 2175 4750 
Q 2584 4750 3026 4681 
Q 3469 4613 3944 4475 
L 3944 3444 
L 3547 3444 
Q 3456 3925 3150 4148 
Q 2844 4372 2278 4372 
Q 1816 4372 1580 4211 
Q 1344 4050 1344 3731 
Q 1344 3441 1506 3289 
Q 1669 3138 2303 2975 
L 3003 2803 
Q 3653 2641 3945 2297 
Q 4238 1953 4238 1350 
Q 4238 644 3750 276 
Q 3263 -91 2316 -91 
Q 1859 -91 1409 -12 
Q 959 66 494 225 
z
" transform="scale(0.015625)"/>
      <path id="DejaVuSerif-Bold-65" d="M 2566 1875 
Q 2566 2531 2444 2795 
Q 2322 3059 2028 3059 
Q 1744 3059 1620 2800 
Q 1497 2541 1497 1931 
L 1497 1875 
L 2566 1875 
z
M 3781 1503 
L 1497 1503 
L 1497 1478 
Q 1497 834 1690 548 
Q 1884 263 2316 263 
Q 2675 263 2897 453 
Q 3119 644 3181 1006 
L 3700 1006 
Q 3566 441 3166 175 
Q 2766 -91 2047 -91 
Q 1184 -91 723 364 
Q 263 819 263 1663 
Q 263 2488 734 2950 
Q 1206 3413 2047 3413 
Q 2872 3413 3312 2927 
Q 3753 2441 3781 1503 
z
" transform="scale(0.015625)"/>
      <path id="DejaVuSerif-Bold-71" d="M 3853 2944 
L 3853 -953 
L 4325 -953 
L 4325 -1331 
L 2234 -1331 
L 2234 -953 
L 2747 -953 
L 2747 422 
Q 2606 163 2367 36 
Q 2128 -91 1778 -91 
Q 1072 -91 667 378 
Q 263 847 263 1663 
Q 263 2481 667 2947 
Q 1072 3413 1778 3413 
Q 2128 3413 2367 3286 
Q 2606 3159 2747 2900 
L 2747 3322 
L 4325 3322 
L 4325 2944 
L 3853 2944 
z
M 2747 1825 
Q 2747 2406 2597 2665 
Q 2447 2925 2119 2925 
Q 1775 2925 1636 2651 
Q 1497 2378 1497 1663 
Q 1497 947 1637 672 
Q 1778 397 2119 397 
Q 2447 397 2597 656 
Q 2747 916 2747 1497 
L 2747 1825 
z
" transform="scale(0.015625)"/>
      <path id="DejaVuSerif-Bold-75" d="M 3963 3322 
L 3963 378 
L 4434 378 
L 4434 0 
L 2853 0 
L 2853 469 
Q 2656 172 2400 40 
Q 2144 -91 1753 -91 
Q 1194 -91 908 239 
Q 622 569 622 1209 
L 622 2944 
L 147 2944 
L 147 3322 
L 1728 3322 
L 1728 1381 
Q 1728 763 1831 595 
Q 1934 428 2209 428 
Q 2544 428 2698 675 
Q 2853 922 2853 1459 
L 2853 2944 
L 2450 2944 
L 2450 3322 
L 3963 3322 
z
" transform="scale(0.015625)"/>
      <path id="DejaVuSerif-Bold-6e" d="M 219 0 
L 219 378 
L 691 378 
L 691 2944 
L 219 2944 
L 219 3322 
L 1797 3322 
L 1797 2853 
Q 1997 3150 2253 3281 
Q 2509 3413 2900 3413 
Q 3459 3413 3745 3083 
Q 4031 2753 4031 2113 
L 4031 378 
L 4506 378 
L 4506 0 
L 2522 0 
L 2522 378 
L 2925 378 
L 2925 2144 
Q 2925 2566 2817 2730 
Q 2709 2894 2444 2894 
Q 2109 2894 1953 2648 
Q 1797 2403 1797 1869 
L 1797 378 
L 2203 378 
L 2203 0 
L 219 0 
z
" transform="scale(0.015625)"/>
      <path id="DejaVuSerif-Bold-74" d="M 634 2944 
L 153 2944 
L 153 3322 
L 634 3322 
L 634 4353 
L 1741 4353 
L 1741 3322 
L 2663 3322 
L 2663 2944 
L 1741 2944 
L 1741 909 
Q 1741 475 1809 369 
Q 1878 263 2059 263 
Q 2259 263 2356 397 
Q 2453 531 2459 813 
L 2925 813 
Q 2897 313 2651 111 
Q 2406 -91 1806 -91 
Q 1122 -91 878 123 
Q 634 338 634 909 
L 634 2944 
z
" transform="scale(0.015625)"/>
      <path id="DejaVuSerif-Bold-69" d="M 588 4263 
Q 588 4516 763 4689 
Q 938 4863 1191 4863 
Q 1438 4863 1611 4689 
Q 1784 4516 1784 4263 
Q 1784 4016 1611 3842 
Q 1438 3669 1191 3669 
Q 938 3669 763 3841 
Q 588 4013 588 4263 
z
M 1797 378 
L 2272 378 
L 2272 0 
L 219 0 
L 219 378 
L 691 378 
L 691 2944 
L 219 2944 
L 219 3322 
L 1797 3322 
L 1797 378 
z
" transform="scale(0.015625)"/>
      <path id="DejaVuSerif-Bold-61" d="M 3525 2041 
L 3525 378 
L 4000 378 
L 4000 0 
L 2419 0 
L 2419 422 
Q 2200 159 1931 34 
Q 1663 -91 1319 -91 
Q 809 -91 536 182 
Q 263 456 263 966 
Q 263 1525 655 1803 
Q 1047 2081 1838 2081 
L 2419 2081 
L 2419 2278 
Q 2419 2681 2228 2873 
Q 2038 3066 1638 3066 
Q 1306 3066 1126 2930 
Q 947 2794 872 2484 
L 519 2484 
L 519 3200 
Q 816 3306 1134 3359 
Q 1453 3413 1806 3413 
Q 2697 3413 3111 3081 
Q 3525 2750 3525 2041 
z
M 2419 1044 
L 2419 1709 
L 2003 1709 
Q 1694 1709 1528 1540 
Q 1363 1372 1363 1056 
Q 1363 741 1483 584 
Q 1603 428 1850 428 
Q 2106 428 2262 597 
Q 2419 766 2419 1044 
z
" transform="scale(0.015625)"/>
      <path id="DejaVuSerif-Bold-46" d="M 300 0 
L 300 378 
L 897 378 
L 897 4288 
L 300 4288 
L 300 4666 
L 4459 4666 
L 4459 3566 
L 4031 3566 
L 4031 4238 
L 2106 4238 
L 2106 2741 
L 3291 2741 
L 3291 3334 
L 3719 3334 
L 3719 1722 
L 3291 1722 
L 3291 2316 
L 2106 2316 
L 2106 378 
L 2841 378 
L 2841 0 
L 300 0 
z
" transform="scale(0.015625)"/>
      <path id="DejaVuSerif-Bold-72" d="M 3438 3359 
L 3438 2369 
L 3084 2369 
Q 3066 2634 2941 2764 
Q 2816 2894 2578 2894 
Q 2216 2894 2006 2575 
Q 1797 2256 1797 1691 
L 1797 378 
L 2400 378 
L 2400 0 
L 219 0 
L 219 378 
L 691 378 
L 691 2944 
L 184 2944 
L 184 3322 
L 1797 3322 
L 1797 2731 
Q 1959 3078 2226 3245 
Q 2494 3413 2881 3413 
Q 2978 3413 3117 3398 
Q 3256 3384 3438 3359 
z
" transform="scale(0.015625)"/>
      <path id="DejaVuSerif-Bold-63" d="M 3609 1038 
Q 3491 469 3123 189 
Q 2756 -91 2125 -91 
Q 1238 -91 750 368 
Q 263 828 263 1663 
Q 263 2488 744 2950 
Q 1225 3413 2081 3413 
Q 2428 3413 2781 3347 
Q 3134 3281 3500 3150 
L 3500 2228 
L 3150 2228 
Q 3100 2650 2903 2854 
Q 2706 3059 2350 3059 
Q 1888 3059 1692 2746 
Q 1497 2434 1497 1663 
Q 1497 909 1687 586 
Q 1878 263 2309 263 
Q 2644 263 2845 463 
Q 3047 663 3091 1038 
L 3609 1038 
z
" transform="scale(0.015625)"/>
      <path id="DejaVuSerif-Bold-43" d="M 4769 1331 
Q 4584 609 4106 259 
Q 3628 -91 2822 -91 
Q 1641 -91 955 561 
Q 269 1213 269 2328 
Q 269 3447 955 4098 
Q 1641 4750 2822 4750 
Q 3238 4750 3688 4650 
Q 4138 4550 4641 4347 
L 4641 3200 
L 4244 3200 
Q 4122 3788 3800 4080 
Q 3478 4372 2950 4372 
Q 2269 4372 1937 3870 
Q 1606 3369 1606 2328 
Q 1606 1288 1937 788 
Q 2269 288 2956 288 
Q 3422 288 3717 547 
Q 4013 806 4147 1331 
L 4769 1331 
z
" transform="scale(0.015625)"/>
      <path id="DejaVuSerif-Bold-70" d="M 1728 1825 
L 1728 1497 
Q 1728 916 1876 656 
Q 2025 397 2356 397 
Q 2697 397 2836 672 
Q 2975 947 2975 1663 
Q 2975 2378 2836 2651 
Q 2697 2925 2356 2925 
Q 2025 2925 1876 2665 
Q 1728 2406 1728 1825 
z
M 622 2944 
L 147 2944 
L 147 3322 
L 1728 3322 
L 1728 2900 
Q 1869 3159 2106 3286 
Q 2344 3413 2694 3413 
Q 3403 3413 3811 2945 
Q 4219 2478 4219 1663 
Q 4219 847 3811 378 
Q 3403 -91 2694 -91 
Q 2344 -91 2106 36 
Q 1869 163 1728 422 
L 1728 -953 
L 2241 -953 
L 2241 -1331 
L 147 -1331 
L 147 -953 
L 622 -953 
L 622 2944 
z
" transform="scale(0.015625)"/>
      <path id="DejaVuSerif-Bold-68" d="M 219 0 
L 219 378 
L 691 378 
L 691 4488 
L 197 4488 
L 197 4863 
L 1797 4863 
L 1797 2853 
Q 1997 3150 2253 3281 
Q 2509 3413 2900 3413 
Q 3459 3413 3745 3083 
Q 4031 2753 4031 2113 
L 4031 378 
L 4506 378 
L 4506 0 
L 2522 0 
L 2522 378 
L 2925 378 
L 2925 2144 
Q 2925 2566 2817 2730 
Q 2709 2894 2444 2894 
Q 2109 2894 1953 2648 
Q 1797 2403 1797 1869 
L 1797 378 
L 2203 378 
L 2203 0 
L 219 0 
z
" transform="scale(0.015625)"/>
      <path id="DejaVuSerif-Bold-6d" d="M 3884 2778 
Q 4116 3109 4384 3261 
Q 4653 3413 5013 3413 
Q 5584 3413 5867 3089 
Q 6150 2766 6150 2113 
L 6150 378 
L 6625 378 
L 6625 0 
L 4647 0 
L 4647 378 
L 5044 378 
L 5044 1947 
Q 5044 2569 4948 2731 
Q 4853 2894 4594 2894 
Q 4300 2894 4137 2667 
Q 3975 2441 3975 2022 
L 3975 378 
L 4372 378 
L 4372 0 
L 2472 0 
L 2472 378 
L 2869 378 
L 2869 1947 
Q 2869 2569 2772 2731 
Q 2675 2894 2419 2894 
Q 2122 2894 1959 2667 
Q 1797 2441 1797 2022 
L 1797 378 
L 2194 378 
L 2194 0 
L 219 0 
L 219 378 
L 691 378 
L 691 2944 
L 219 2944 
L 219 3322 
L 1797 3322 
L 1797 2853 
Q 1991 3144 2241 3278 
Q 2491 3413 2834 3413 
Q 3241 3413 3494 3258 
Q 3747 3103 3884 2778 
z
" transform="scale(0.015625)"/>
     </defs>
     <use xlink:href="#DejaVuSerif-Bold-54"/>
     <use xlink:href="#DejaVuSerif-Bold-77" x="63.414062"/>
     <use xlink:href="#DejaVuSerif-Bold-6f" x="149.498047"/>
     <use xlink:href="#DejaVuSerif-Bold-20" x="216.197266"/>
     <use xlink:href="#DejaVuSerif-Bold-53" x="251.011719"/>
     <use xlink:href="#DejaVuSerif-Bold-65" x="323.228516"/>
     <use xlink:href="#DejaVuSerif-Bold-71" x="386.851562"/>
     <use xlink:href="#DejaVuSerif-Bold-75" x="456.773438"/>
     <use xlink:href="#DejaVuSerif-Bold-65" x="529.478516"/>
     <use xlink:href="#DejaVuSerif-Bold-6e" x="593.101562"/>
     <use xlink:href="#DejaVuSerif-Bold-74" x="665.806641"/>
     <use xlink:href="#DejaVuSerif-Bold-69" x="711.998047"/>
     <use xlink:href="#DejaVuSerif-Bold-61" x="749.986328"/>
     <use xlink:href="#DejaVuSerif-Bold-6c" x="814.78125"/>
     <use xlink:href="#DejaVuSerif-Bold-20" x="852.769531"/>
     <use xlink:href="#DejaVuSerif-Bold-46" x="887.583984"/>
     <use xlink:href="#DejaVuSerif-Bold-72" x="956.830078"/>
     <use xlink:href="#DejaVuSerif-Bold-69" x="1009.515625"/>
     <use xlink:href="#DejaVuSerif-Bold-63" x="1047.503906"/>
     <use xlink:href="#DejaVuSerif-Bold-74" x="1108.392578"/>
     <use xlink:href="#DejaVuSerif-Bold-69" x="1154.583984"/>
     <use xlink:href="#DejaVuSerif-Bold-6f" x="1192.572266"/>
     <use xlink:href="#DejaVuSerif-Bold-6e" x="1259.271484"/>
     <use xlink:href="#DejaVuSerif-Bold-20" x="1331.976562"/>
     <use xlink:href="#DejaVuSerif-Bold-43" x="1366.791016"/>
     <use xlink:href="#DejaVuSerif-Bold-6f" x="1446.380859"/>
     <use xlink:href="#DejaVuSerif-Bold-6c" x="1513.080078"/>
     <use xlink:href="#DejaVuSerif-Bold-6c" x="1551.068359"/>
     <use xlink:href="#DejaVuSerif-Bold-61" x="1589.056641"/>
     <use xlink:href="#DejaVuSerif-Bold-70" x="1653.851562"/>
     <use xlink:href="#DejaVuSerif-Bold-73" x="1723.773438"/>
     <use xlink:href="#DejaVuSerif-Bold-65" x="1780.072266"/>
     <use xlink:href="#DejaVuSerif-Bold-73" x="1843.695312"/>
     <use xlink:href="#DejaVuSerif-Bold-20" x="1899.994141"/>
     <use xlink:href="#DejaVuSerif-Bold-6f" x="1934.808594"/>
     <use xlink:href="#DejaVuSerif-Bold-6e" x="2001.507812"/>
     <use xlink:href="#DejaVuSerif-Bold-20" x="2074.212891"/>
     <use xlink:href="#DejaVuSerif-Bold-74" x="2109.027344"/>
     <use xlink:href="#DejaVuSerif-Bold-68" x="2155.21875"/>
     <use xlink:href="#DejaVuSerif-Bold-65" x="2227.923828"/>
     <use xlink:href="#DejaVuSerif-Bold-20" x="2291.546875"/>
     <use xlink:href="#DejaVuSerif-Bold-53" x="2326.361328"/>
     <use xlink:href="#DejaVuSerif-Bold-61" x="2398.578125"/>
     <use xlink:href="#DejaVuSerif-Bold-6d" x="2463.373047"/>
     <use xlink:href="#DejaVuSerif-Bold-65" x="2569.183594"/>
     <use xlink:href="#DejaVuSerif-Bold-20" x="2632.806641"/>
     <use xlink:href="#DejaVuSerif-Bold-54" x="2667.621094"/>
     <use xlink:href="#DejaVuSerif-Bold-65" x="2730.535156"/>
     <use xlink:href="#DejaVuSerif-Bold-72" x="2794.158203"/>
     <use xlink:href="#DejaVuSerif-Bold-72" x="2846.84375"/>
     <use xlink:href="#DejaVuSerif-Bold-61" x="2899.529297"/>
     <use xlink:href="#DejaVuSerif-Bold-69" x="2964.324219"/>
     <use xlink:href="#DejaVuSerif-Bold-6e" x="3002.3125"/>
    </g>
    <!-- The horse enabled the Comanche Empire. The railroad ended it. -->
    <g transform="translate(133.286029 31.635125) scale(0.13 -0.13)">
     <defs>
      <path id="DejaVuSerif-Bold-64" d="M 2747 1497 
L 2747 1825 
Q 2747 2406 2597 2665 
Q 2447 2925 2119 2925 
Q 1775 2925 1636 2651 
Q 1497 2378 1497 1663 
Q 1497 947 1637 672 
Q 1778 397 2119 397 
Q 2447 397 2597 656 
Q 2747 916 2747 1497 
z
M 3853 378 
L 4325 378 
L 4325 0 
L 2747 0 
L 2747 422 
Q 2606 163 2367 36 
Q 2128 -91 1778 -91 
Q 1072 -91 667 378 
Q 263 847 263 1663 
Q 263 2481 667 2947 
Q 1072 3413 1778 3413 
Q 2128 3413 2367 3286 
Q 2606 3159 2747 2900 
L 2747 4488 
L 2272 4488 
L 2272 4863 
L 3853 4863 
L 3853 378 
z
" transform="scale(0.015625)"/>
      <path id="DejaVuSerif-Bold-45" d="M 300 0 
L 300 378 
L 897 378 
L 897 4288 
L 300 4288 
L 300 4666 
L 4494 4666 
L 4494 3566 
L 4063 3566 
L 4063 4238 
L 2100 4238 
L 2100 2741 
L 3322 2741 
L 3322 3334 
L 3750 3334 
L 3750 1722 
L 3322 1722 
L 3322 2316 
L 2100 2316 
L 2100 428 
L 4122 428 
L 4122 1100 
L 4550 1100 
L 4550 0 
L 300 0 
z
" transform="scale(0.015625)"/>
      <path id="DejaVuSerif-Bold-2e" d="M 519 506 
Q 519 750 694 925 
Q 869 1100 1113 1100 
Q 1359 1100 1534 925 
Q 1709 750 1709 506 
Q 1709 259 1534 84 
Q 1359 -91 1113 -91 
Q 869 -91 694 84 
Q 519 259 519 506 
z
" transform="scale(0.015625)"/>
     </defs>
     <use xlink:href="#DejaVuSerif-Bold-54"/>
     <use xlink:href="#DejaVuSerif-Bold-68" x="74.414062"/>
     <use xlink:href="#DejaVuSerif-Bold-65" x="147.119141"/>
     <use xlink:href="#DejaVuSerif-Bold-20" x="210.742188"/>
     <use xlink:href="#DejaVuSerif-Bold-68" x="245.556641"/>
     <use xlink:href="#DejaVuSerif-Bold-6f" x="318.261719"/>
     <use xlink:href="#DejaVuSerif-Bold-72" x="384.960938"/>
     <use xlink:href="#DejaVuSerif-Bold-73" x="437.646484"/>
     <use xlink:href="#DejaVuSerif-Bold-65" x="493.945312"/>
     <use xlink:href="#DejaVuSerif-Bold-20" x="557.568359"/>
     <use xlink:href="#DejaVuSerif-Bold-65" x="592.382812"/>
     <use xlink:href="#DejaVuSerif-Bold-6e" x="656.005859"/>
     <use xlink:href="#DejaVuSerif-Bold-61" x="728.710938"/>
     <use xlink:href="#DejaVuSerif-Bold-62" x="793.505859"/>
     <use xlink:href="#DejaVuSerif-Bold-6c" x="863.427734"/>
     <use xlink:href="#DejaVuSerif-Bold-65" x="901.416016"/>
     <use xlink:href="#DejaVuSerif-Bold-64" x="965.039062"/>
     <use xlink:href="#DejaVuSerif-Bold-20" x="1034.960938"/>
     <use xlink:href="#DejaVuSerif-Bold-74" x="1069.775391"/>
     <use xlink:href="#DejaVuSerif-Bold-68" x="1115.966797"/>
     <use xlink:href="#DejaVuSerif-Bold-65" x="1188.671875"/>
     <use xlink:href="#DejaVuSerif-Bold-20" x="1252.294922"/>
     <use xlink:href="#DejaVuSerif-Bold-43" x="1287.109375"/>
     <use xlink:href="#DejaVuSerif-Bold-6f" x="1366.699219"/>
     <use xlink:href="#DejaVuSerif-Bold-6d" x="1433.398438"/>
     <use xlink:href="#DejaVuSerif-Bold-61" x="1539.208984"/>
     <use xlink:href="#DejaVuSerif-Bold-6e" x="1604.003906"/>
     <use xlink:href="#DejaVuSerif-Bold-63" x="1676.708984"/>
     <use xlink:href="#DejaVuSerif-Bold-68" x="1737.597656"/>
     <use xlink:href="#DejaVuSerif-Bold-65" x="1810.302734"/>
     <use xlink:href="#DejaVuSerif-Bold-20" x="1873.925781"/>
     <use xlink:href="#DejaVuSerif-Bold-45" x="1908.740234"/>
     <use xlink:href="#DejaVuSerif-Bold-6d" x="1984.960938"/>
     <use xlink:href="#DejaVuSerif-Bold-70" x="2090.771484"/>
     <use xlink:href="#DejaVuSerif-Bold-69" x="2160.693359"/>
     <use xlink:href="#DejaVuSerif-Bold-72" x="2198.681641"/>
     <use xlink:href="#DejaVuSerif-Bold-65" x="2251.367188"/>
     <use xlink:href="#DejaVuSerif-Bold-2e" x="2314.990234"/>
     <use xlink:href="#DejaVuSerif-Bold-20" x="2349.804688"/>
     <use xlink:href="#DejaVuSerif-Bold-54" x="2384.619141"/>
     <use xlink:href="#DejaVuSerif-Bold-68" x="2459.033203"/>
     <use xlink:href="#DejaVuSerif-Bold-65" x="2531.738281"/>
     <use xlink:href="#DejaVuSerif-Bold-20" x="2595.361328"/>
     <use xlink:href="#DejaVuSerif-Bold-72" x="2630.175781"/>
     <use xlink:href="#DejaVuSerif-Bold-61" x="2682.861328"/>
     <use xlink:href="#DejaVuSerif-Bold-69" x="2747.65625"/>
     <use xlink:href="#DejaVuSerif-Bold-6c" x="2785.644531"/>
     <use xlink:href="#DejaVuSerif-Bold-72" x="2823.632812"/>
     <use xlink:href="#DejaVuSerif-Bold-6f" x="2876.318359"/>
     <use xlink:href="#DejaVuSerif-Bold-61" x="2943.017578"/>
     <use xlink:href="#DejaVuSerif-Bold-64" x="3007.8125"/>
     <use xlink:href="#DejaVuSerif-Bold-20" x="3077.734375"/>
     <use xlink:href="#DejaVuSerif-Bold-65" x="3112.548828"/>
     <use xlink:href="#DejaVuSerif-Bold-6e" x="3176.171875"/>
     <use xlink:href="#DejaVuSerif-Bold-64" x="3248.876953"/>
     <use xlink:href="#DejaVuSerif-Bold-65" x="3318.798828"/>
     <use xlink:href="#DejaVuSerif-Bold-64" x="3382.421875"/>
     <use xlink:href="#DejaVuSerif-Bold-20" x="3452.34375"/>
     <use xlink:href="#DejaVuSerif-Bold-69" x="3487.158203"/>
     <use xlink:href="#DejaVuSerif-Bold-74" x="3525.146484"/>
     <use xlink:href="#DejaVuSerif-Bold-2e" x="3571.337891"/>
    </g>
   </g>
  </g>
 </g>
 <defs>
  <clipPath id="p13eb3559c4">
   <rect x="48.362344" y="46.635125" width="638.647684" height="339.1025"/>
  </clipPath>
 </defs>
</svg>
