<?xml version="1.0" encoding="utf-8" standalone="no"?>
<!DOCTYPE svg PUBLIC "-//W3C//DTD SVG 1.1//EN"
  "http://www.w3.org/Graphics/SVG/1.1/DTD/svg11.dtd">
<svg xmlns:xlink="http://www.w3.org/1999/xlink" width="854.386694pt" height="351.151pt" viewBox="0 0 854.386694 351.151" xmlns="http://www.w3.org/2000/svg" version="1.1">
 <metadata>
  <rdf:RDF xmlns:dc="http://purl.org/dc/elements/1.1/" xmlns:cc="http://creativecommons.org/ns#" xmlns:rdf="http://www.w3.org/1999/02/22-rdf-syntax-ns#">
   <cc:Work>
    <dc:type rdf:resource="http://purl.org/dc/dcmitype/StillImage"/>
    <dc:date>2026-04-20T15:27:50.961308</dc:date>
    <dc:format>image/svg+xml</dc:format>
    <dc:creator>
     <cc:Agent>
      <dc:title>Matplotlib v3.9.4, https://matplotlib.org/</dc:title>
     </cc:Agent>
    </dc:creator>
   </cc:Work>
  </rdf:RDF>
 </metadata>
 <defs>
  <style type="text/css">*{stroke-linejoin: round; stroke-linecap: butt}</style>
 </defs>
 <g id="figure_1">
  <g id="patch_1">
   <path d="M -0 351.151 
L 854.386694 351.151 
L 854.386694 0 
L -0 0 
z
" style="fill: #ffffff"/>
  </g>
  <g id="axes_1">
   <g id="patch_2">
    <path d="M 22.002344 311.659125 
L 717.528629 311.659125 
L 717.528629 46.635125 
L 22.002344 46.635125 
z
" style="fill: #ffffff"/>
   </g>
   <g id="PolyCollection_1">
    <defs>
     <path id="m6fb3afcdf1" d="M 48.498583 -280.422784 
L 48.498583 -39.491875 
L 247.220379 -39.491875 
L 247.220379 -280.422784 
L 247.220379 -280.422784 
L 48.498583 -280.422784 
z
" style="stroke: #2c3e50; stroke-opacity: 0.06"/>
    </defs>
    <g clip-path="url(#p0d15761648)">
     <use xlink:href="#m6fb3afcdf1" x="0" y="351.151" style="fill: #2c3e50; fill-opacity: 0.06; stroke: #2c3e50; stroke-opacity: 0.06"/>
    </g>
   </g>
   <g id="PolyCollection_2">
    <defs>
     <path id="mf400e61066" d="M 247.220379 -237.05522 
L 247.220379 -39.491875 
L 631.415851 -39.491875 
L 631.415851 -237.05522 
L 631.415851 -237.05522 
L 247.220379 -237.05522 
z
" style="stroke: #2c3e50; stroke-opacity: 0.06"/>
    </defs>
    <g clip-path="url(#p0d15761648)">
     <use xlink:href="#mf400e61066" x="0" y="351.151" style="fill: #2c3e50; fill-opacity: 0.06; stroke: #2c3e50; stroke-opacity: 0.06"/>
    </g>
   </g>
   <g id="PolyCollection_3">
    <defs>
     <path id="m9cf76bf13f" d="M 631.415851 -196.096966 
L 631.415851 -39.491875 
L 689.707578 -39.491875 
L 689.707578 -196.096966 
L 689.707578 -196.096966 
L 631.415851 -196.096966 
z
" style="stroke: #2c3e50; stroke-opacity: 0.06"/>
    </defs>
    <g clip-path="url(#p0d15761648)">
     <use xlink:href="#m9cf76bf13f" x="0" y="351.151" style="fill: #2c3e50; fill-opacity: 0.06; stroke: #2c3e50; stroke-opacity: 0.06"/>
    </g>
   </g>
   <g id="PolyCollection_4">
    <defs>
     <path id="me7e8878573" d="M 689.707578 -147.910784 
L 689.707578 -39.491875 
L 692.357202 -39.491875 
L 692.357202 -147.910784 
L 692.357202 -147.910784 
L 689.707578 -147.910784 
z
" style="stroke: #2c3e50; stroke-opacity: 0.06"/>
    </defs>
    <g clip-path="url(#p0d15761648)">
     <use xlink:href="#me7e8878573" x="0" y="351.151" style="fill: #2c3e50; fill-opacity: 0.06; stroke: #2c3e50; stroke-opacity: 0.06"/>
    </g>
   </g>
   <g id="PolyCollection_5">
    <defs>
     <path id="m5ac088ad66" d="M 692.357202 -99.724602 
L 692.357202 -39.491875 
L 709.579758 -39.491875 
L 709.579758 -99.724602 
L 709.579758 -99.724602 
L 692.357202 -99.724602 
z
" style="stroke: #2c3e50; stroke-opacity: 0.06"/>
    </defs>
    <g clip-path="url(#p0d15761648)">
     <use xlink:href="#m5ac088ad66" x="0" y="351.151" style="fill: #2c3e50; fill-opacity: 0.06; stroke: #2c3e50; stroke-opacity: 0.06"/>
    </g>
   </g>
   <g id="PolyCollection_6">
    <defs>
     <path id="m5fcf29b027" d="M 709.579758 -63.584966 
L 709.579758 -39.491875 
L 714.879006 -39.491875 
L 714.879006 -63.584966 
L 714.879006 -63.584966 
L 709.579758 -63.584966 
z
" style="stroke: #2c3e50; stroke-opacity: 0.06"/>
    </defs>
    <g clip-path="url(#p0d15761648)">
     <use xlink:href="#m5fcf29b027" x="0" y="351.151" style="fill: #2c3e50; fill-opacity: 0.06; stroke: #2c3e50; stroke-opacity: 0.06"/>
    </g>
   </g>
   <g id="matplotlib.axis_1">
    <g id="xtick_1">
     <g id="line2d_1">
      <defs>
       <path id="m69a490e5d5" d="M 0 0 
L 0 3.5 
" style="stroke: #000000; stroke-width: 0.8"/>
      </defs>
      <g>
       <use xlink:href="#m69a490e5d5" x="48.498583" y="311.659125" style="stroke: #000000; stroke-width: 0.8"/>
      </g>
     </g>
     <g id="text_1">
      <!-- −3000 -->
      <g transform="translate(29.892255 327.017406) scale(0.11 -0.11)">
       <defs>
        <path id="DejaVuSerif-2212" d="M 678 2259 
L 4684 2259 
L 4684 1753 
L 678 1753 
L 678 2259 
z
" transform="scale(0.015625)"/>
        <path id="DejaVuSerif-33" d="M 622 4469 
Q 988 4606 1323 4678 
Q 1659 4750 1953 4750 
Q 2638 4750 3022 4454 
Q 3406 4159 3406 3634 
Q 3406 3213 3140 2930 
Q 2875 2647 2388 2547 
Q 2963 2466 3280 2130 
Q 3597 1794 3597 1259 
Q 3597 606 3158 257 
Q 2719 -91 1894 -91 
Q 1528 -91 1179 -12 
Q 831 66 488 225 
L 488 1131 
L 838 1131 
Q 869 681 1141 450 
Q 1413 219 1906 219 
Q 2384 219 2661 495 
Q 2938 772 2938 1253 
Q 2938 1803 2653 2086 
Q 2369 2369 1819 2369 
L 1522 2369 
L 1522 2688 
L 1678 2688 
Q 2225 2688 2498 2914 
Q 2772 3141 2772 3597 
Q 2772 4006 2547 4223 
Q 2322 4441 1900 4441 
Q 1478 4441 1245 4241 
Q 1013 4041 972 3647 
L 622 3647 
L 622 4469 
z
" transform="scale(0.015625)"/>
        <path id="DejaVuSerif-30" d="M 2034 219 
Q 2513 219 2750 744 
Q 2988 1269 2988 2328 
Q 2988 3391 2750 3916 
Q 2513 4441 2034 4441 
Q 1556 4441 1318 3916 
Q 1081 3391 1081 2328 
Q 1081 1269 1318 744 
Q 1556 219 2034 219 
z
M 2034 -91 
Q 1275 -91 848 546 
Q 422 1184 422 2328 
Q 422 3475 848 4112 
Q 1275 4750 2034 4750 
Q 2797 4750 3222 4112 
Q 3647 3475 3647 2328 
Q 3647 1184 3222 546 
Q 2797 -91 2034 -91 
z
" transform="scale(0.015625)"/>
       </defs>
       <use xlink:href="#DejaVuSerif-2212"/>
       <use xlink:href="#DejaVuSerif-33" x="83.789062"/>
       <use xlink:href="#DejaVuSerif-30" x="147.412109"/>
       <use xlink:href="#DejaVuSerif-30" x="211.035156"/>
       <use xlink:href="#DejaVuSerif-30" x="274.658203"/>
      </g>
     </g>
    </g>
    <g id="xtick_2">
     <g id="line2d_2">
      <g>
       <use xlink:href="#m69a490e5d5" x="180.97978" y="311.659125" style="stroke: #000000; stroke-width: 0.8"/>
      </g>
     </g>
     <g id="text_2">
      <!-- −2000 -->
      <g transform="translate(162.373452 327.017406) scale(0.11 -0.11)">
       <defs>
        <path id="DejaVuSerif-32" d="M 819 3553 
L 469 3553 
L 469 4384 
Q 803 4563 1142 4656 
Q 1481 4750 1806 4750 
Q 2534 4750 2956 4397 
Q 3378 4044 3378 3438 
Q 3378 2753 2422 1800 
Q 2347 1728 2309 1691 
L 1131 513 
L 3078 513 
L 3078 1088 
L 3444 1088 
L 3444 0 
L 434 0 
L 434 341 
L 1850 1753 
Q 2319 2222 2519 2614 
Q 2719 3006 2719 3438 
Q 2719 3909 2473 4175 
Q 2228 4441 1797 4441 
Q 1350 4441 1106 4219 
Q 863 3997 819 3553 
z
" transform="scale(0.015625)"/>
       </defs>
       <use xlink:href="#DejaVuSerif-2212"/>
       <use xlink:href="#DejaVuSerif-32" x="83.789062"/>
       <use xlink:href="#DejaVuSerif-30" x="147.412109"/>
       <use xlink:href="#DejaVuSerif-30" x="211.035156"/>
       <use xlink:href="#DejaVuSerif-30" x="274.658203"/>
      </g>
     </g>
    </g>
    <g id="xtick_3">
     <g id="line2d_3">
      <g>
       <use xlink:href="#m69a490e5d5" x="313.460978" y="311.659125" style="stroke: #000000; stroke-width: 0.8"/>
      </g>
     </g>
     <g id="text_3">
      <!-- −1000 -->
      <g transform="translate(294.85465 327.017406) scale(0.11 -0.11)">
       <defs>
        <path id="DejaVuSerif-31" d="M 909 0 
L 909 331 
L 1722 331 
L 1722 4213 
L 781 3603 
L 781 4013 
L 1919 4750 
L 2350 4750 
L 2350 331 
L 3163 331 
L 3163 0 
L 909 0 
z
" transform="scale(0.015625)"/>
       </defs>
       <use xlink:href="#DejaVuSerif-2212"/>
       <use xlink:href="#DejaVuSerif-31" x="83.789062"/>
       <use xlink:href="#DejaVuSerif-30" x="147.412109"/>
       <use xlink:href="#DejaVuSerif-30" x="211.035156"/>
       <use xlink:href="#DejaVuSerif-30" x="274.658203"/>
      </g>
     </g>
    </g>
    <g id="xtick_4">
     <g id="line2d_4">
      <g>
       <use xlink:href="#m69a490e5d5" x="445.942175" y="311.659125" style="stroke: #000000; stroke-width: 0.8"/>
      </g>
     </g>
     <g id="text_4">
      <!-- 0 -->
      <g transform="translate(442.4428 327.017406) scale(0.11 -0.11)">
       <use xlink:href="#DejaVuSerif-30"/>
      </g>
     </g>
    </g>
    <g id="xtick_5">
     <g id="line2d_5">
      <g>
       <use xlink:href="#m69a490e5d5" x="578.423372" y="311.659125" style="stroke: #000000; stroke-width: 0.8"/>
      </g>
     </g>
     <g id="text_5">
      <!-- 1000 -->
      <g transform="translate(564.425872 327.017406) scale(0.11 -0.11)">
       <use xlink:href="#DejaVuSerif-31"/>
       <use xlink:href="#DejaVuSerif-30" x="63.623047"/>
       <use xlink:href="#DejaVuSerif-30" x="127.246094"/>
       <use xlink:href="#DejaVuSerif-30" x="190.869141"/>
      </g>
     </g>
    </g>
    <g id="xtick_6">
     <g id="line2d_6">
      <g>
       <use xlink:href="#m69a490e5d5" x="710.90457" y="311.659125" style="stroke: #000000; stroke-width: 0.8"/>
      </g>
     </g>
     <g id="text_6">
      <!-- 2000 -->
      <g transform="translate(696.90707 327.017406) scale(0.11 -0.11)">
       <use xlink:href="#DejaVuSerif-32"/>
       <use xlink:href="#DejaVuSerif-30" x="63.623047"/>
       <use xlink:href="#DejaVuSerif-30" x="127.246094"/>
       <use xlink:href="#DejaVuSerif-30" x="190.869141"/>
      </g>
     </g>
    </g>
    <g id="text_7">
     <!-- Time -->
     <g transform="translate(355.866815 341.663344) scale(0.11 -0.11)">
      <defs>
       <path id="DejaVuSerif-54" d="M 1222 0 
L 1222 331 
L 1819 331 
L 1819 4294 
L 447 4294 
L 447 3566 
L 63 3566 
L 63 4666 
L 4206 4666 
L 4206 3566 
L 3822 3566 
L 3822 4294 
L 2450 4294 
L 2450 331 
L 3047 331 
L 3047 0 
L 1222 0 
z
" transform="scale(0.015625)"/>
       <path id="DejaVuSerif-69" d="M 622 4353 
Q 622 4497 726 4603 
Q 831 4709 978 4709 
Q 1122 4709 1226 4603 
Q 1331 4497 1331 4353 
Q 1331 4206 1228 4103 
Q 1125 4000 978 4000 
Q 831 4000 726 4103 
Q 622 4206 622 4353 
z
M 1356 331 
L 1900 331 
L 1900 0 
L 231 0 
L 231 331 
L 781 331 
L 781 2988 
L 231 2988 
L 231 3322 
L 1356 3322 
L 1356 331 
z
" transform="scale(0.015625)"/>
       <path id="DejaVuSerif-6d" d="M 3316 2675 
Q 3481 3041 3739 3227 
Q 3997 3413 4341 3413 
Q 4863 3413 5119 3089 
Q 5375 2766 5375 2113 
L 5375 331 
L 5894 331 
L 5894 0 
L 4300 0 
L 4300 331 
L 4800 331 
L 4800 2047 
Q 4800 2556 4650 2772 
Q 4500 2988 4153 2988 
Q 3769 2988 3567 2697 
Q 3366 2406 3366 1850 
L 3366 331 
L 3866 331 
L 3866 0 
L 2291 0 
L 2291 331 
L 2791 331 
L 2791 2069 
Q 2791 2566 2641 2777 
Q 2491 2988 2144 2988 
Q 1759 2988 1557 2697 
Q 1356 2406 1356 1850 
L 1356 331 
L 1856 331 
L 1856 0 
L 263 0 
L 263 331 
L 781 331 
L 781 2994 
L 231 2994 
L 231 3322 
L 1356 3322 
L 1356 2731 
Q 1516 3063 1762 3238 
Q 2009 3413 2322 3413 
Q 2709 3413 2968 3220 
Q 3228 3028 3316 2675 
z
" transform="scale(0.015625)"/>
       <path id="DejaVuSerif-65" d="M 3469 1600 
L 991 1600 
L 991 1575 
Q 991 903 1244 561 
Q 1497 219 1991 219 
Q 2369 219 2611 417 
Q 2853 616 2950 1006 
L 3413 1006 
Q 3275 459 2904 184 
Q 2534 -91 1931 -91 
Q 1203 -91 761 389 
Q 319 869 319 1663 
Q 319 2450 753 2931 
Q 1188 3413 1894 3413 
Q 2647 3413 3050 2948 
Q 3453 2484 3469 1600 
z
M 2791 1931 
Q 2772 2513 2545 2808 
Q 2319 3103 1894 3103 
Q 1497 3103 1269 2806 
Q 1041 2509 991 1931 
L 2791 1931 
z
" transform="scale(0.015625)"/>
      </defs>
      <use xlink:href="#DejaVuSerif-54"/>
      <use xlink:href="#DejaVuSerif-69" x="66.699219"/>
      <use xlink:href="#DejaVuSerif-6d" x="98.681641"/>
      <use xlink:href="#DejaVuSerif-65" x="193.505859"/>
     </g>
    </g>
   </g>
   <g id="matplotlib.axis_2">
    <g id="text_8">
     <!-- Effective Geographic Friction -->
     <g transform="translate(15.558281 261.796656) rotate(-90) scale(0.11 -0.11)">
      <defs>
       <path id="DejaVuSerif-45" d="M 353 0 
L 353 331 
L 947 331 
L 947 4331 
L 353 4331 
L 353 4666 
L 4109 4666 
L 4109 3628 
L 3725 3628 
L 3725 4281 
L 1581 4281 
L 1581 2719 
L 3109 2719 
L 3109 3303 
L 3494 3303 
L 3494 1753 
L 3109 1753 
L 3109 2338 
L 1581 2338 
L 1581 384 
L 3775 384 
L 3775 1038 
L 4159 1038 
L 4159 0 
L 353 0 
z
" transform="scale(0.015625)"/>
       <path id="DejaVuSerif-66" d="M 2753 4078 
L 2450 4078 
Q 2447 4313 2317 4434 
Q 2188 4556 1941 4556 
Q 1619 4556 1487 4379 
Q 1356 4203 1356 3750 
L 1356 3322 
L 2284 3322 
L 2284 2988 
L 1356 2988 
L 1356 331 
L 2094 331 
L 2094 0 
L 231 0 
L 231 331 
L 781 331 
L 781 2988 
L 231 2988 
L 231 3322 
L 781 3322 
L 781 3738 
Q 781 4294 1070 4578 
Q 1359 4863 1919 4863 
Q 2128 4863 2337 4825 
Q 2547 4788 2753 4709 
L 2753 4078 
z
" transform="scale(0.015625)"/>
       <path id="DejaVuSerif-63" d="M 3291 997 
Q 3169 466 2822 187 
Q 2475 -91 1925 -91 
Q 1200 -91 759 389 
Q 319 869 319 1663 
Q 319 2459 759 2936 
Q 1200 3413 1925 3413 
Q 2241 3413 2553 3339 
Q 2866 3266 3181 3116 
L 3181 2266 
L 2847 2266 
Q 2781 2703 2561 2903 
Q 2341 3103 1931 3103 
Q 1466 3103 1228 2742 
Q 991 2381 991 1663 
Q 991 944 1227 581 
Q 1463 219 1931 219 
Q 2303 219 2525 412 
Q 2747 606 2828 997 
L 3291 997 
z
" transform="scale(0.015625)"/>
       <path id="DejaVuSerif-74" d="M 691 2988 
L 184 2988 
L 184 3322 
L 691 3322 
L 691 4353 
L 1269 4353 
L 1269 3322 
L 2350 3322 
L 2350 2988 
L 1269 2988 
L 1269 878 
Q 1269 456 1350 337 
Q 1431 219 1650 219 
Q 1875 219 1978 351 
Q 2081 484 2088 781 
L 2522 781 
Q 2497 328 2275 118 
Q 2053 -91 1600 -91 
Q 1103 -91 897 129 
Q 691 350 691 878 
L 691 2988 
z
" transform="scale(0.015625)"/>
       <path id="DejaVuSerif-76" d="M 1581 0 
L 359 2988 
L -19 2988 
L -19 3322 
L 1509 3322 
L 1509 2988 
L 978 2988 
L 1913 703 
L 2847 2988 
L 2350 2988 
L 2350 3322 
L 3597 3322 
L 3597 2988 
L 3225 2988 
L 2003 0 
L 1581 0 
z
" transform="scale(0.015625)"/>
       <path id="DejaVuSerif-20" transform="scale(0.015625)"/>
       <path id="DejaVuSerif-47" d="M 4097 3272 
Q 3988 3856 3641 4136 
Q 3294 4416 2675 4416 
Q 1869 4416 1472 3897 
Q 1075 3378 1075 2328 
Q 1075 1300 1484 772 
Q 1894 244 2688 244 
Q 3041 244 3362 331 
Q 3684 419 3975 594 
L 3975 1797 
L 3097 1797 
L 3097 2131 
L 4609 2131 
L 4609 391 
Q 4194 150 3714 29 
Q 3234 -91 2688 -91 
Q 1631 -91 995 570 
Q 359 1231 359 2328 
Q 359 3434 996 4092 
Q 1634 4750 2713 4750 
Q 3113 4750 3539 4658 
Q 3966 4566 4447 4378 
L 4447 3272 
L 4097 3272 
z
" transform="scale(0.015625)"/>
       <path id="DejaVuSerif-6f" d="M 1925 219 
Q 2388 219 2623 584 
Q 2859 950 2859 1663 
Q 2859 2375 2623 2739 
Q 2388 3103 1925 3103 
Q 1463 3103 1227 2739 
Q 991 2375 991 1663 
Q 991 950 1228 584 
Q 1466 219 1925 219 
z
M 1925 -91 
Q 1200 -91 759 389 
Q 319 869 319 1663 
Q 319 2456 758 2934 
Q 1197 3413 1925 3413 
Q 2653 3413 3092 2934 
Q 3531 2456 3531 1663 
Q 3531 869 3092 389 
Q 2653 -91 1925 -91 
z
" transform="scale(0.015625)"/>
       <path id="DejaVuSerif-67" d="M 3359 2988 
L 3359 72 
Q 3359 -644 2965 -1033 
Q 2572 -1422 1844 -1422 
Q 1516 -1422 1216 -1362 
Q 916 -1303 641 -1184 
L 641 -488 
L 941 -488 
Q 997 -813 1206 -963 
Q 1416 -1113 1806 -1113 
Q 2313 -1113 2548 -827 
Q 2784 -541 2784 72 
L 2784 519 
Q 2616 206 2355 57 
Q 2094 -91 1709 -91 
Q 1097 -91 708 395 
Q 319 881 319 1663 
Q 319 2444 706 2928 
Q 1094 3413 1709 3413 
Q 2094 3413 2355 3264 
Q 2616 3116 2784 2803 
L 2784 3322 
L 3909 3322 
L 3909 2988 
L 3359 2988 
z
M 2784 1825 
Q 2784 2422 2554 2737 
Q 2325 3053 1888 3053 
Q 1444 3053 1217 2703 
Q 991 2353 991 1663 
Q 991 975 1217 622 
Q 1444 269 1888 269 
Q 2325 269 2554 583 
Q 2784 897 2784 1497 
L 2784 1825 
z
" transform="scale(0.015625)"/>
       <path id="DejaVuSerif-72" d="M 3059 3328 
L 3059 2497 
L 2728 2497 
Q 2713 2744 2591 2866 
Q 2469 2988 2234 2988 
Q 1809 2988 1582 2694 
Q 1356 2400 1356 1850 
L 1356 331 
L 2022 331 
L 2022 0 
L 263 0 
L 263 331 
L 781 331 
L 781 2994 
L 231 2994 
L 231 3322 
L 1356 3322 
L 1356 2731 
Q 1525 3078 1790 3245 
Q 2056 3413 2438 3413 
Q 2578 3413 2733 3391 
Q 2888 3369 3059 3328 
z
" transform="scale(0.015625)"/>
       <path id="DejaVuSerif-61" d="M 2547 1044 
L 2547 1747 
L 1806 1747 
Q 1378 1747 1168 1562 
Q 959 1378 959 997 
Q 959 650 1171 447 
Q 1384 244 1747 244 
Q 2106 244 2326 466 
Q 2547 688 2547 1044 
z
M 3122 2075 
L 3122 331 
L 3634 331 
L 3634 0 
L 2547 0 
L 2547 359 
Q 2356 128 2106 18 
Q 1856 -91 1522 -91 
Q 969 -91 644 203 
Q 319 497 319 997 
Q 319 1513 691 1797 
Q 1063 2081 1741 2081 
L 2547 2081 
L 2547 2309 
Q 2547 2688 2317 2895 
Q 2088 3103 1672 3103 
Q 1328 3103 1125 2947 
Q 922 2791 872 2484 
L 575 2484 
L 575 3156 
Q 875 3284 1158 3348 
Q 1441 3413 1709 3413 
Q 2400 3413 2761 3070 
Q 3122 2728 3122 2075 
z
" transform="scale(0.015625)"/>
       <path id="DejaVuSerif-70" d="M 1313 1825 
L 1313 1497 
Q 1313 897 1542 583 
Q 1772 269 2209 269 
Q 2650 269 2876 622 
Q 3103 975 3103 1663 
Q 3103 2353 2876 2703 
Q 2650 3053 2209 3053 
Q 1772 3053 1542 2737 
Q 1313 2422 1313 1825 
z
M 738 2988 
L 184 2988 
L 184 3322 
L 1313 3322 
L 1313 2803 
Q 1481 3116 1742 3264 
Q 2003 3413 2388 3413 
Q 3000 3413 3387 2928 
Q 3775 2444 3775 1663 
Q 3775 881 3387 395 
Q 3000 -91 2388 -91 
Q 2003 -91 1742 57 
Q 1481 206 1313 519 
L 1313 -997 
L 1856 -997 
L 1856 -1331 
L 184 -1331 
L 184 -997 
L 738 -997 
L 738 2988 
z
" transform="scale(0.015625)"/>
       <path id="DejaVuSerif-68" d="M 263 0 
L 263 331 
L 781 331 
L 781 4531 
L 231 4531 
L 231 4863 
L 1356 4863 
L 1356 2731 
Q 1516 3069 1770 3241 
Q 2025 3413 2363 3413 
Q 2913 3413 3172 3097 
Q 3431 2781 3431 2113 
L 3431 331 
L 3944 331 
L 3944 0 
L 2356 0 
L 2356 331 
L 2853 331 
L 2853 1931 
Q 2853 2541 2704 2764 
Q 2556 2988 2175 2988 
Q 1775 2988 1565 2697 
Q 1356 2406 1356 1850 
L 1356 331 
L 1856 331 
L 1856 0 
L 263 0 
z
" transform="scale(0.015625)"/>
       <path id="DejaVuSerif-46" d="M 353 0 
L 353 331 
L 947 331 
L 947 4331 
L 353 4331 
L 353 4666 
L 4172 4666 
L 4172 3628 
L 3788 3628 
L 3788 4281 
L 1581 4281 
L 1581 2719 
L 3175 2719 
L 3175 3303 
L 3559 3303 
L 3559 1753 
L 3175 1753 
L 3175 2338 
L 1581 2338 
L 1581 331 
L 2328 331 
L 2328 0 
L 353 0 
z
" transform="scale(0.015625)"/>
       <path id="DejaVuSerif-6e" d="M 263 0 
L 263 331 
L 781 331 
L 781 2988 
L 231 2988 
L 231 3322 
L 1356 3322 
L 1356 2731 
Q 1516 3069 1770 3241 
Q 2025 3413 2363 3413 
Q 2913 3413 3172 3097 
Q 3431 2781 3431 2113 
L 3431 331 
L 3944 331 
L 3944 0 
L 2356 0 
L 2356 331 
L 2853 331 
L 2853 1931 
Q 2853 2541 2703 2767 
Q 2553 2994 2175 2994 
Q 1775 2994 1565 2701 
Q 1356 2409 1356 1850 
L 1356 331 
L 1856 331 
L 1856 0 
L 263 0 
z
" transform="scale(0.015625)"/>
      </defs>
      <use xlink:href="#DejaVuSerif-45"/>
      <use xlink:href="#DejaVuSerif-66" x="72.998047"/>
      <use xlink:href="#DejaVuSerif-66" x="110.009766"/>
      <use xlink:href="#DejaVuSerif-65" x="147.021484"/>
      <use xlink:href="#DejaVuSerif-63" x="206.201172"/>
      <use xlink:href="#DejaVuSerif-74" x="262.207031"/>
      <use xlink:href="#DejaVuSerif-69" x="302.392578"/>
      <use xlink:href="#DejaVuSerif-76" x="334.375"/>
      <use xlink:href="#DejaVuSerif-65" x="390.869141"/>
      <use xlink:href="#DejaVuSerif-20" x="450.048828"/>
      <use xlink:href="#DejaVuSerif-47" x="481.835938"/>
      <use xlink:href="#DejaVuSerif-65" x="561.71875"/>
      <use xlink:href="#DejaVuSerif-6f" x="620.898438"/>
      <use xlink:href="#DejaVuSerif-67" x="681.103516"/>
      <use xlink:href="#DejaVuSerif-72" x="745.117188"/>
      <use xlink:href="#DejaVuSerif-61" x="792.919922"/>
      <use xlink:href="#DejaVuSerif-70" x="852.539062"/>
      <use xlink:href="#DejaVuSerif-68" x="916.552734"/>
      <use xlink:href="#DejaVuSerif-69" x="980.957031"/>
      <use xlink:href="#DejaVuSerif-63" x="1012.939453"/>
      <use xlink:href="#DejaVuSerif-20" x="1068.945312"/>
      <use xlink:href="#DejaVuSerif-46" x="1100.732422"/>
      <use xlink:href="#DejaVuSerif-72" x="1170.117188"/>
      <use xlink:href="#DejaVuSerif-69" x="1217.919922"/>
      <use xlink:href="#DejaVuSerif-63" x="1249.902344"/>
      <use xlink:href="#DejaVuSerif-74" x="1305.908203"/>
      <use xlink:href="#DejaVuSerif-69" x="1346.09375"/>
      <use xlink:href="#DejaVuSerif-6f" x="1378.076172"/>
      <use xlink:href="#DejaVuSerif-6e" x="1438.28125"/>
     </g>
    </g>
   </g>
   <g id="line2d_7">
    <path d="M 48.498583 70.728216 
L 247.220379 70.728216 
" clip-path="url(#p0d15761648)" style="fill: none; stroke: #2c3e50; stroke-width: 2.5; stroke-linecap: square"/>
   </g>
   <g id="line2d_8">
    <path d="M 247.220379 114.09578 
L 631.415851 114.09578 
" clip-path="url(#p0d15761648)" style="fill: none; stroke: #2c3e50; stroke-width: 2.5; stroke-linecap: square"/>
   </g>
   <g id="line2d_9">
    <path d="M 247.220379 70.728216 
L 247.220379 114.09578 
" clip-path="url(#p0d15761648)" style="fill: none; stroke: #c0392b; stroke-width: 2; stroke-linecap: square"/>
   </g>
   <g id="line2d_10">
    <path d="M 631.415851 155.054034 
L 689.707578 155.054034 
" clip-path="url(#p0d15761648)" style="fill: none; stroke: #2c3e50; stroke-width: 2.5; stroke-linecap: square"/>
   </g>
   <g id="line2d_11">
    <path d="M 631.415851 114.09578 
L 631.415851 155.054034 
" clip-path="url(#p0d15761648)" style="fill: none; stroke: #c0392b; stroke-width: 2; stroke-linecap: square"/>
   </g>
   <g id="line2d_12">
    <path d="M 689.707578 203.240216 
L 692.357202 203.240216 
" clip-path="url(#p0d15761648)" style="fill: none; stroke: #2c3e50; stroke-width: 2.5; stroke-linecap: square"/>
   </g>
   <g id="line2d_13">
    <path d="M 689.707578 155.054034 
L 689.707578 203.240216 
" clip-path="url(#p0d15761648)" style="fill: none; stroke: #c0392b; stroke-width: 2; stroke-linecap: square"/>
   </g>
   <g id="line2d_14">
    <path d="M 692.357202 251.426398 
L 709.579758 251.426398 
" clip-path="url(#p0d15761648)" style="fill: none; stroke: #2c3e50; stroke-width: 2.5; stroke-linecap: square"/>
   </g>
   <g id="line2d_15">
    <path d="M 692.357202 203.240216 
L 692.357202 251.426398 
" clip-path="url(#p0d15761648)" style="fill: none; stroke: #c0392b; stroke-width: 2; stroke-linecap: square"/>
   </g>
   <g id="line2d_16">
    <path d="M 709.579758 287.566034 
L 714.879006 287.566034 
" clip-path="url(#p0d15761648)" style="fill: none; stroke: #2c3e50; stroke-width: 2.5; stroke-linecap: square"/>
   </g>
   <g id="line2d_17">
    <path d="M 709.579758 251.426398 
L 709.579758 287.566034 
" clip-path="url(#p0d15761648)" style="fill: none; stroke: #c0392b; stroke-width: 2; stroke-linecap: square"/>
   </g>
   <g id="patch_3">
    <path d="M 22.002344 311.659125 
L 22.002344 46.635125 
" style="fill: none; stroke: #000000; stroke-width: 0.8; stroke-linejoin: miter; stroke-linecap: square"/>
   </g>
   <g id="patch_4">
    <path d="M 22.002344 311.659125 
L 717.528629 311.659125 
" style="fill: none; stroke: #000000; stroke-width: 0.8; stroke-linejoin: miter; stroke-linecap: square"/>
   </g>
   <g id="text_9">
    <!-- Overland corridors -->
    <g style="fill: #7f8c8d" transform="translate(74.994823 81.625584) scale(0.08 -0.08)">
     <defs>
      <path id="DejaVuSerif-4f" d="M 2625 244 
Q 3391 244 3781 770 
Q 4172 1297 4172 2328 
Q 4172 3363 3781 3889 
Q 3391 4416 2625 4416 
Q 1856 4416 1465 3889 
Q 1075 3363 1075 2328 
Q 1075 1297 1465 770 
Q 1856 244 2625 244 
z
M 2625 -91 
Q 2150 -91 1751 65 
Q 1353 222 1050 525 
Q 700 875 529 1319 
Q 359 1763 359 2328 
Q 359 2894 529 3339 
Q 700 3784 1050 4134 
Q 1356 4441 1750 4595 
Q 2144 4750 2625 4750 
Q 3641 4750 4266 4084 
Q 4891 3419 4891 2328 
Q 4891 1769 4719 1320 
Q 4547 872 4197 525 
Q 3891 219 3497 64 
Q 3103 -91 2625 -91 
z
" transform="scale(0.015625)"/>
      <path id="DejaVuSerif-6c" d="M 1313 331 
L 1856 331 
L 1856 0 
L 184 0 
L 184 331 
L 738 331 
L 738 4531 
L 184 4531 
L 184 4863 
L 1313 4863 
L 1313 331 
z
" transform="scale(0.015625)"/>
      <path id="DejaVuSerif-64" d="M 3359 331 
L 3909 331 
L 3909 0 
L 2784 0 
L 2784 519 
Q 2616 206 2355 57 
Q 2094 -91 1709 -91 
Q 1097 -91 708 395 
Q 319 881 319 1663 
Q 319 2444 706 2928 
Q 1094 3413 1709 3413 
Q 2094 3413 2355 3264 
Q 2616 3116 2784 2803 
L 2784 4531 
L 2241 4531 
L 2241 4863 
L 3359 4863 
L 3359 331 
z
M 2784 1497 
L 2784 1825 
Q 2784 2422 2554 2737 
Q 2325 3053 1888 3053 
Q 1444 3053 1217 2703 
Q 991 2353 991 1663 
Q 991 975 1217 622 
Q 1444 269 1888 269 
Q 2325 269 2554 583 
Q 2784 897 2784 1497 
z
" transform="scale(0.015625)"/>
      <path id="DejaVuSerif-73" d="M 359 184 
L 359 959 
L 691 959 
Q 703 588 923 403 
Q 1144 219 1575 219 
Q 1963 219 2166 364 
Q 2369 509 2369 788 
Q 2369 1006 2220 1140 
Q 2072 1275 1594 1428 
L 1178 1569 
Q 750 1706 558 1912 
Q 366 2119 366 2438 
Q 366 2894 700 3153 
Q 1034 3413 1625 3413 
Q 1888 3413 2178 3344 
Q 2469 3275 2778 3144 
L 2778 2419 
L 2447 2419 
Q 2434 2741 2221 2922 
Q 2009 3103 1644 3103 
Q 1281 3103 1095 2975 
Q 909 2847 909 2591 
Q 909 2381 1050 2254 
Q 1191 2128 1613 1997 
L 2069 1856 
Q 2541 1709 2748 1489 
Q 2956 1269 2956 922 
Q 2956 450 2595 179 
Q 2234 -91 1600 -91 
Q 1278 -91 972 -22 
Q 666 47 359 184 
z
" transform="scale(0.015625)"/>
     </defs>
     <use xlink:href="#DejaVuSerif-4f"/>
     <use xlink:href="#DejaVuSerif-76" x="81.982422"/>
     <use xlink:href="#DejaVuSerif-65" x="138.476562"/>
     <use xlink:href="#DejaVuSerif-72" x="197.65625"/>
     <use xlink:href="#DejaVuSerif-6c" x="245.458984"/>
     <use xlink:href="#DejaVuSerif-61" x="277.441406"/>
     <use xlink:href="#DejaVuSerif-6e" x="337.060547"/>
     <use xlink:href="#DejaVuSerif-64" x="401.464844"/>
     <use xlink:href="#DejaVuSerif-20" x="465.478516"/>
     <use xlink:href="#DejaVuSerif-63" x="497.265625"/>
     <use xlink:href="#DejaVuSerif-6f" x="553.271484"/>
     <use xlink:href="#DejaVuSerif-72" x="613.476562"/>
     <use xlink:href="#DejaVuSerif-72" x="661.279297"/>
     <use xlink:href="#DejaVuSerif-69" x="709.082031"/>
     <use xlink:href="#DejaVuSerif-64" x="741.064453"/>
     <use xlink:href="#DejaVuSerif-6f" x="805.078125"/>
     <use xlink:href="#DejaVuSerif-72" x="865.283203"/>
     <use xlink:href="#DejaVuSerif-73" x="913.085938"/>
    </g>
    <!-- (rivers, valleys, steppe) -->
    <g style="fill: #7f8c8d" transform="translate(74.994823 90.583834) scale(0.08 -0.08)">
     <defs>
      <path id="DejaVuSerif-28" d="M 2041 -997 
Q 1281 -656 893 83 
Q 506 822 506 1931 
Q 506 3044 893 3783 
Q 1281 4522 2041 4863 
L 2041 4556 
Q 1559 4225 1350 3623 
Q 1141 3022 1141 1931 
Q 1141 844 1350 242 
Q 1559 -359 2041 -691 
L 2041 -997 
z
" transform="scale(0.015625)"/>
      <path id="DejaVuSerif-2c" d="M 231 -622 
Q 525 -406 662 -114 
Q 800 178 800 594 
L 800 709 
L 1416 709 
Q 1391 175 1164 -208 
Q 938 -591 481 -872 
L 231 -622 
z
" transform="scale(0.015625)"/>
      <path id="DejaVuSerif-79" d="M 1381 -609 
L 1600 -56 
L 359 2988 
L -19 2988 
L -19 3322 
L 1509 3322 
L 1509 2988 
L 978 2988 
L 1913 703 
L 2847 2988 
L 2350 2988 
L 2350 3322 
L 3597 3322 
L 3597 2988 
L 3225 2988 
L 1703 -750 
Q 1547 -1138 1356 -1280 
Q 1166 -1422 819 -1422 
Q 672 -1422 517 -1397 
Q 363 -1372 206 -1325 
L 206 -691 
L 500 -691 
Q 519 -903 608 -995 
Q 697 -1088 884 -1088 
Q 1056 -1088 1161 -992 
Q 1266 -897 1381 -609 
z
" transform="scale(0.015625)"/>
      <path id="DejaVuSerif-29" d="M 453 -997 
L 453 -691 
Q 934 -359 1145 242 
Q 1356 844 1356 1931 
Q 1356 3022 1145 3623 
Q 934 4225 453 4556 
L 453 4863 
Q 1216 4522 1603 3783 
Q 1991 3044 1991 1931 
Q 1991 822 1603 83 
Q 1216 -656 453 -997 
z
" transform="scale(0.015625)"/>
     </defs>
     <use xlink:href="#DejaVuSerif-28"/>
     <use xlink:href="#DejaVuSerif-72" x="39.013672"/>
     <use xlink:href="#DejaVuSerif-69" x="86.816406"/>
     <use xlink:href="#DejaVuSerif-76" x="118.798828"/>
     <use xlink:href="#DejaVuSerif-65" x="175.292969"/>
     <use xlink:href="#DejaVuSerif-72" x="234.472656"/>
     <use xlink:href="#DejaVuSerif-73" x="282.275391"/>
     <use xlink:href="#DejaVuSerif-2c" x="333.59375"/>
     <use xlink:href="#DejaVuSerif-20" x="365.380859"/>
     <use xlink:href="#DejaVuSerif-76" x="397.167969"/>
     <use xlink:href="#DejaVuSerif-61" x="453.662109"/>
     <use xlink:href="#DejaVuSerif-6c" x="513.28125"/>
     <use xlink:href="#DejaVuSerif-6c" x="545.263672"/>
     <use xlink:href="#DejaVuSerif-65" x="577.246094"/>
     <use xlink:href="#DejaVuSerif-79" x="636.425781"/>
     <use xlink:href="#DejaVuSerif-73" x="692.919922"/>
     <use xlink:href="#DejaVuSerif-2c" x="744.238281"/>
     <use xlink:href="#DejaVuSerif-20" x="776.025391"/>
     <use xlink:href="#DejaVuSerif-73" x="807.8125"/>
     <use xlink:href="#DejaVuSerif-74" x="859.130859"/>
     <use xlink:href="#DejaVuSerif-65" x="899.316406"/>
     <use xlink:href="#DejaVuSerif-70" x="958.496094"/>
     <use xlink:href="#DejaVuSerif-70" x="1022.509766"/>
     <use xlink:href="#DejaVuSerif-65" x="1086.523438"/>
     <use xlink:href="#DejaVuSerif-29" x="1145.703125"/>
    </g>
   </g>
   <g id="text_10">
    <!-- Oceanic sail -->
    <g style="fill: #c0392b" transform="translate(260.468499 98.541411) scale(0.08 -0.08)">
     <defs>
      <path id="DejaVuSerif-Bold-4f" d="M 2784 288 
Q 3381 288 3672 791 
Q 3963 1294 3963 2328 
Q 3963 3366 3672 3869 
Q 3381 4372 2784 4372 
Q 2191 4372 1898 3864 
Q 1606 3356 1606 2328 
Q 1606 1303 1898 795 
Q 2191 288 2784 288 
z
M 2784 -91 
Q 1606 -91 937 553 
Q 269 1197 269 2328 
Q 269 3459 939 4104 
Q 1609 4750 2784 4750 
Q 3963 4750 4631 4106 
Q 5300 3463 5300 2328 
Q 5300 1197 4629 553 
Q 3959 -91 2784 -91 
z
" transform="scale(0.015625)"/>
      <path id="DejaVuSerif-Bold-63" d="M 3609 1038 
Q 3491 469 3123 189 
Q 2756 -91 2125 -91 
Q 1238 -91 750 368 
Q 263 828 263 1663 
Q 263 2488 744 2950 
Q 1225 3413 2081 3413 
Q 2428 3413 2781 3347 
Q 3134 3281 3500 3150 
L 3500 2228 
L 3150 2228 
Q 3100 2650 2903 2854 
Q 2706 3059 2350 3059 
Q 1888 3059 1692 2746 
Q 1497 2434 1497 1663 
Q 1497 909 1687 586 
Q 1878 263 2309 263 
Q 2644 263 2845 463 
Q 3047 663 3091 1038 
L 3609 1038 
z
" transform="scale(0.015625)"/>
      <path id="DejaVuSerif-Bold-65" d="M 2566 1875 
Q 2566 2531 2444 2795 
Q 2322 3059 2028 3059 
Q 1744 3059 1620 2800 
Q 1497 2541 1497 1931 
L 1497 1875 
L 2566 1875 
z
M 3781 1503 
L 1497 1503 
L 1497 1478 
Q 1497 834 1690 548 
Q 1884 263 2316 263 
Q 2675 263 2897 453 
Q 3119 644 3181 1006 
L 3700 1006 
Q 3566 441 3166 175 
Q 2766 -91 2047 -91 
Q 1184 -91 723 364 
Q 263 819 263 1663 
Q 263 2488 734 2950 
Q 1206 3413 2047 3413 
Q 2872 3413 3312 2927 
Q 3753 2441 3781 1503 
z
" transform="scale(0.015625)"/>
      <path id="DejaVuSerif-Bold-61" d="M 3525 2041 
L 3525 378 
L 4000 378 
L 4000 0 
L 2419 0 
L 2419 422 
Q 2200 159 1931 34 
Q 1663 -91 1319 -91 
Q 809 -91 536 182 
Q 263 456 263 966 
Q 263 1525 655 1803 
Q 1047 2081 1838 2081 
L 2419 2081 
L 2419 2278 
Q 2419 2681 2228 2873 
Q 2038 3066 1638 3066 
Q 1306 3066 1126 2930 
Q 947 2794 872 2484 
L 519 2484 
L 519 3200 
Q 816 3306 1134 3359 
Q 1453 3413 1806 3413 
Q 2697 3413 3111 3081 
Q 3525 2750 3525 2041 
z
M 2419 1044 
L 2419 1709 
L 2003 1709 
Q 1694 1709 1528 1540 
Q 1363 1372 1363 1056 
Q 1363 741 1483 584 
Q 1603 428 1850 428 
Q 2106 428 2262 597 
Q 2419 766 2419 1044 
z
" transform="scale(0.015625)"/>
      <path id="DejaVuSerif-Bold-6e" d="M 219 0 
L 219 378 
L 691 378 
L 691 2944 
L 219 2944 
L 219 3322 
L 1797 3322 
L 1797 2853 
Q 1997 3150 2253 3281 
Q 2509 3413 2900 3413 
Q 3459 3413 3745 3083 
Q 4031 2753 4031 2113 
L 4031 378 
L 4506 378 
L 4506 0 
L 2522 0 
L 2522 378 
L 2925 378 
L 2925 2144 
Q 2925 2566 2817 2730 
Q 2709 2894 2444 2894 
Q 2109 2894 1953 2648 
Q 1797 2403 1797 1869 
L 1797 378 
L 2203 378 
L 2203 0 
L 219 0 
z
" transform="scale(0.015625)"/>
      <path id="DejaVuSerif-Bold-69" d="M 588 4263 
Q 588 4516 763 4689 
Q 938 4863 1191 4863 
Q 1438 4863 1611 4689 
Q 1784 4516 1784 4263 
Q 1784 4016 1611 3842 
Q 1438 3669 1191 3669 
Q 938 3669 763 3841 
Q 588 4013 588 4263 
z
M 1797 378 
L 2272 378 
L 2272 0 
L 219 0 
L 219 378 
L 691 378 
L 691 2944 
L 219 2944 
L 219 3322 
L 1797 3322 
L 1797 378 
z
" transform="scale(0.015625)"/>
      <path id="DejaVuSerif-Bold-20" transform="scale(0.015625)"/>
      <path id="DejaVuSerif-Bold-73" d="M 300 97 
L 300 1025 
L 653 1025 
Q 697 653 931 458 
Q 1166 263 1569 263 
Q 1906 263 2086 380 
Q 2266 497 2266 716 
Q 2266 916 2152 1025 
Q 2038 1134 1709 1216 
L 1253 1331 
Q 738 1459 506 1698 
Q 275 1938 275 2344 
Q 275 2884 650 3148 
Q 1025 3413 1806 3413 
Q 2100 3413 2433 3364 
Q 2766 3316 3169 3213 
L 3169 2375 
L 2816 2375 
Q 2788 2716 2573 2887 
Q 2359 3059 1959 3059 
Q 1622 3059 1448 2951 
Q 1275 2844 1275 2638 
Q 1275 2469 1375 2372 
Q 1475 2275 1734 2209 
L 2188 2094 
Q 2841 1928 3091 1684 
Q 3341 1441 3341 1006 
Q 3341 444 2939 176 
Q 2538 -91 1691 -91 
Q 1381 -91 1034 -44 
Q 688 3 300 97 
z
" transform="scale(0.015625)"/>
      <path id="DejaVuSerif-Bold-6c" d="M 1797 378 
L 2272 378 
L 2272 0 
L 219 0 
L 219 378 
L 691 378 
L 691 4488 
L 219 4488 
L 219 4863 
L 1797 4863 
L 1797 378 
z
" transform="scale(0.015625)"/>
     </defs>
     <use xlink:href="#DejaVuSerif-Bold-4f"/>
     <use xlink:href="#DejaVuSerif-Bold-63" x="87.109375"/>
     <use xlink:href="#DejaVuSerif-Bold-65" x="147.998047"/>
     <use xlink:href="#DejaVuSerif-Bold-61" x="211.621094"/>
     <use xlink:href="#DejaVuSerif-Bold-6e" x="276.416016"/>
     <use xlink:href="#DejaVuSerif-Bold-69" x="349.121094"/>
     <use xlink:href="#DejaVuSerif-Bold-63" x="387.109375"/>
     <use xlink:href="#DejaVuSerif-Bold-20" x="447.998047"/>
     <use xlink:href="#DejaVuSerif-Bold-73" x="482.8125"/>
     <use xlink:href="#DejaVuSerif-Bold-61" x="539.111328"/>
     <use xlink:href="#DejaVuSerif-Bold-69" x="603.90625"/>
     <use xlink:href="#DejaVuSerif-Bold-6c" x="641.894531"/>
    </g>
    <!-- (low friction, high latency) -->
    <g style="fill: #c0392b" transform="translate(260.468499 107.499661) scale(0.08 -0.08)">
     <defs>
      <path id="DejaVuSerif-Bold-28" d="M 2694 -997 
Q 1641 -606 1122 122 
Q 603 850 603 1931 
Q 603 3013 1115 3731 
Q 1628 4450 2694 4863 
L 2694 4488 
Q 2200 4188 1983 3598 
Q 1766 3009 1766 1931 
Q 1766 856 1983 267 
Q 2200 -322 2694 -622 
L 2694 -997 
z
" transform="scale(0.015625)"/>
      <path id="DejaVuSerif-Bold-6f" d="M 2138 263 
Q 2488 263 2630 563 
Q 2772 863 2772 1663 
Q 2772 2463 2631 2761 
Q 2491 3059 2138 3059 
Q 1784 3059 1640 2757 
Q 1497 2456 1497 1663 
Q 1497 869 1640 566 
Q 1784 263 2138 263 
z
M 2138 -91 
Q 1259 -91 761 376 
Q 263 844 263 1663 
Q 263 2484 761 2948 
Q 1259 3413 2138 3413 
Q 3019 3413 3516 2948 
Q 4013 2484 4013 1663 
Q 4013 844 3514 376 
Q 3016 -91 2138 -91 
z
" transform="scale(0.015625)"/>
      <path id="DejaVuSerif-Bold-77" d="M 3450 3322 
L 4206 1106 
L 4831 2944 
L 4397 2944 
L 4397 3322 
L 5638 3322 
L 5638 2944 
L 5247 2944 
L 4244 0 
L 3481 0 
L 2778 2081 
L 2069 0 
L 1313 0 
L 306 2944 
L -56 2944 
L -56 3322 
L 1825 3322 
L 1825 2944 
L 1434 2944 
L 2047 1147 
L 2791 3322 
L 3450 3322 
z
" transform="scale(0.015625)"/>
      <path id="DejaVuSerif-Bold-66" d="M 3097 4031 
L 2747 4031 
Q 2722 4275 2605 4394 
Q 2488 4513 2272 4513 
Q 2022 4513 1909 4333 
Q 1797 4153 1797 3750 
L 1797 3322 
L 2631 3322 
L 2631 2944 
L 1797 2944 
L 1797 378 
L 2438 378 
L 2438 0 
L 219 0 
L 219 378 
L 691 378 
L 691 2944 
L 197 2944 
L 197 3322 
L 691 3322 
L 691 3738 
Q 691 4291 1044 4577 
Q 1397 4863 2081 4863 
Q 2347 4863 2600 4833 
Q 2853 4803 3097 4744 
L 3097 4031 
z
" transform="scale(0.015625)"/>
      <path id="DejaVuSerif-Bold-72" d="M 3438 3359 
L 3438 2369 
L 3084 2369 
Q 3066 2634 2941 2764 
Q 2816 2894 2578 2894 
Q 2216 2894 2006 2575 
Q 1797 2256 1797 1691 
L 1797 378 
L 2400 378 
L 2400 0 
L 219 0 
L 219 378 
L 691 378 
L 691 2944 
L 184 2944 
L 184 3322 
L 1797 3322 
L 1797 2731 
Q 1959 3078 2226 3245 
Q 2494 3413 2881 3413 
Q 2978 3413 3117 3398 
Q 3256 3384 3438 3359 
z
" transform="scale(0.015625)"/>
      <path id="DejaVuSerif-Bold-74" d="M 634 2944 
L 153 2944 
L 153 3322 
L 634 3322 
L 634 4353 
L 1741 4353 
L 1741 3322 
L 2663 3322 
L 2663 2944 
L 1741 2944 
L 1741 909 
Q 1741 475 1809 369 
Q 1878 263 2059 263 
Q 2259 263 2356 397 
Q 2453 531 2459 813 
L 2925 813 
Q 2897 313 2651 111 
Q 2406 -91 1806 -91 
Q 1122 -91 878 123 
Q 634 338 634 909 
L 634 2944 
z
" transform="scale(0.015625)"/>
      <path id="DejaVuSerif-Bold-2c" d="M 84 -616 
Q 409 -353 562 -28 
Q 716 297 716 728 
L 716 997 
L 1606 997 
L 1606 972 
Q 1606 281 1317 -217 
Q 1028 -716 428 -1056 
L 84 -616 
z
" transform="scale(0.015625)"/>
      <path id="DejaVuSerif-Bold-68" d="M 219 0 
L 219 378 
L 691 378 
L 691 4488 
L 197 4488 
L 197 4863 
L 1797 4863 
L 1797 2853 
Q 1997 3150 2253 3281 
Q 2509 3413 2900 3413 
Q 3459 3413 3745 3083 
Q 4031 2753 4031 2113 
L 4031 378 
L 4506 378 
L 4506 0 
L 2522 0 
L 2522 378 
L 2925 378 
L 2925 2144 
Q 2925 2566 2817 2730 
Q 2709 2894 2444 2894 
Q 2109 2894 1953 2648 
Q 1797 2403 1797 1869 
L 1797 378 
L 2203 378 
L 2203 0 
L 219 0 
z
" transform="scale(0.015625)"/>
      <path id="DejaVuSerif-Bold-67" d="M 3853 2944 
L 3853 44 
Q 3853 -656 3354 -1039 
Q 2856 -1422 1947 -1422 
Q 1616 -1422 1275 -1370 
Q 934 -1319 575 -1216 
L 575 -422 
L 928 -422 
Q 975 -750 1192 -909 
Q 1409 -1069 1813 -1069 
Q 2325 -1069 2536 -823 
Q 2747 -578 2747 44 
L 2747 422 
Q 2606 163 2367 36 
Q 2128 -91 1778 -91 
Q 1072 -91 667 378 
Q 263 847 263 1663 
Q 263 2481 667 2947 
Q 1072 3413 1778 3413 
Q 2128 3413 2367 3286 
Q 2606 3159 2747 2900 
L 2747 3322 
L 4325 3322 
L 4325 2944 
L 3853 2944 
z
M 2747 1825 
Q 2747 2406 2597 2665 
Q 2447 2925 2119 2925 
Q 1775 2925 1636 2651 
Q 1497 2378 1497 1663 
Q 1497 947 1637 672 
Q 1778 397 2119 397 
Q 2447 397 2597 656 
Q 2747 916 2747 1497 
L 2747 1825 
z
" transform="scale(0.015625)"/>
      <path id="DejaVuSerif-Bold-79" d="M 1997 -750 
Q 1847 -1116 1634 -1269 
Q 1422 -1422 1063 -1422 
Q 909 -1422 721 -1387 
Q 534 -1353 313 -1288 
L 313 -594 
L 666 -597 
Q 675 -838 779 -953 
Q 884 -1069 1094 -1069 
Q 1297 -1069 1422 -958 
Q 1547 -847 1672 -538 
L 1722 -422 
L 275 2944 
L -84 2944 
L -84 3322 
L 1831 3322 
L 1831 2944 
L 1434 2944 
L 2278 978 
L 3066 2944 
L 2625 2944 
L 2625 3322 
L 3872 3322 
L 3872 2944 
L 3469 2944 
L 1997 -750 
z
" transform="scale(0.015625)"/>
      <path id="DejaVuSerif-Bold-29" d="M 325 -997 
L 325 -622 
Q 819 -322 1036 267 
Q 1253 856 1253 1931 
Q 1253 3009 1036 3598 
Q 819 4188 325 4488 
L 325 4863 
Q 1391 4450 1905 3731 
Q 2419 3013 2419 1931 
Q 2419 850 1898 122 
Q 1378 -606 325 -997 
z
" transform="scale(0.015625)"/>
     </defs>
     <use xlink:href="#DejaVuSerif-Bold-28"/>
     <use xlink:href="#DejaVuSerif-Bold-6c" x="47.314453"/>
     <use xlink:href="#DejaVuSerif-Bold-6f" x="85.302734"/>
     <use xlink:href="#DejaVuSerif-Bold-77" x="152.001953"/>
     <use xlink:href="#DejaVuSerif-Bold-20" x="238.085938"/>
     <use xlink:href="#DejaVuSerif-Bold-66" x="272.900391"/>
     <use xlink:href="#DejaVuSerif-Bold-72" x="315.917969"/>
     <use xlink:href="#DejaVuSerif-Bold-69" x="368.603516"/>
     <use xlink:href="#DejaVuSerif-Bold-63" x="406.591797"/>
     <use xlink:href="#DejaVuSerif-Bold-74" x="467.480469"/>
     <use xlink:href="#DejaVuSerif-Bold-69" x="513.671875"/>
     <use xlink:href="#DejaVuSerif-Bold-6f" x="551.660156"/>
     <use xlink:href="#DejaVuSerif-Bold-6e" x="618.359375"/>
     <use xlink:href="#DejaVuSerif-Bold-2c" x="691.064453"/>
     <use xlink:href="#DejaVuSerif-Bold-20" x="725.878906"/>
     <use xlink:href="#DejaVuSerif-Bold-68" x="760.693359"/>
     <use xlink:href="#DejaVuSerif-Bold-69" x="833.398438"/>
     <use xlink:href="#DejaVuSerif-Bold-67" x="871.386719"/>
     <use xlink:href="#DejaVuSerif-Bold-68" x="941.308594"/>
     <use xlink:href="#DejaVuSerif-Bold-20" x="1014.013672"/>
     <use xlink:href="#DejaVuSerif-Bold-6c" x="1048.828125"/>
     <use xlink:href="#DejaVuSerif-Bold-61" x="1086.816406"/>
     <use xlink:href="#DejaVuSerif-Bold-74" x="1151.611328"/>
     <use xlink:href="#DejaVuSerif-Bold-65" x="1197.802734"/>
     <use xlink:href="#DejaVuSerif-Bold-6e" x="1261.425781"/>
     <use xlink:href="#DejaVuSerif-Bold-63" x="1334.130859"/>
     <use xlink:href="#DejaVuSerif-Bold-79" x="1395.019531"/>
     <use xlink:href="#DejaVuSerif-Bold-29" x="1453.125"/>
    </g>
   </g>
   <g id="text_11">
    <!-- Gunpowder -->
    <g style="fill: #c0392b" transform="translate(644.663971 139.613416) scale(0.08 -0.08)">
     <defs>
      <path id="DejaVuSerif-Bold-47" d="M 4403 3200 
Q 4263 3819 3934 4095 
Q 3606 4372 3009 4372 
Q 2284 4372 1945 3880 
Q 1606 3388 1606 2328 
Q 1606 1278 1931 783 
Q 2256 288 2944 288 
Q 3206 288 3431 347 
Q 3656 406 3841 525 
L 3841 1806 
L 3278 1806 
L 3278 2181 
L 4959 2181 
L 4959 391 
Q 4434 147 3911 28 
Q 3388 -91 2841 -91 
Q 1641 -91 955 556 
Q 269 1203 269 2328 
Q 269 3456 955 4103 
Q 1641 4750 2841 4750 
Q 3341 4750 3825 4650 
Q 4309 4550 4800 4347 
L 4800 3200 
L 4403 3200 
z
" transform="scale(0.015625)"/>
      <path id="DejaVuSerif-Bold-75" d="M 3963 3322 
L 3963 378 
L 4434 378 
L 4434 0 
L 2853 0 
L 2853 469 
Q 2656 172 2400 40 
Q 2144 -91 1753 -91 
Q 1194 -91 908 239 
Q 622 569 622 1209 
L 622 2944 
L 147 2944 
L 147 3322 
L 1728 3322 
L 1728 1381 
Q 1728 763 1831 595 
Q 1934 428 2209 428 
Q 2544 428 2698 675 
Q 2853 922 2853 1459 
L 2853 2944 
L 2450 2944 
L 2450 3322 
L 3963 3322 
z
" transform="scale(0.015625)"/>
      <path id="DejaVuSerif-Bold-70" d="M 1728 1825 
L 1728 1497 
Q 1728 916 1876 656 
Q 2025 397 2356 397 
Q 2697 397 2836 672 
Q 2975 947 2975 1663 
Q 2975 2378 2836 2651 
Q 2697 2925 2356 2925 
Q 2025 2925 1876 2665 
Q 1728 2406 1728 1825 
z
M 622 2944 
L 147 2944 
L 147 3322 
L 1728 3322 
L 1728 2900 
Q 1869 3159 2106 3286 
Q 2344 3413 2694 3413 
Q 3403 3413 3811 2945 
Q 4219 2478 4219 1663 
Q 4219 847 3811 378 
Q 3403 -91 2694 -91 
Q 2344 -91 2106 36 
Q 1869 163 1728 422 
L 1728 -953 
L 2241 -953 
L 2241 -1331 
L 147 -1331 
L 147 -953 
L 622 -953 
L 622 2944 
z
" transform="scale(0.015625)"/>
      <path id="DejaVuSerif-Bold-64" d="M 2747 1497 
L 2747 1825 
Q 2747 2406 2597 2665 
Q 2447 2925 2119 2925 
Q 1775 2925 1636 2651 
Q 1497 2378 1497 1663 
Q 1497 947 1637 672 
Q 1778 397 2119 397 
Q 2447 397 2597 656 
Q 2747 916 2747 1497 
z
M 3853 378 
L 4325 378 
L 4325 0 
L 2747 0 
L 2747 422 
Q 2606 163 2367 36 
Q 2128 -91 1778 -91 
Q 1072 -91 667 378 
Q 263 847 263 1663 
Q 263 2481 667 2947 
Q 1072 3413 1778 3413 
Q 2128 3413 2367 3286 
Q 2606 3159 2747 2900 
L 2747 4488 
L 2272 4488 
L 2272 4863 
L 3853 4863 
L 3853 378 
z
" transform="scale(0.015625)"/>
     </defs>
     <use xlink:href="#DejaVuSerif-Bold-47"/>
     <use xlink:href="#DejaVuSerif-Bold-75" x="85.400391"/>
     <use xlink:href="#DejaVuSerif-Bold-6e" x="158.105469"/>
     <use xlink:href="#DejaVuSerif-Bold-70" x="230.810547"/>
     <use xlink:href="#DejaVuSerif-Bold-6f" x="300.732422"/>
     <use xlink:href="#DejaVuSerif-Bold-77" x="367.431641"/>
     <use xlink:href="#DejaVuSerif-Bold-64" x="453.515625"/>
     <use xlink:href="#DejaVuSerif-Bold-65" x="523.4375"/>
     <use xlink:href="#DejaVuSerif-Bold-72" x="587.060547"/>
    </g>
    <!-- (fortification collapses) -->
    <g style="fill: #c0392b" transform="translate(644.663971 148.571666) scale(0.08 -0.08)">
     <use xlink:href="#DejaVuSerif-Bold-28"/>
     <use xlink:href="#DejaVuSerif-Bold-66" x="47.314453"/>
     <use xlink:href="#DejaVuSerif-Bold-6f" x="90.332031"/>
     <use xlink:href="#DejaVuSerif-Bold-72" x="157.03125"/>
     <use xlink:href="#DejaVuSerif-Bold-74" x="209.716797"/>
     <use xlink:href="#DejaVuSerif-Bold-69" x="255.908203"/>
     <use xlink:href="#DejaVuSerif-Bold-66" x="293.896484"/>
     <use xlink:href="#DejaVuSerif-Bold-69" x="336.914062"/>
     <use xlink:href="#DejaVuSerif-Bold-63" x="374.902344"/>
     <use xlink:href="#DejaVuSerif-Bold-61" x="435.791016"/>
     <use xlink:href="#DejaVuSerif-Bold-74" x="500.585938"/>
     <use xlink:href="#DejaVuSerif-Bold-69" x="546.777344"/>
     <use xlink:href="#DejaVuSerif-Bold-6f" x="584.765625"/>
     <use xlink:href="#DejaVuSerif-Bold-6e" x="651.464844"/>
     <use xlink:href="#DejaVuSerif-Bold-20" x="724.169922"/>
     <use xlink:href="#DejaVuSerif-Bold-63" x="758.984375"/>
     <use xlink:href="#DejaVuSerif-Bold-6f" x="819.873047"/>
     <use xlink:href="#DejaVuSerif-Bold-6c" x="886.572266"/>
     <use xlink:href="#DejaVuSerif-Bold-6c" x="924.560547"/>
     <use xlink:href="#DejaVuSerif-Bold-61" x="962.548828"/>
     <use xlink:href="#DejaVuSerif-Bold-70" x="1027.34375"/>
     <use xlink:href="#DejaVuSerif-Bold-73" x="1097.265625"/>
     <use xlink:href="#DejaVuSerif-Bold-65" x="1153.564453"/>
     <use xlink:href="#DejaVuSerif-Bold-73" x="1217.1875"/>
     <use xlink:href="#DejaVuSerif-Bold-29" x="1273.486328"/>
    </g>
   </g>
   <g id="text_12">
    <!-- Telegraph -->
    <g style="fill: #c0392b" transform="translate(693.682014 187.685848) scale(0.08 -0.08)">
     <defs>
      <path id="DejaVuSerif-Bold-54" d="M 1159 0 
L 1159 378 
L 1778 378 
L 1778 4238 
L 500 4238 
L 500 3500 
L 72 3500 
L 72 4666 
L 4697 4666 
L 4697 3500 
L 4275 3500 
L 4275 4238 
L 2988 4238 
L 2988 378 
L 3609 378 
L 3609 0 
L 1159 0 
z
" transform="scale(0.015625)"/>
     </defs>
     <use xlink:href="#DejaVuSerif-Bold-54"/>
     <use xlink:href="#DejaVuSerif-Bold-65" x="62.914062"/>
     <use xlink:href="#DejaVuSerif-Bold-6c" x="126.537109"/>
     <use xlink:href="#DejaVuSerif-Bold-65" x="164.525391"/>
     <use xlink:href="#DejaVuSerif-Bold-67" x="228.148438"/>
     <use xlink:href="#DejaVuSerif-Bold-72" x="298.070312"/>
     <use xlink:href="#DejaVuSerif-Bold-61" x="350.755859"/>
     <use xlink:href="#DejaVuSerif-Bold-70" x="415.550781"/>
     <use xlink:href="#DejaVuSerif-Bold-68" x="485.472656"/>
    </g>
    <!-- (information friction collapses) -->
    <g style="fill: #c0392b" transform="translate(693.682014 196.757848) scale(0.08 -0.08)">
     <defs>
      <path id="DejaVuSerif-Bold-6d" d="M 3884 2778 
Q 4116 3109 4384 3261 
Q 4653 3413 5013 3413 
Q 5584 3413 5867 3089 
Q 6150 2766 6150 2113 
L 6150 378 
L 6625 378 
L 6625 0 
L 4647 0 
L 4647 378 
L 5044 378 
L 5044 1947 
Q 5044 2569 4948 2731 
Q 4853 2894 4594 2894 
Q 4300 2894 4137 2667 
Q 3975 2441 3975 2022 
L 3975 378 
L 4372 378 
L 4372 0 
L 2472 0 
L 2472 378 
L 2869 378 
L 2869 1947 
Q 2869 2569 2772 2731 
Q 2675 2894 2419 2894 
Q 2122 2894 1959 2667 
Q 1797 2441 1797 2022 
L 1797 378 
L 2194 378 
L 2194 0 
L 219 0 
L 219 378 
L 691 378 
L 691 2944 
L 219 2944 
L 219 3322 
L 1797 3322 
L 1797 2853 
Q 1991 3144 2241 3278 
Q 2491 3413 2834 3413 
Q 3241 3413 3494 3258 
Q 3747 3103 3884 2778 
z
" transform="scale(0.015625)"/>
     </defs>
     <use xlink:href="#DejaVuSerif-Bold-28"/>
     <use xlink:href="#DejaVuSerif-Bold-69" x="47.314453"/>
     <use xlink:href="#DejaVuSerif-Bold-6e" x="85.302734"/>
     <use xlink:href="#DejaVuSerif-Bold-66" x="158.007812"/>
     <use xlink:href="#DejaVuSerif-Bold-6f" x="201.025391"/>
     <use xlink:href="#DejaVuSerif-Bold-72" x="267.724609"/>
     <use xlink:href="#DejaVuSerif-Bold-6d" x="320.410156"/>
     <use xlink:href="#DejaVuSerif-Bold-61" x="426.220703"/>
     <use xlink:href="#DejaVuSerif-Bold-74" x="491.015625"/>
     <use xlink:href="#DejaVuSerif-Bold-69" x="537.207031"/>
     <use xlink:href="#DejaVuSerif-Bold-6f" x="575.195312"/>
     <use xlink:href="#DejaVuSerif-Bold-6e" x="641.894531"/>
     <use xlink:href="#DejaVuSerif-Bold-20" x="714.599609"/>
     <use xlink:href="#DejaVuSerif-Bold-66" x="749.414062"/>
     <use xlink:href="#DejaVuSerif-Bold-72" x="792.431641"/>
     <use xlink:href="#DejaVuSerif-Bold-69" x="845.117188"/>
     <use xlink:href="#DejaVuSerif-Bold-63" x="883.105469"/>
     <use xlink:href="#DejaVuSerif-Bold-74" x="943.994141"/>
     <use xlink:href="#DejaVuSerif-Bold-69" x="990.185547"/>
     <use xlink:href="#DejaVuSerif-Bold-6f" x="1028.173828"/>
     <use xlink:href="#DejaVuSerif-Bold-6e" x="1094.873047"/>
     <use xlink:href="#DejaVuSerif-Bold-20" x="1167.578125"/>
     <use xlink:href="#DejaVuSerif-Bold-63" x="1202.392578"/>
     <use xlink:href="#DejaVuSerif-Bold-6f" x="1263.28125"/>
     <use xlink:href="#DejaVuSerif-Bold-6c" x="1329.980469"/>
     <use xlink:href="#DejaVuSerif-Bold-6c" x="1367.96875"/>
     <use xlink:href="#DejaVuSerif-Bold-61" x="1405.957031"/>
     <use xlink:href="#DejaVuSerif-Bold-70" x="1470.751953"/>
     <use xlink:href="#DejaVuSerif-Bold-73" x="1540.673828"/>
     <use xlink:href="#DejaVuSerif-Bold-65" x="1596.972656"/>
     <use xlink:href="#DejaVuSerif-Bold-73" x="1660.595703"/>
     <use xlink:href="#DejaVuSerif-Bold-29" x="1716.894531"/>
    </g>
   </g>
   <g id="text_13">
    <!-- Railroad -->
    <g style="fill: #c0392b" transform="translate(696.331638 235.87203) scale(0.08 -0.08)">
     <defs>
      <path id="DejaVuSerif-Bold-52" d="M 3397 2278 
Q 3675 2238 3865 2094 
Q 4056 1950 4197 1678 
L 4878 378 
L 5356 378 
L 5356 0 
L 3822 0 
L 3078 1409 
Q 2863 1847 2711 1967 
Q 2559 2088 2291 2088 
L 2100 2088 
L 2100 378 
L 2700 378 
L 2700 0 
L 300 0 
L 300 378 
L 897 378 
L 897 4288 
L 300 4288 
L 300 4666 
L 2963 4666 
Q 3775 4666 4217 4339 
Q 4659 4013 4659 3413 
Q 4659 2925 4345 2642 
Q 4031 2359 3397 2278 
z
M 2100 2463 
L 2509 2463 
Q 2947 2463 3183 2700 
Q 3419 2938 3419 3378 
Q 3419 3819 3183 4053 
Q 2947 4288 2509 4288 
L 2100 4288 
L 2100 2463 
z
" transform="scale(0.015625)"/>
     </defs>
     <use xlink:href="#DejaVuSerif-Bold-52"/>
     <use xlink:href="#DejaVuSerif-Bold-61" x="85.355469"/>
     <use xlink:href="#DejaVuSerif-Bold-69" x="150.150391"/>
     <use xlink:href="#DejaVuSerif-Bold-6c" x="188.138672"/>
     <use xlink:href="#DejaVuSerif-Bold-72" x="226.126953"/>
     <use xlink:href="#DejaVuSerif-Bold-6f" x="278.8125"/>
     <use xlink:href="#DejaVuSerif-Bold-61" x="345.511719"/>
     <use xlink:href="#DejaVuSerif-Bold-64" x="410.306641"/>
    </g>
    <!-- (physical friction collapses) -->
    <g style="fill: #c0392b" transform="translate(696.331638 244.83028) scale(0.08 -0.08)">
     <use xlink:href="#DejaVuSerif-Bold-28"/>
     <use xlink:href="#DejaVuSerif-Bold-70" x="47.314453"/>
     <use xlink:href="#DejaVuSerif-Bold-68" x="117.236328"/>
     <use xlink:href="#DejaVuSerif-Bold-79" x="189.941406"/>
     <use xlink:href="#DejaVuSerif-Bold-73" x="248.046875"/>
     <use xlink:href="#DejaVuSerif-Bold-69" x="304.345703"/>
     <use xlink:href="#DejaVuSerif-Bold-63" x="342.333984"/>
     <use xlink:href="#DejaVuSerif-Bold-61" x="403.222656"/>
     <use xlink:href="#DejaVuSerif-Bold-6c" x="468.017578"/>
     <use xlink:href="#DejaVuSerif-Bold-20" x="506.005859"/>
     <use xlink:href="#DejaVuSerif-Bold-66" x="540.820312"/>
     <use xlink:href="#DejaVuSerif-Bold-72" x="583.837891"/>
     <use xlink:href="#DejaVuSerif-Bold-69" x="636.523438"/>
     <use xlink:href="#DejaVuSerif-Bold-63" x="674.511719"/>
     <use xlink:href="#DejaVuSerif-Bold-74" x="735.400391"/>
     <use xlink:href="#DejaVuSerif-Bold-69" x="781.591797"/>
     <use xlink:href="#DejaVuSerif-Bold-6f" x="819.580078"/>
     <use xlink:href="#DejaVuSerif-Bold-6e" x="886.279297"/>
     <use xlink:href="#DejaVuSerif-Bold-20" x="958.984375"/>
     <use xlink:href="#DejaVuSerif-Bold-63" x="993.798828"/>
     <use xlink:href="#DejaVuSerif-Bold-6f" x="1054.6875"/>
     <use xlink:href="#DejaVuSerif-Bold-6c" x="1121.386719"/>
     <use xlink:href="#DejaVuSerif-Bold-6c" x="1159.375"/>
     <use xlink:href="#DejaVuSerif-Bold-61" x="1197.363281"/>
     <use xlink:href="#DejaVuSerif-Bold-70" x="1262.158203"/>
     <use xlink:href="#DejaVuSerif-Bold-73" x="1332.080078"/>
     <use xlink:href="#DejaVuSerif-Bold-65" x="1388.378906"/>
     <use xlink:href="#DejaVuSerif-Bold-73" x="1452.001953"/>
     <use xlink:href="#DejaVuSerif-Bold-29" x="1508.300781"/>
    </g>
   </g>
   <g id="text_14">
    <!-- Internet -->
    <g style="fill: #c0392b" transform="translate(713.554194 272.011666) scale(0.08 -0.08)">
     <defs>
      <path id="DejaVuSerif-Bold-49" d="M 300 0 
L 300 378 
L 897 378 
L 897 4288 
L 300 4288 
L 300 4666 
L 2700 4666 
L 2700 4288 
L 2100 4288 
L 2100 378 
L 2700 378 
L 2700 0 
L 300 0 
z
" transform="scale(0.015625)"/>
     </defs>
     <use xlink:href="#DejaVuSerif-Bold-49"/>
     <use xlink:href="#DejaVuSerif-Bold-6e" x="46.777344"/>
     <use xlink:href="#DejaVuSerif-Bold-74" x="119.482422"/>
     <use xlink:href="#DejaVuSerif-Bold-65" x="165.673828"/>
     <use xlink:href="#DejaVuSerif-Bold-72" x="229.296875"/>
     <use xlink:href="#DejaVuSerif-Bold-6e" x="281.982422"/>
     <use xlink:href="#DejaVuSerif-Bold-65" x="354.6875"/>
     <use xlink:href="#DejaVuSerif-Bold-74" x="418.310547"/>
    </g>
    <!-- (information layer decouples) -->
    <g style="fill: #c0392b" transform="translate(713.554194 280.969916) scale(0.08 -0.08)">
     <use xlink:href="#DejaVuSerif-Bold-28"/>
     <use xlink:href="#DejaVuSerif-Bold-69" x="47.314453"/>
     <use xlink:href="#DejaVuSerif-Bold-6e" x="85.302734"/>
     <use xlink:href="#DejaVuSerif-Bold-66" x="158.007812"/>
     <use xlink:href="#DejaVuSerif-Bold-6f" x="201.025391"/>
     <use xlink:href="#DejaVuSerif-Bold-72" x="267.724609"/>
     <use xlink:href="#DejaVuSerif-Bold-6d" x="320.410156"/>
     <use xlink:href="#DejaVuSerif-Bold-61" x="426.220703"/>
     <use xlink:href="#DejaVuSerif-Bold-74" x="491.015625"/>
     <use xlink:href="#DejaVuSerif-Bold-69" x="537.207031"/>
     <use xlink:href="#DejaVuSerif-Bold-6f" x="575.195312"/>
     <use xlink:href="#DejaVuSerif-Bold-6e" x="641.894531"/>
     <use xlink:href="#DejaVuSerif-Bold-20" x="714.599609"/>
     <use xlink:href="#DejaVuSerif-Bold-6c" x="749.414062"/>
     <use xlink:href="#DejaVuSerif-Bold-61" x="787.402344"/>
     <use xlink:href="#DejaVuSerif-Bold-79" x="852.197266"/>
     <use xlink:href="#DejaVuSerif-Bold-65" x="910.302734"/>
     <use xlink:href="#DejaVuSerif-Bold-72" x="973.925781"/>
     <use xlink:href="#DejaVuSerif-Bold-20" x="1026.611328"/>
     <use xlink:href="#DejaVuSerif-Bold-64" x="1061.425781"/>
     <use xlink:href="#DejaVuSerif-Bold-65" x="1131.347656"/>
     <use xlink:href="#DejaVuSerif-Bold-63" x="1194.970703"/>
     <use xlink:href="#DejaVuSerif-Bold-6f" x="1255.859375"/>
     <use xlink:href="#DejaVuSerif-Bold-75" x="1322.558594"/>
     <use xlink:href="#DejaVuSerif-Bold-70" x="1395.263672"/>
     <use xlink:href="#DejaVuSerif-Bold-6c" x="1465.185547"/>
     <use xlink:href="#DejaVuSerif-Bold-65" x="1503.173828"/>
     <use xlink:href="#DejaVuSerif-Bold-73" x="1566.796875"/>
     <use xlink:href="#DejaVuSerif-Bold-29" x="1623.095703"/>
    </g>
   </g>
   <g id="text_15">
    <!-- Long stable periods -->
    <g style="fill: #7f8c8d" transform="translate(268.306993 79.796689) scale(0.09 -0.09)">
     <defs>
      <path id="DejaVuSerif-Italic-4c" d="M -97 0 
L -34 331 
L 559 331 
L 1338 4331 
L 744 4331 
L 809 4666 
L 2631 4666 
L 2566 4331 
L 1972 4331 
L 1206 384 
L 3338 384 
L 3488 1166 
L 3872 1166 
L 3647 0 
L -97 0 
z
" transform="scale(0.015625)"/>
      <path id="DejaVuSerif-Italic-6f" d="M 1644 219 
Q 2106 219 2414 584 
Q 2722 950 2859 1663 
Q 2922 1988 2922 2241 
Q 2922 2541 2834 2738 
Q 2669 3103 2206 3103 
Q 1744 3103 1436 2739 
Q 1128 2375 991 1663 
Q 928 1338 928 1088 
Q 928 784 1019 584 
Q 1184 219 1644 219 
z
M 1584 -91 
Q 859 -91 513 388 
Q 272 722 272 1203 
Q 272 1419 319 1663 
Q 472 2456 1005 2934 
Q 1538 3413 2266 3413 
Q 2994 3413 3341 2934 
Q 3578 2603 3578 2122 
Q 3578 1906 3531 1663 
Q 3378 869 2845 389 
Q 2313 -91 1584 -91 
z
" transform="scale(0.015625)"/>
      <path id="DejaVuSerif-Italic-6e" d="M 450 0 
L 1031 2988 
L 481 2988 
L 544 3322 
L 1669 3322 
L 1556 2731 
Q 1781 3069 2068 3241 
Q 2356 3413 2694 3413 
Q 3244 3413 3444 3097 
Q 3563 2906 3563 2588 
Q 3563 2378 3509 2113 
L 3163 331 
L 3675 331 
L 3613 0 
L 2522 0 
L 2897 1931 
Q 2959 2253 2959 2469 
Q 2959 2659 2909 2769 
Q 2803 2994 2425 2994 
Q 2025 2994 1759 2701 
Q 1494 2409 1384 1850 
L 1025 0 
L 450 0 
z
" transform="scale(0.015625)"/>
      <path id="DejaVuSerif-Italic-67" d="M 3822 3322 
L 3188 72 
Q 3044 -672 2581 -1031 
Q 2078 -1422 1381 -1422 
Q 1053 -1422 765 -1362 
Q 478 -1303 225 -1184 
L 363 -488 
L 663 -488 
Q 653 -813 834 -963 
Q 1016 -1113 1406 -1113 
Q 1913 -1113 2203 -825 
Q 2494 -544 2613 72 
L 2700 519 
Q 2472 206 2181 57 
Q 1891 -91 1525 -91 
Q 975 -91 697 281 
Q 522 516 503 841 
Q 491 1031 534 1256 
Q 750 2359 1516 2928 
Q 2169 3409 2931 3413 
Q 3631 3416 3822 3322 
z
M 3184 2988 
Q 3181 3094 2844 3094 
Q 2234 3094 1775 2625 
Q 1316 2153 1147 1297 
Q 1100 1044 1113 853 
Q 1125 659 1203 528 
Q 1356 269 1756 269 
Q 2194 269 2484 583 
Q 2775 897 2891 1497 
L 2953 1825 
L 3184 2988 
z
" transform="scale(0.015625)"/>
      <path id="DejaVuSerif-Italic-20" transform="scale(0.015625)"/>
      <path id="DejaVuSerif-Italic-73" d="M 222 959 
L 553 959 
Q 541 869 541 788 
Q 541 219 1313 219 
Q 2088 219 2200 788 
Q 2209 844 2209 944 
Q 2209 1041 2103 1158 
Q 1997 1275 1550 1428 
L 1159 1569 
Q 759 1706 629 1882 
Q 500 2059 500 2263 
Q 500 2344 516 2438 
Q 606 2894 990 3153 
Q 1375 3413 1931 3413 
Q 2484 3413 3066 3144 
L 2925 2419 
L 2594 2419 
Q 2606 2491 2606 2553 
Q 2606 2781 2448 2942 
Q 2291 3103 1925 3103 
Q 1191 3103 1091 2591 
Q 1078 2538 1078 2444 
Q 1078 2347 1179 2237 
Q 1281 2128 1678 1997 
L 2106 1856 
Q 2550 1709 2716 1488 
Q 2831 1331 2831 1178 
Q 2831 522 2306 181 
Q 1894 -91 1262 -91 
Q 631 -91 72 184 
L 222 959 
z
" transform="scale(0.015625)"/>
      <path id="DejaVuSerif-Italic-74" d="M 856 2988 
L 350 2988 
L 416 3322 
L 922 3322 
L 1122 4353 
L 1700 4353 
L 1500 3322 
L 2581 3322 
L 2516 2988 
L 1434 2988 
L 1025 878 
Q 978 631 978 488 
Q 978 388 1000 338 
Q 1059 219 1278 219 
Q 1503 219 1633 351 
Q 1763 484 1825 781 
L 2259 781 
Q 2147 328 1884 118 
Q 1622 -91 1169 -91 
Q 672 -91 506 131 
Q 406 266 406 516 
Q 406 675 447 878 
L 856 2988 
z
" transform="scale(0.015625)"/>
      <path id="DejaVuSerif-Italic-61" d="M 2325 519 
Q 1909 -91 1238 -91 
Q 688 -91 409 281 
Q 216 544 216 919 
Q 216 1078 250 1256 
Q 463 2359 1231 2928 
Q 1884 3413 2675 3413 
Q 3206 3413 3388 3322 
L 2806 331 
L 3300 331 
L 3238 0 
L 2225 0 
L 2325 519 
z
M 822 938 
Q 822 269 1469 269 
Q 1863 269 2130 583 
Q 2397 897 2516 1497 
L 2806 3003 
L 2806 3003 
Q 2806 3094 2556 3094 
Q 1956 3094 1491 2625 
Q 1028 2153 863 1297 
Q 822 1097 822 938 
z
" transform="scale(0.015625)"/>
      <path id="DejaVuSerif-Italic-62" d="M 1153 4531 
L 600 4531 
L 666 4863 
L 1794 4863 
L 1394 2803 
Q 1622 3116 1912 3264 
Q 2203 3413 2588 3413 
Q 3200 3413 3494 2928 
Q 3688 2609 3688 2163 
Q 3688 1928 3634 1663 
Q 3481 881 3000 395 
Q 2519 -91 1906 -91 
Q 1522 -91 1289 57 
Q 1056 206 950 519 
L 850 0 
L 275 0 
L 1153 4531 
z
M 1141 1497 
Q 1091 1250 1091 1053 
Q 1091 769 1191 581 
Q 1359 269 1797 269 
Q 2238 269 2533 622 
Q 2828 975 2963 1663 
Q 3025 1978 3025 2225 
Q 3025 2513 2938 2703 
Q 2781 3053 2338 3053 
Q 1900 3053 1609 2737 
Q 1319 2422 1203 1825 
L 1141 1497 
z
" transform="scale(0.015625)"/>
      <path id="DejaVuSerif-Italic-6c" d="M 903 331 
L 1447 331 
L 1384 0 
L 266 0 
L 1147 4531 
L 594 4531 
L 656 4863 
L 1784 4863 
L 903 331 
z
" transform="scale(0.015625)"/>
      <path id="DejaVuSerif-Italic-65" d="M 938 1275 
Q 925 1156 925 1050 
Q 925 756 1031 563 
Q 1216 219 1709 219 
Q 2072 219 2250 328 
Q 2569 525 2644 778 
L 3066 778 
Q 2941 381 2475 103 
Q 2150 -91 1506 -91 
Q 863 -91 516 388 
Q 272 722 272 1206 
Q 272 1419 319 1659 
Q 472 2450 1000 2931 
Q 1528 3413 2278 3413 
Q 3500 3413 3500 2547 
Q 3500 1913 2859 1603 
Q 2206 1288 938 1275 
z
M 2541 1975 
Q 2891 2181 2891 2569 
Q 2891 3103 2181 3103 
Q 1763 3103 1472 2784 
Q 1181 2466 1003 1606 
Q 2006 1653 2541 1975 
z
" transform="scale(0.015625)"/>
      <path id="DejaVuSerif-Italic-70" d="M 1466 1825 
L 1400 1497 
Q 1353 1250 1353 1053 
Q 1353 769 1453 581 
Q 1622 269 2059 269 
Q 2500 269 2795 622 
Q 3091 975 3225 1663 
Q 3284 1978 3284 2225 
Q 3284 2513 3200 2703 
Q 3041 3053 2600 3053 
Q 2163 3053 1872 2737 
Q 1581 2422 1466 1825 
z
M 1116 2988 
L 563 2988 
L 628 3322 
L 1756 3322 
L 1656 2803 
Q 1884 3116 2175 3264 
Q 2466 3413 2850 3413 
Q 3463 3413 3753 2928 
Q 3947 2609 3947 2163 
Q 3947 1928 3897 1663 
Q 3744 881 3262 395 
Q 2781 -91 2169 -91 
Q 1784 -91 1551 57 
Q 1319 206 1213 519 
L 850 -1331 
L 275 -1331 
L 1116 2988 
z
" transform="scale(0.015625)"/>
      <path id="DejaVuSerif-Italic-72" d="M 3375 3328 
L 3213 2497 
L 2881 2497 
Q 2891 2559 2891 2613 
Q 2891 2775 2816 2866 
Q 2719 2988 2484 2988 
Q 2059 2988 1775 2694 
Q 1491 2400 1384 1850 
L 1025 0 
L 450 0 
L 1031 2994 
L 481 2994 
L 544 3322 
L 1669 3322 
L 1556 2731 
Q 1791 3078 2089 3245 
Q 2388 3413 2769 3413 
Q 2909 3413 3059 3391 
Q 3209 3369 3375 3328 
z
" transform="scale(0.015625)"/>
      <path id="DejaVuSerif-Italic-69" d="M 1009 4353 
Q 1038 4497 1163 4603 
Q 1288 4709 1434 4709 
Q 1578 4709 1663 4603 
Q 1728 4522 1728 4422 
Q 1728 4388 1719 4353 
Q 1691 4206 1567 4103 
Q 1444 4000 1297 4000 
Q 1150 4000 1066 4103 
Q 1003 4181 1003 4281 
Q 1003 4316 1009 4353 
z
M 963 331 
L 1506 331 
L 1444 0 
L 325 0 
L 903 2988 
L 353 2988 
L 419 3322 
L 1544 3322 
L 963 331 
z
" transform="scale(0.015625)"/>
      <path id="DejaVuSerif-Italic-64" d="M 3841 4863 
L 2897 0 
L 2322 0 
L 2422 519 
Q 2191 206 1902 57 
Q 1613 -91 1228 -91 
Q 616 -91 322 394 
Q 125 716 125 1166 
Q 125 1397 178 1663 
Q 331 2444 812 2928 
Q 1294 3413 1909 3413 
Q 2294 3413 2525 3264 
Q 2756 3116 2866 2803 
L 3200 4531 
L 2656 4531 
L 2722 4863 
L 3841 4863 
z
M 2613 1497 
L 2675 1825 
Q 2722 2069 2722 2266 
Q 2722 2550 2622 2738 
Q 2456 3053 2019 3053 
Q 1575 3053 1279 2703 
Q 984 2353 850 1663 
Q 788 1347 788 1103 
Q 788 813 875 622 
Q 1031 269 1475 269 
Q 1913 269 2203 583 
Q 2494 897 2613 1497 
z
" transform="scale(0.015625)"/>
     </defs>
     <use xlink:href="#DejaVuSerif-Italic-4c"/>
     <use xlink:href="#DejaVuSerif-Italic-6f" x="66.40625"/>
     <use xlink:href="#DejaVuSerif-Italic-6e" x="126.611328"/>
     <use xlink:href="#DejaVuSerif-Italic-67" x="191.015625"/>
     <use xlink:href="#DejaVuSerif-Italic-20" x="255.029297"/>
     <use xlink:href="#DejaVuSerif-Italic-73" x="286.816406"/>
     <use xlink:href="#DejaVuSerif-Italic-74" x="338.134766"/>
     <use xlink:href="#DejaVuSerif-Italic-61" x="378.320312"/>
     <use xlink:href="#DejaVuSerif-Italic-62" x="437.939453"/>
     <use xlink:href="#DejaVuSerif-Italic-6c" x="501.953125"/>
     <use xlink:href="#DejaVuSerif-Italic-65" x="533.935547"/>
     <use xlink:href="#DejaVuSerif-Italic-20" x="593.115234"/>
     <use xlink:href="#DejaVuSerif-Italic-70" x="624.902344"/>
     <use xlink:href="#DejaVuSerif-Italic-65" x="688.916016"/>
     <use xlink:href="#DejaVuSerif-Italic-72" x="748.095703"/>
     <use xlink:href="#DejaVuSerif-Italic-69" x="795.898438"/>
     <use xlink:href="#DejaVuSerif-Italic-6f" x="827.880859"/>
     <use xlink:href="#DejaVuSerif-Italic-64" x="888.085938"/>
     <use xlink:href="#DejaVuSerif-Italic-73" x="952.099609"/>
    </g>
    <!-- where geography holds -->
    <g style="fill: #7f8c8d" transform="translate(259.846993 90.002689) scale(0.09 -0.09)">
     <defs>
      <path id="DejaVuSerif-Italic-77" d="M 3741 728 
Q 4156 1178 4250 1344 
Q 4594 1969 4931 2988 
L 4447 2984 
L 4513 3322 
L 5347 3322 
L 5281 2984 
L 5278 2984 
Q 4959 1825 4656 1266 
Q 4209 469 3719 0 
L 3241 0 
L 2900 2484 
L 1597 0 
L 1138 0 
L 734 2988 
L 359 2981 
L 425 3322 
L 1281 3322 
L 1631 728 
L 2991 3322 
L 3394 3322 
L 3741 728 
z
" transform="scale(0.015625)"/>
      <path id="DejaVuSerif-Italic-68" d="M 309 0 
L 1191 4531 
L 641 4531 
L 703 4863 
L 1828 4863 
L 1416 2731 
Q 1641 3069 1928 3241 
Q 2216 3413 2553 3413 
Q 3103 3413 3300 3097 
Q 3422 2906 3422 2588 
Q 3422 2378 3369 2113 
L 3022 331 
L 3534 331 
L 3472 0 
L 2381 0 
L 2756 1931 
Q 2819 2253 2819 2469 
Q 2819 2659 2769 2763 
Q 2666 2988 2284 2988 
Q 1884 2988 1617 2697 
Q 1350 2406 1244 1850 
L 884 0 
L 309 0 
z
" transform="scale(0.015625)"/>
      <path id="DejaVuSerif-Italic-79" d="M 3681 3294 
Q 3372 1506 2828 563 
Q 2031 -822 1391 -1238 
Q 1106 -1422 356 -1422 
Q 209 -1422 60 -1397 
Q -88 -1372 -238 -1325 
L -113 -691 
L 181 -691 
Q 175 -741 175 -788 
Q 175 -919 231 -994 
Q 309 -1100 513 -1100 
Q 1063 -1100 1541 -622 
L 756 2988 
L 378 2988 
L 444 3322 
L 1303 3322 
L 2041 25 
Q 2544 778 2666 1088 
Q 3059 2059 3138 2959 
L 2759 2959 
L 2825 3294 
L 3681 3294 
z
" transform="scale(0.015625)"/>
     </defs>
     <use xlink:href="#DejaVuSerif-Italic-77"/>
     <use xlink:href="#DejaVuSerif-Italic-68" x="85.595703"/>
     <use xlink:href="#DejaVuSerif-Italic-65" x="150"/>
     <use xlink:href="#DejaVuSerif-Italic-72" x="209.179688"/>
     <use xlink:href="#DejaVuSerif-Italic-65" x="256.982422"/>
     <use xlink:href="#DejaVuSerif-Italic-20" x="316.162109"/>
     <use xlink:href="#DejaVuSerif-Italic-67" x="347.949219"/>
     <use xlink:href="#DejaVuSerif-Italic-65" x="411.962891"/>
     <use xlink:href="#DejaVuSerif-Italic-6f" x="471.142578"/>
     <use xlink:href="#DejaVuSerif-Italic-67" x="531.347656"/>
     <use xlink:href="#DejaVuSerif-Italic-72" x="595.361328"/>
     <use xlink:href="#DejaVuSerif-Italic-61" x="643.164062"/>
     <use xlink:href="#DejaVuSerif-Italic-70" x="702.783203"/>
     <use xlink:href="#DejaVuSerif-Italic-68" x="766.796875"/>
     <use xlink:href="#DejaVuSerif-Italic-79" x="831.201172"/>
     <use xlink:href="#DejaVuSerif-Italic-20" x="887.695312"/>
     <use xlink:href="#DejaVuSerif-Italic-68" x="919.482422"/>
     <use xlink:href="#DejaVuSerif-Italic-6f" x="983.886719"/>
     <use xlink:href="#DejaVuSerif-Italic-6c" x="1044.091797"/>
     <use xlink:href="#DejaVuSerif-Italic-64" x="1076.074219"/>
     <use xlink:href="#DejaVuSerif-Italic-73" x="1140.087891"/>
    </g>
   </g>
   <g id="text_16">
    <!-- Each drop changes -->
    <g style="fill: #c0392b" transform="translate(656.585058 168.941125) scale(0.09 -0.09)">
     <defs>
      <path id="DejaVuSerif-Italic-45" d="M -97 0 
L -34 331 
L 559 331 
L 1338 4331 
L 744 4331 
L 809 4666 
L 4566 4666 
L 4366 3628 
L 3981 3628 
L 4106 4281 
L 1963 4281 
L 1659 2719 
L 3188 2719 
L 3300 3303 
L 3684 3303 
L 3384 1753 
L 3000 1753 
L 3113 2338 
L 1584 2338 
L 1206 384 
L 3400 384 
L 3525 1038 
L 3909 1038 
L 3709 0 
L -97 0 
z
" transform="scale(0.015625)"/>
      <path id="DejaVuSerif-Italic-63" d="M 3163 997 
Q 2938 466 2536 187 
Q 2134 -91 1584 -91 
Q 859 -91 513 388 
Q 272 722 272 1203 
Q 272 1419 319 1663 
Q 475 2459 1008 2936 
Q 1541 3413 2266 3413 
Q 2581 3413 2879 3339 
Q 3178 3266 3463 3116 
L 3300 2266 
L 2966 2266 
Q 2966 2309 2966 2347 
Q 2966 2722 2803 2903 
Q 2622 3103 2213 3103 
Q 1747 3103 1439 2742 
Q 1131 2381 991 1663 
Q 928 1334 928 1078 
Q 928 778 1016 581 
Q 1181 219 1650 219 
Q 2022 219 2281 412 
Q 2541 606 2700 997 
L 3163 997 
z
" transform="scale(0.015625)"/>
     </defs>
     <use xlink:href="#DejaVuSerif-Italic-45"/>
     <use xlink:href="#DejaVuSerif-Italic-61" x="72.998047"/>
     <use xlink:href="#DejaVuSerif-Italic-63" x="132.617188"/>
     <use xlink:href="#DejaVuSerif-Italic-68" x="188.623047"/>
     <use xlink:href="#DejaVuSerif-Italic-20" x="253.027344"/>
     <use xlink:href="#DejaVuSerif-Italic-64" x="284.814453"/>
     <use xlink:href="#DejaVuSerif-Italic-72" x="348.828125"/>
     <use xlink:href="#DejaVuSerif-Italic-6f" x="396.630859"/>
     <use xlink:href="#DejaVuSerif-Italic-70" x="456.835938"/>
     <use xlink:href="#DejaVuSerif-Italic-20" x="520.849609"/>
     <use xlink:href="#DejaVuSerif-Italic-63" x="552.636719"/>
     <use xlink:href="#DejaVuSerif-Italic-68" x="608.642578"/>
     <use xlink:href="#DejaVuSerif-Italic-61" x="673.046875"/>
     <use xlink:href="#DejaVuSerif-Italic-6e" x="732.666016"/>
     <use xlink:href="#DejaVuSerif-Italic-67" x="797.070312"/>
     <use xlink:href="#DejaVuSerif-Italic-65" x="861.083984"/>
     <use xlink:href="#DejaVuSerif-Italic-73" x="920.263672"/>
    </g>
    <!-- who the terrain serves -->
    <g style="fill: #c0392b" transform="translate(648.753652 179.147125) scale(0.09 -0.09)">
     <defs>
      <path id="DejaVuSerif-Italic-76" d="M 1681 0 
L 1259 0 
L 619 2988 
L 241 2988 
L 303 3322 
L 1163 3322 
L 1725 703 
Q 2084 1016 2325 1413 
Q 2825 2238 3003 2988 
L 2622 2988 
L 2688 3322 
L 3547 3322 
Q 3206 2034 2775 1313 
Q 2400 688 1681 0 
z
" transform="scale(0.015625)"/>
     </defs>
     <use xlink:href="#DejaVuSerif-Italic-77"/>
     <use xlink:href="#DejaVuSerif-Italic-68" x="85.595703"/>
     <use xlink:href="#DejaVuSerif-Italic-6f" x="150"/>
     <use xlink:href="#DejaVuSerif-Italic-20" x="210.205078"/>
     <use xlink:href="#DejaVuSerif-Italic-74" x="241.992188"/>
     <use xlink:href="#DejaVuSerif-Italic-68" x="282.177734"/>
     <use xlink:href="#DejaVuSerif-Italic-65" x="346.582031"/>
     <use xlink:href="#DejaVuSerif-Italic-20" x="405.761719"/>
     <use xlink:href="#DejaVuSerif-Italic-74" x="437.548828"/>
     <use xlink:href="#DejaVuSerif-Italic-65" x="477.734375"/>
     <use xlink:href="#DejaVuSerif-Italic-72" x="536.914062"/>
     <use xlink:href="#DejaVuSerif-Italic-72" x="584.716797"/>
     <use xlink:href="#DejaVuSerif-Italic-61" x="632.519531"/>
     <use xlink:href="#DejaVuSerif-Italic-69" x="692.138672"/>
     <use xlink:href="#DejaVuSerif-Italic-6e" x="724.121094"/>
     <use xlink:href="#DejaVuSerif-Italic-20" x="788.525391"/>
     <use xlink:href="#DejaVuSerif-Italic-73" x="820.3125"/>
     <use xlink:href="#DejaVuSerif-Italic-65" x="871.630859"/>
     <use xlink:href="#DejaVuSerif-Italic-72" x="930.810547"/>
     <use xlink:href="#DejaVuSerif-Italic-76" x="978.613281"/>
     <use xlink:href="#DejaVuSerif-Italic-65" x="1035.107422"/>
     <use xlink:href="#DejaVuSerif-Italic-73" x="1094.287109"/>
    </g>
   </g>
   <g id="text_17">
    <!-- Friction Collapse as Punctuated Equilibrium -->
    <g transform="translate(207.365018 17.077969) scale(0.13 -0.13)">
     <defs>
      <path id="DejaVuSerif-Bold-46" d="M 300 0 
L 300 378 
L 897 378 
L 897 4288 
L 300 4288 
L 300 4666 
L 4459 4666 
L 4459 3566 
L 4031 3566 
L 4031 4238 
L 2106 4238 
L 2106 2741 
L 3291 2741 
L 3291 3334 
L 3719 3334 
L 3719 1722 
L 3291 1722 
L 3291 2316 
L 2106 2316 
L 2106 378 
L 2841 378 
L 2841 0 
L 300 0 
z
" transform="scale(0.015625)"/>
      <path id="DejaVuSerif-Bold-43" d="M 4769 1331 
Q 4584 609 4106 259 
Q 3628 -91 2822 -91 
Q 1641 -91 955 561 
Q 269 1213 269 2328 
Q 269 3447 955 4098 
Q 1641 4750 2822 4750 
Q 3238 4750 3688 4650 
Q 4138 4550 4641 4347 
L 4641 3200 
L 4244 3200 
Q 4122 3788 3800 4080 
Q 3478 4372 2950 4372 
Q 2269 4372 1937 3870 
Q 1606 3369 1606 2328 
Q 1606 1288 1937 788 
Q 2269 288 2956 288 
Q 3422 288 3717 547 
Q 4013 806 4147 1331 
L 4769 1331 
z
" transform="scale(0.015625)"/>
      <path id="DejaVuSerif-Bold-50" d="M 300 0 
L 300 378 
L 897 378 
L 897 4288 
L 300 4288 
L 300 4666 
L 2956 4666 
Q 3734 4666 4193 4295 
Q 4653 3925 4653 3303 
Q 4653 2678 4192 2304 
Q 3731 1931 2956 1931 
L 2100 1931 
L 2100 378 
L 2853 378 
L 2853 0 
L 300 0 
z
M 2100 2309 
L 2450 2309 
Q 2856 2309 3098 2579 
Q 3341 2850 3341 3303 
Q 3341 3753 3100 4020 
Q 2859 4288 2450 4288 
L 2100 4288 
L 2100 2309 
z
" transform="scale(0.015625)"/>
      <path id="DejaVuSerif-Bold-45" d="M 300 0 
L 300 378 
L 897 378 
L 897 4288 
L 300 4288 
L 300 4666 
L 4494 4666 
L 4494 3566 
L 4063 3566 
L 4063 4238 
L 2100 4238 
L 2100 2741 
L 3322 2741 
L 3322 3334 
L 3750 3334 
L 3750 1722 
L 3322 1722 
L 3322 2316 
L 2100 2316 
L 2100 428 
L 4122 428 
L 4122 1100 
L 4550 1100 
L 4550 0 
L 300 0 
z
" transform="scale(0.015625)"/>
      <path id="DejaVuSerif-Bold-71" d="M 3853 2944 
L 3853 -953 
L 4325 -953 
L 4325 -1331 
L 2234 -1331 
L 2234 -953 
L 2747 -953 
L 2747 422 
Q 2606 163 2367 36 
Q 2128 -91 1778 -91 
Q 1072 -91 667 378 
Q 263 847 263 1663 
Q 263 2481 667 2947 
Q 1072 3413 1778 3413 
Q 2128 3413 2367 3286 
Q 2606 3159 2747 2900 
L 2747 3322 
L 4325 3322 
L 4325 2944 
L 3853 2944 
z
M 2747 1825 
Q 2747 2406 2597 2665 
Q 2447 2925 2119 2925 
Q 1775 2925 1636 2651 
Q 1497 2378 1497 1663 
Q 1497 947 1637 672 
Q 1778 397 2119 397 
Q 2447 397 2597 656 
Q 2747 916 2747 1497 
L 2747 1825 
z
" transform="scale(0.015625)"/>
      <path id="DejaVuSerif-Bold-62" d="M 622 378 
L 622 4488 
L 147 4488 
L 147 4863 
L 1728 4863 
L 1728 2900 
Q 1869 3159 2106 3286 
Q 2344 3413 2694 3413 
Q 3403 3413 3811 2945 
Q 4219 2478 4219 1663 
Q 4219 847 3811 378 
Q 3403 -91 2694 -91 
Q 2344 -91 2106 36 
Q 1869 163 1728 422 
L 1728 0 
L 147 0 
L 147 378 
L 622 378 
z
M 1728 1497 
Q 1728 916 1876 656 
Q 2025 397 2356 397 
Q 2697 397 2836 672 
Q 2975 947 2975 1663 
Q 2975 2378 2836 2651 
Q 2697 2925 2356 2925 
Q 2025 2925 1876 2665 
Q 1728 2406 1728 1825 
L 1728 1497 
z
" transform="scale(0.015625)"/>
     </defs>
     <use xlink:href="#DejaVuSerif-Bold-46"/>
     <use xlink:href="#DejaVuSerif-Bold-72" x="69.246094"/>
     <use xlink:href="#DejaVuSerif-Bold-69" x="121.931641"/>
     <use xlink:href="#DejaVuSerif-Bold-63" x="159.919922"/>
     <use xlink:href="#DejaVuSerif-Bold-74" x="220.808594"/>
     <use xlink:href="#DejaVuSerif-Bold-69" x="267"/>
     <use xlink:href="#DejaVuSerif-Bold-6f" x="304.988281"/>
     <use xlink:href="#DejaVuSerif-Bold-6e" x="371.6875"/>
     <use xlink:href="#DejaVuSerif-Bold-20" x="444.392578"/>
     <use xlink:href="#DejaVuSerif-Bold-43" x="479.207031"/>
     <use xlink:href="#DejaVuSerif-Bold-6f" x="558.796875"/>
     <use xlink:href="#DejaVuSerif-Bold-6c" x="625.496094"/>
     <use xlink:href="#DejaVuSerif-Bold-6c" x="663.484375"/>
     <use xlink:href="#DejaVuSerif-Bold-61" x="701.472656"/>
     <use xlink:href="#DejaVuSerif-Bold-70" x="766.267578"/>
     <use xlink:href="#DejaVuSerif-Bold-73" x="836.189453"/>
     <use xlink:href="#DejaVuSerif-Bold-65" x="892.488281"/>
     <use xlink:href="#DejaVuSerif-Bold-20" x="956.111328"/>
     <use xlink:href="#DejaVuSerif-Bold-61" x="990.925781"/>
     <use xlink:href="#DejaVuSerif-Bold-73" x="1055.720703"/>
     <use xlink:href="#DejaVuSerif-Bold-20" x="1112.019531"/>
     <use xlink:href="#DejaVuSerif-Bold-50" x="1146.833984"/>
     <use xlink:href="#DejaVuSerif-Bold-75" x="1222.029297"/>
     <use xlink:href="#DejaVuSerif-Bold-6e" x="1294.734375"/>
     <use xlink:href="#DejaVuSerif-Bold-63" x="1367.439453"/>
     <use xlink:href="#DejaVuSerif-Bold-74" x="1428.328125"/>
     <use xlink:href="#DejaVuSerif-Bold-75" x="1474.519531"/>
     <use xlink:href="#DejaVuSerif-Bold-61" x="1547.224609"/>
     <use xlink:href="#DejaVuSerif-Bold-74" x="1612.019531"/>
     <use xlink:href="#DejaVuSerif-Bold-65" x="1658.210938"/>
     <use xlink:href="#DejaVuSerif-Bold-64" x="1721.833984"/>
     <use xlink:href="#DejaVuSerif-Bold-20" x="1791.755859"/>
     <use xlink:href="#DejaVuSerif-Bold-45" x="1826.570312"/>
     <use xlink:href="#DejaVuSerif-Bold-71" x="1902.791016"/>
     <use xlink:href="#DejaVuSerif-Bold-75" x="1972.712891"/>
     <use xlink:href="#DejaVuSerif-Bold-69" x="2045.417969"/>
     <use xlink:href="#DejaVuSerif-Bold-6c" x="2083.40625"/>
     <use xlink:href="#DejaVuSerif-Bold-69" x="2121.394531"/>
     <use xlink:href="#DejaVuSerif-Bold-62" x="2159.382812"/>
     <use xlink:href="#DejaVuSerif-Bold-72" x="2229.304688"/>
     <use xlink:href="#DejaVuSerif-Bold-69" x="2281.990234"/>
     <use xlink:href="#DejaVuSerif-Bold-75" x="2319.978516"/>
     <use xlink:href="#DejaVuSerif-Bold-6d" x="2392.683594"/>
    </g>
    <!-- Geography holds — then technology resets the distribution -->
    <g transform="translate(154.588065 31.635125) scale(0.13 -0.13)">
     <defs>
      <path id="DejaVuSerif-Bold-2014" d="M 344 2075 
L 6056 2075 
L 6056 1325 
L 344 1325 
L 344 2075 
z
" transform="scale(0.015625)"/>
     </defs>
     <use xlink:href="#DejaVuSerif-Bold-47"/>
     <use xlink:href="#DejaVuSerif-Bold-65" x="85.400391"/>
     <use xlink:href="#DejaVuSerif-Bold-6f" x="149.023438"/>
     <use xlink:href="#DejaVuSerif-Bold-67" x="215.722656"/>
     <use xlink:href="#DejaVuSerif-Bold-72" x="285.644531"/>
     <use xlink:href="#DejaVuSerif-Bold-61" x="338.330078"/>
     <use xlink:href="#DejaVuSerif-Bold-70" x="403.125"/>
     <use xlink:href="#DejaVuSerif-Bold-68" x="473.046875"/>
     <use xlink:href="#DejaVuSerif-Bold-79" x="545.751953"/>
     <use xlink:href="#DejaVuSerif-Bold-20" x="603.857422"/>
     <use xlink:href="#DejaVuSerif-Bold-68" x="638.671875"/>
     <use xlink:href="#DejaVuSerif-Bold-6f" x="711.376953"/>
     <use xlink:href="#DejaVuSerif-Bold-6c" x="778.076172"/>
     <use xlink:href="#DejaVuSerif-Bold-64" x="816.064453"/>
     <use xlink:href="#DejaVuSerif-Bold-73" x="885.986328"/>
     <use xlink:href="#DejaVuSerif-Bold-20" x="942.285156"/>
     <use xlink:href="#DejaVuSerif-Bold-2014" x="977.099609"/>
     <use xlink:href="#DejaVuSerif-Bold-20" x="1077.099609"/>
     <use xlink:href="#DejaVuSerif-Bold-74" x="1111.914062"/>
     <use xlink:href="#DejaVuSerif-Bold-68" x="1158.105469"/>
     <use xlink:href="#DejaVuSerif-Bold-65" x="1230.810547"/>
     <use xlink:href="#DejaVuSerif-Bold-6e" x="1294.433594"/>
     <use xlink:href="#DejaVuSerif-Bold-20" x="1367.138672"/>
     <use xlink:href="#DejaVuSerif-Bold-74" x="1401.953125"/>
     <use xlink:href="#DejaVuSerif-Bold-65" x="1448.144531"/>
     <use xlink:href="#DejaVuSerif-Bold-63" x="1511.767578"/>
     <use xlink:href="#DejaVuSerif-Bold-68" x="1572.65625"/>
     <use xlink:href="#DejaVuSerif-Bold-6e" x="1645.361328"/>
     <use xlink:href="#DejaVuSerif-Bold-6f" x="1718.066406"/>
     <use xlink:href="#DejaVuSerif-Bold-6c" x="1784.765625"/>
     <use xlink:href="#DejaVuSerif-Bold-6f" x="1822.753906"/>
     <use xlink:href="#DejaVuSerif-Bold-67" x="1889.453125"/>
     <use xlink:href="#DejaVuSerif-Bold-79" x="1959.375"/>
     <use xlink:href="#DejaVuSerif-Bold-20" x="2017.480469"/>
     <use xlink:href="#DejaVuSerif-Bold-72" x="2052.294922"/>
     <use xlink:href="#DejaVuSerif-Bold-65" x="2104.980469"/>
     <use xlink:href="#DejaVuSerif-Bold-73" x="2168.603516"/>
     <use xlink:href="#DejaVuSerif-Bold-65" x="2224.902344"/>
     <use xlink:href="#DejaVuSerif-Bold-74" x="2288.525391"/>
     <use xlink:href="#DejaVuSerif-Bold-73" x="2334.716797"/>
     <use xlink:href="#DejaVuSerif-Bold-20" x="2391.015625"/>
     <use xlink:href="#DejaVuSerif-Bold-74" x="2425.830078"/>
     <use xlink:href="#DejaVuSerif-Bold-68" x="2472.021484"/>
     <use xlink:href="#DejaVuSerif-Bold-65" x="2544.726562"/>
     <use xlink:href="#DejaVuSerif-Bold-20" x="2608.349609"/>
     <use xlink:href="#DejaVuSerif-Bold-64" x="2643.164062"/>
     <use xlink:href="#DejaVuSerif-Bold-69" x="2713.085938"/>
     <use xlink:href="#DejaVuSerif-Bold-73" x="2751.074219"/>
     <use xlink:href="#DejaVuSerif-Bold-74" x="2807.373047"/>
     <use xlink:href="#DejaVuSerif-Bold-72" x="2853.564453"/>
     <use xlink:href="#DejaVuSerif-Bold-69" x="2906.25"/>
     <use xlink:href="#DejaVuSerif-Bold-62" x="2944.238281"/>
     <use xlink:href="#DejaVuSerif-Bold-75" x="3014.160156"/>
     <use xlink:href="#DejaVuSerif-Bold-74" x="3086.865234"/>
     <use xlink:href="#DejaVuSerif-Bold-69" x="3133.056641"/>
     <use xlink:href="#DejaVuSerif-Bold-6f" x="3171.044922"/>
     <use xlink:href="#DejaVuSerif-Bold-6e" x="3237.744141"/>
    </g>
   </g>
   <g id="line2d_18">
    <defs>
     <path id="m7a1683fa6c" d="M -0 4 
L 4 -4 
L -4 -4 
z
" style="stroke: #c0392b; stroke-linejoin: miter"/>
    </defs>
    <g clip-path="url(#p0d15761648)">
     <use xlink:href="#m7a1683fa6c" x="247.220379" y="114.09578" style="fill: #c0392b; stroke: #c0392b; stroke-linejoin: miter"/>
    </g>
   </g>
   <g id="line2d_19">
    <g clip-path="url(#p0d15761648)">
     <use xlink:href="#m7a1683fa6c" x="631.415851" y="155.054034" style="fill: #c0392b; stroke: #c0392b; stroke-linejoin: miter"/>
    </g>
   </g>
   <g id="line2d_20">
    <g clip-path="url(#p0d15761648)">
     <use xlink:href="#m7a1683fa6c" x="689.707578" y="203.240216" style="fill: #c0392b; stroke: #c0392b; stroke-linejoin: miter"/>
    </g>
   </g>
   <g id="line2d_21">
    <g clip-path="url(#p0d15761648)">
     <use xlink:href="#m7a1683fa6c" x="692.357202" y="251.426398" style="fill: #c0392b; stroke: #c0392b; stroke-linejoin: miter"/>
    </g>
   </g>
   <g id="line2d_22">
    <g clip-path="url(#p0d15761648)">
     <use xlink:href="#m7a1683fa6c" x="709.579758" y="287.566034" style="fill: #c0392b; stroke: #c0392b; stroke-linejoin: miter"/>
    </g>
   </g>
  </g>
 </g>
 <defs>
  <clipPath id="p0d15761648">
   <rect x="22.002344" y="46.635125" width="695.526286" height="265.024"/>
  </clipPath>
 </defs>
</svg>
