<?xml version="1.0" encoding="utf-8" standalone="no"?>
<!DOCTYPE svg PUBLIC "-//W3C//DTD SVG 1.1//EN"
  "http://www.w3.org/Graphics/SVG/1.1/DTD/svg11.dtd">
<svg xmlns:xlink="http://www.w3.org/1999/xlink" width="762.908025pt" height="350.368031pt" viewBox="0 0 762.908025 350.368031" xmlns="http://www.w3.org/2000/svg" version="1.1">
 <metadata>
  <rdf:RDF xmlns:dc="http://purl.org/dc/elements/1.1/" xmlns:cc="http://creativecommons.org/ns#" xmlns:rdf="http://www.w3.org/1999/02/22-rdf-syntax-ns#">
   <cc:Work>
    <dc:type rdf:resource="http://purl.org/dc/dcmitype/StillImage"/>
    <dc:date>2026-04-20T15:27:52.437991</dc:date>
    <dc:format>image/svg+xml</dc:format>
    <dc:creator>
     <cc:Agent>
      <dc:title>Matplotlib v3.9.4, https://matplotlib.org/</dc:title>
     </cc:Agent>
    </dc:creator>
   </cc:Work>
  </rdf:RDF>
 </metadata>
 <defs>
  <style type="text/css">*{stroke-linejoin: round; stroke-linecap: butt}</style>
 </defs>
 <g id="figure_1">
  <g id="patch_1">
   <path d="M 0 350.368031 
L 762.908025 350.368031 
L 762.908025 0 
L 0 0 
z
" style="fill: #ffffff"/>
  </g>
  <g id="axes_1">
   <g id="patch_2">
    <path d="M 21.020313 311.843969 
L 740.076979 311.843969 
L 740.076979 46.819969 
L 21.020313 46.819969 
z
" style="fill: #ffffff"/>
   </g>
   <g id="matplotlib.axis_1">
    <g id="xtick_1">
     <g id="line2d_1">
      <defs>
       <path id="m4fd799197c" d="M 0 0 
L 0 3.5 
" style="stroke: #000000; stroke-width: 0.8"/>
      </defs>
      <g>
       <use xlink:href="#m4fd799197c" x="47.652041" y="311.843969" style="stroke: #000000; stroke-width: 0.8"/>
      </g>
     </g>
     <g id="text_1">
      <!-- 0 -->
      <g transform="translate(44.152666 327.20225) scale(0.11 -0.11)">
       <defs>
        <path id="DejaVuSerif-30" d="M 2034 219 
Q 2513 219 2750 744 
Q 2988 1269 2988 2328 
Q 2988 3391 2750 3916 
Q 2513 4441 2034 4441 
Q 1556 4441 1318 3916 
Q 1081 3391 1081 2328 
Q 1081 1269 1318 744 
Q 1556 219 2034 219 
z
M 2034 -91 
Q 1275 -91 848 546 
Q 422 1184 422 2328 
Q 422 3475 848 4112 
Q 1275 4750 2034 4750 
Q 2797 4750 3222 4112 
Q 3647 3475 3647 2328 
Q 3647 1184 3222 546 
Q 2797 -91 2034 -91 
z
" transform="scale(0.015625)"/>
       </defs>
       <use xlink:href="#DejaVuSerif-30"/>
      </g>
     </g>
    </g>
    <g id="xtick_2">
     <g id="line2d_2">
      <g>
       <use xlink:href="#m4fd799197c" x="154.178954" y="311.843969" style="stroke: #000000; stroke-width: 0.8"/>
      </g>
     </g>
     <g id="text_2">
      <!-- 200 -->
      <g transform="translate(143.680829 327.20225) scale(0.11 -0.11)">
       <defs>
        <path id="DejaVuSerif-32" d="M 819 3553 
L 469 3553 
L 469 4384 
Q 803 4563 1142 4656 
Q 1481 4750 1806 4750 
Q 2534 4750 2956 4397 
Q 3378 4044 3378 3438 
Q 3378 2753 2422 1800 
Q 2347 1728 2309 1691 
L 1131 513 
L 3078 513 
L 3078 1088 
L 3444 1088 
L 3444 0 
L 434 0 
L 434 341 
L 1850 1753 
Q 2319 2222 2519 2614 
Q 2719 3006 2719 3438 
Q 2719 3909 2473 4175 
Q 2228 4441 1797 4441 
Q 1350 4441 1106 4219 
Q 863 3997 819 3553 
z
" transform="scale(0.015625)"/>
       </defs>
       <use xlink:href="#DejaVuSerif-32"/>
       <use xlink:href="#DejaVuSerif-30" x="63.623047"/>
       <use xlink:href="#DejaVuSerif-30" x="127.246094"/>
      </g>
     </g>
    </g>
    <g id="xtick_3">
     <g id="line2d_3">
      <g>
       <use xlink:href="#m4fd799197c" x="260.705868" y="311.843969" style="stroke: #000000; stroke-width: 0.8"/>
      </g>
     </g>
     <g id="text_3">
      <!-- 400 -->
      <g transform="translate(250.207743 327.20225) scale(0.11 -0.11)">
       <defs>
        <path id="DejaVuSerif-34" d="M 2234 1581 
L 2234 4063 
L 641 1581 
L 2234 1581 
z
M 3609 0 
L 1484 0 
L 1484 331 
L 2234 331 
L 2234 1247 
L 197 1247 
L 197 1588 
L 2241 4750 
L 2859 4750 
L 2859 1581 
L 3750 1581 
L 3750 1247 
L 2859 1247 
L 2859 331 
L 3609 331 
L 3609 0 
z
" transform="scale(0.015625)"/>
       </defs>
       <use xlink:href="#DejaVuSerif-34"/>
       <use xlink:href="#DejaVuSerif-30" x="63.623047"/>
       <use xlink:href="#DejaVuSerif-30" x="127.246094"/>
      </g>
     </g>
    </g>
    <g id="xtick_4">
     <g id="line2d_4">
      <g>
       <use xlink:href="#m4fd799197c" x="367.232782" y="311.843969" style="stroke: #000000; stroke-width: 0.8"/>
      </g>
     </g>
     <g id="text_4">
      <!-- 600 -->
      <g transform="translate(356.734657 327.20225) scale(0.11 -0.11)">
       <defs>
        <path id="DejaVuSerif-36" d="M 2094 219 
Q 2534 219 2771 542 
Q 3009 866 3009 1472 
Q 3009 2078 2771 2401 
Q 2534 2725 2094 2725 
Q 1647 2725 1412 2412 
Q 1178 2100 1178 1509 
Q 1178 888 1415 553 
Q 1653 219 2094 219 
z
M 1075 2569 
Q 1288 2803 1556 2918 
Q 1825 3034 2163 3034 
Q 2859 3034 3264 2615 
Q 3669 2197 3669 1472 
Q 3669 763 3233 336 
Q 2797 -91 2069 -91 
Q 1278 -91 853 498 
Q 428 1088 428 2181 
Q 428 3406 931 4078 
Q 1434 4750 2350 4750 
Q 2597 4750 2869 4703 
Q 3141 4656 3425 4563 
L 3425 3794 
L 3072 3794 
Q 3034 4109 2831 4275 
Q 2628 4441 2284 4441 
Q 1678 4441 1381 3981 
Q 1084 3522 1075 2569 
z
" transform="scale(0.015625)"/>
       </defs>
       <use xlink:href="#DejaVuSerif-36"/>
       <use xlink:href="#DejaVuSerif-30" x="63.623047"/>
       <use xlink:href="#DejaVuSerif-30" x="127.246094"/>
      </g>
     </g>
    </g>
    <g id="xtick_5">
     <g id="line2d_5">
      <g>
       <use xlink:href="#m4fd799197c" x="473.759695" y="311.843969" style="stroke: #000000; stroke-width: 0.8"/>
      </g>
     </g>
     <g id="text_5">
      <!-- 800 -->
      <g transform="translate(463.26157 327.20225) scale(0.11 -0.11)">
       <defs>
        <path id="DejaVuSerif-38" d="M 2981 1275 
Q 2981 1775 2732 2051 
Q 2484 2328 2034 2328 
Q 1584 2328 1336 2051 
Q 1088 1775 1088 1275 
Q 1088 772 1336 495 
Q 1584 219 2034 219 
Q 2484 219 2732 495 
Q 2981 772 2981 1275 
z
M 2853 3541 
Q 2853 3966 2637 4203 
Q 2422 4441 2034 4441 
Q 1650 4441 1433 4203 
Q 1216 3966 1216 3541 
Q 1216 3113 1433 2875 
Q 1650 2638 2034 2638 
Q 2422 2638 2637 2875 
Q 2853 3113 2853 3541 
z
M 2516 2484 
Q 3047 2413 3344 2092 
Q 3641 1772 3641 1275 
Q 3641 619 3225 264 
Q 2809 -91 2034 -91 
Q 1263 -91 845 264 
Q 428 619 428 1275 
Q 428 1772 725 2092 
Q 1022 2413 1556 2484 
Q 1084 2569 832 2842 
Q 581 3116 581 3541 
Q 581 4103 968 4426 
Q 1356 4750 2034 4750 
Q 2713 4750 3100 4426 
Q 3488 4103 3488 3541 
Q 3488 3116 3236 2842 
Q 2984 2569 2516 2484 
z
" transform="scale(0.015625)"/>
       </defs>
       <use xlink:href="#DejaVuSerif-38"/>
       <use xlink:href="#DejaVuSerif-30" x="63.623047"/>
       <use xlink:href="#DejaVuSerif-30" x="127.246094"/>
      </g>
     </g>
    </g>
    <g id="xtick_6">
     <g id="line2d_6">
      <g>
       <use xlink:href="#m4fd799197c" x="580.286609" y="311.843969" style="stroke: #000000; stroke-width: 0.8"/>
      </g>
     </g>
     <g id="text_6">
      <!-- 1000 -->
      <g transform="translate(566.289109 327.20225) scale(0.11 -0.11)">
       <defs>
        <path id="DejaVuSerif-31" d="M 909 0 
L 909 331 
L 1722 331 
L 1722 4213 
L 781 3603 
L 781 4013 
L 1919 4750 
L 2350 4750 
L 2350 331 
L 3163 331 
L 3163 0 
L 909 0 
z
" transform="scale(0.015625)"/>
       </defs>
       <use xlink:href="#DejaVuSerif-31"/>
       <use xlink:href="#DejaVuSerif-30" x="63.623047"/>
       <use xlink:href="#DejaVuSerif-30" x="127.246094"/>
       <use xlink:href="#DejaVuSerif-30" x="190.869141"/>
      </g>
     </g>
    </g>
    <g id="xtick_7">
     <g id="line2d_7">
      <g>
       <use xlink:href="#m4fd799197c" x="686.813522" y="311.843969" style="stroke: #000000; stroke-width: 0.8"/>
      </g>
     </g>
     <g id="text_7">
      <!-- 1200 -->
      <g transform="translate(672.816022 327.20225) scale(0.11 -0.11)">
       <use xlink:href="#DejaVuSerif-31"/>
       <use xlink:href="#DejaVuSerif-32" x="63.623047"/>
       <use xlink:href="#DejaVuSerif-30" x="127.246094"/>
       <use xlink:href="#DejaVuSerif-30" x="190.869141"/>
      </g>
     </g>
    </g>
    <g id="text_8">
     <!-- Year (CE) -->
     <g transform="translate(356.38849 341.088344) scale(0.1 -0.1)">
      <defs>
       <path id="DejaVuSerif-59" d="M 1209 0 
L 1209 331 
L 1806 331 
L 1806 2009 
L 366 4331 
L -72 4331 
L -72 4666 
L 1663 4666 
L 1663 4331 
L 1119 4331 
L 2284 2444 
L 3450 4331 
L 2925 4331 
L 2925 4666 
L 4281 4666 
L 4281 4331 
L 3841 4331 
L 2438 2069 
L 2438 331 
L 3034 331 
L 3034 0 
L 1209 0 
z
" transform="scale(0.015625)"/>
       <path id="DejaVuSerif-65" d="M 3469 1600 
L 991 1600 
L 991 1575 
Q 991 903 1244 561 
Q 1497 219 1991 219 
Q 2369 219 2611 417 
Q 2853 616 2950 1006 
L 3413 1006 
Q 3275 459 2904 184 
Q 2534 -91 1931 -91 
Q 1203 -91 761 389 
Q 319 869 319 1663 
Q 319 2450 753 2931 
Q 1188 3413 1894 3413 
Q 2647 3413 3050 2948 
Q 3453 2484 3469 1600 
z
M 2791 1931 
Q 2772 2513 2545 2808 
Q 2319 3103 1894 3103 
Q 1497 3103 1269 2806 
Q 1041 2509 991 1931 
L 2791 1931 
z
" transform="scale(0.015625)"/>
       <path id="DejaVuSerif-61" d="M 2547 1044 
L 2547 1747 
L 1806 1747 
Q 1378 1747 1168 1562 
Q 959 1378 959 997 
Q 959 650 1171 447 
Q 1384 244 1747 244 
Q 2106 244 2326 466 
Q 2547 688 2547 1044 
z
M 3122 2075 
L 3122 331 
L 3634 331 
L 3634 0 
L 2547 0 
L 2547 359 
Q 2356 128 2106 18 
Q 1856 -91 1522 -91 
Q 969 -91 644 203 
Q 319 497 319 997 
Q 319 1513 691 1797 
Q 1063 2081 1741 2081 
L 2547 2081 
L 2547 2309 
Q 2547 2688 2317 2895 
Q 2088 3103 1672 3103 
Q 1328 3103 1125 2947 
Q 922 2791 872 2484 
L 575 2484 
L 575 3156 
Q 875 3284 1158 3348 
Q 1441 3413 1709 3413 
Q 2400 3413 2761 3070 
Q 3122 2728 3122 2075 
z
" transform="scale(0.015625)"/>
       <path id="DejaVuSerif-72" d="M 3059 3328 
L 3059 2497 
L 2728 2497 
Q 2713 2744 2591 2866 
Q 2469 2988 2234 2988 
Q 1809 2988 1582 2694 
Q 1356 2400 1356 1850 
L 1356 331 
L 2022 331 
L 2022 0 
L 263 0 
L 263 331 
L 781 331 
L 781 2994 
L 231 2994 
L 231 3322 
L 1356 3322 
L 1356 2731 
Q 1525 3078 1790 3245 
Q 2056 3413 2438 3413 
Q 2578 3413 2733 3391 
Q 2888 3369 3059 3328 
z
" transform="scale(0.015625)"/>
       <path id="DejaVuSerif-20" transform="scale(0.015625)"/>
       <path id="DejaVuSerif-28" d="M 2041 -997 
Q 1281 -656 893 83 
Q 506 822 506 1931 
Q 506 3044 893 3783 
Q 1281 4522 2041 4863 
L 2041 4556 
Q 1559 4225 1350 3623 
Q 1141 3022 1141 1931 
Q 1141 844 1350 242 
Q 1559 -359 2041 -691 
L 2041 -997 
z
" transform="scale(0.015625)"/>
       <path id="DejaVuSerif-43" d="M 4513 1234 
Q 4306 581 3820 245 
Q 3334 -91 2591 -91 
Q 2134 -91 1743 65 
Q 1353 222 1050 525 
Q 700 875 529 1320 
Q 359 1766 359 2328 
Q 359 3416 987 4083 
Q 1616 4750 2644 4750 
Q 3025 4750 3456 4650 
Q 3888 4550 4384 4347 
L 4384 3272 
L 4031 3272 
Q 3916 3859 3567 4137 
Q 3219 4416 2591 4416 
Q 1844 4416 1459 3886 
Q 1075 3356 1075 2328 
Q 1075 1303 1459 773 
Q 1844 244 2591 244 
Q 3113 244 3450 492 
Q 3788 741 3938 1234 
L 4513 1234 
z
" transform="scale(0.015625)"/>
       <path id="DejaVuSerif-45" d="M 353 0 
L 353 331 
L 947 331 
L 947 4331 
L 353 4331 
L 353 4666 
L 4109 4666 
L 4109 3628 
L 3725 3628 
L 3725 4281 
L 1581 4281 
L 1581 2719 
L 3109 2719 
L 3109 3303 
L 3494 3303 
L 3494 1753 
L 3109 1753 
L 3109 2338 
L 1581 2338 
L 1581 384 
L 3775 384 
L 3775 1038 
L 4159 1038 
L 4159 0 
L 353 0 
z
" transform="scale(0.015625)"/>
       <path id="DejaVuSerif-29" d="M 453 -997 
L 453 -691 
Q 934 -359 1145 242 
Q 1356 844 1356 1931 
Q 1356 3022 1145 3623 
Q 934 4225 453 4556 
L 453 4863 
Q 1216 4522 1603 3783 
Q 1991 3044 1991 1931 
Q 1991 822 1603 83 
Q 1216 -656 453 -997 
z
" transform="scale(0.015625)"/>
      </defs>
      <use xlink:href="#DejaVuSerif-59"/>
      <use xlink:href="#DejaVuSerif-65" x="57.265625"/>
      <use xlink:href="#DejaVuSerif-61" x="116.445312"/>
      <use xlink:href="#DejaVuSerif-72" x="176.064453"/>
      <use xlink:href="#DejaVuSerif-20" x="223.867188"/>
      <use xlink:href="#DejaVuSerif-28" x="255.654297"/>
      <use xlink:href="#DejaVuSerif-43" x="294.667969"/>
      <use xlink:href="#DejaVuSerif-45" x="371.181641"/>
      <use xlink:href="#DejaVuSerif-29" x="444.179688"/>
     </g>
    </g>
   </g>
   <g id="matplotlib.axis_2">
    <g id="text_9">
     <!-- Geographic extent of adoption -->
     <g transform="translate(14.798438 256.525719) rotate(-90) scale(0.1 -0.1)">
      <defs>
       <path id="DejaVuSerif-47" d="M 4097 3272 
Q 3988 3856 3641 4136 
Q 3294 4416 2675 4416 
Q 1869 4416 1472 3897 
Q 1075 3378 1075 2328 
Q 1075 1300 1484 772 
Q 1894 244 2688 244 
Q 3041 244 3362 331 
Q 3684 419 3975 594 
L 3975 1797 
L 3097 1797 
L 3097 2131 
L 4609 2131 
L 4609 391 
Q 4194 150 3714 29 
Q 3234 -91 2688 -91 
Q 1631 -91 995 570 
Q 359 1231 359 2328 
Q 359 3434 996 4092 
Q 1634 4750 2713 4750 
Q 3113 4750 3539 4658 
Q 3966 4566 4447 4378 
L 4447 3272 
L 4097 3272 
z
" transform="scale(0.015625)"/>
       <path id="DejaVuSerif-6f" d="M 1925 219 
Q 2388 219 2623 584 
Q 2859 950 2859 1663 
Q 2859 2375 2623 2739 
Q 2388 3103 1925 3103 
Q 1463 3103 1227 2739 
Q 991 2375 991 1663 
Q 991 950 1228 584 
Q 1466 219 1925 219 
z
M 1925 -91 
Q 1200 -91 759 389 
Q 319 869 319 1663 
Q 319 2456 758 2934 
Q 1197 3413 1925 3413 
Q 2653 3413 3092 2934 
Q 3531 2456 3531 1663 
Q 3531 869 3092 389 
Q 2653 -91 1925 -91 
z
" transform="scale(0.015625)"/>
       <path id="DejaVuSerif-67" d="M 3359 2988 
L 3359 72 
Q 3359 -644 2965 -1033 
Q 2572 -1422 1844 -1422 
Q 1516 -1422 1216 -1362 
Q 916 -1303 641 -1184 
L 641 -488 
L 941 -488 
Q 997 -813 1206 -963 
Q 1416 -1113 1806 -1113 
Q 2313 -1113 2548 -827 
Q 2784 -541 2784 72 
L 2784 519 
Q 2616 206 2355 57 
Q 2094 -91 1709 -91 
Q 1097 -91 708 395 
Q 319 881 319 1663 
Q 319 2444 706 2928 
Q 1094 3413 1709 3413 
Q 2094 3413 2355 3264 
Q 2616 3116 2784 2803 
L 2784 3322 
L 3909 3322 
L 3909 2988 
L 3359 2988 
z
M 2784 1825 
Q 2784 2422 2554 2737 
Q 2325 3053 1888 3053 
Q 1444 3053 1217 2703 
Q 991 2353 991 1663 
Q 991 975 1217 622 
Q 1444 269 1888 269 
Q 2325 269 2554 583 
Q 2784 897 2784 1497 
L 2784 1825 
z
" transform="scale(0.015625)"/>
       <path id="DejaVuSerif-70" d="M 1313 1825 
L 1313 1497 
Q 1313 897 1542 583 
Q 1772 269 2209 269 
Q 2650 269 2876 622 
Q 3103 975 3103 1663 
Q 3103 2353 2876 2703 
Q 2650 3053 2209 3053 
Q 1772 3053 1542 2737 
Q 1313 2422 1313 1825 
z
M 738 2988 
L 184 2988 
L 184 3322 
L 1313 3322 
L 1313 2803 
Q 1481 3116 1742 3264 
Q 2003 3413 2388 3413 
Q 3000 3413 3387 2928 
Q 3775 2444 3775 1663 
Q 3775 881 3387 395 
Q 3000 -91 2388 -91 
Q 2003 -91 1742 57 
Q 1481 206 1313 519 
L 1313 -997 
L 1856 -997 
L 1856 -1331 
L 184 -1331 
L 184 -997 
L 738 -997 
L 738 2988 
z
" transform="scale(0.015625)"/>
       <path id="DejaVuSerif-68" d="M 263 0 
L 263 331 
L 781 331 
L 781 4531 
L 231 4531 
L 231 4863 
L 1356 4863 
L 1356 2731 
Q 1516 3069 1770 3241 
Q 2025 3413 2363 3413 
Q 2913 3413 3172 3097 
Q 3431 2781 3431 2113 
L 3431 331 
L 3944 331 
L 3944 0 
L 2356 0 
L 2356 331 
L 2853 331 
L 2853 1931 
Q 2853 2541 2704 2764 
Q 2556 2988 2175 2988 
Q 1775 2988 1565 2697 
Q 1356 2406 1356 1850 
L 1356 331 
L 1856 331 
L 1856 0 
L 263 0 
z
" transform="scale(0.015625)"/>
       <path id="DejaVuSerif-69" d="M 622 4353 
Q 622 4497 726 4603 
Q 831 4709 978 4709 
Q 1122 4709 1226 4603 
Q 1331 4497 1331 4353 
Q 1331 4206 1228 4103 
Q 1125 4000 978 4000 
Q 831 4000 726 4103 
Q 622 4206 622 4353 
z
M 1356 331 
L 1900 331 
L 1900 0 
L 231 0 
L 231 331 
L 781 331 
L 781 2988 
L 231 2988 
L 231 3322 
L 1356 3322 
L 1356 331 
z
" transform="scale(0.015625)"/>
       <path id="DejaVuSerif-63" d="M 3291 997 
Q 3169 466 2822 187 
Q 2475 -91 1925 -91 
Q 1200 -91 759 389 
Q 319 869 319 1663 
Q 319 2459 759 2936 
Q 1200 3413 1925 3413 
Q 2241 3413 2553 3339 
Q 2866 3266 3181 3116 
L 3181 2266 
L 2847 2266 
Q 2781 2703 2561 2903 
Q 2341 3103 1931 3103 
Q 1466 3103 1228 2742 
Q 991 2381 991 1663 
Q 991 944 1227 581 
Q 1463 219 1931 219 
Q 2303 219 2525 412 
Q 2747 606 2828 997 
L 3291 997 
z
" transform="scale(0.015625)"/>
       <path id="DejaVuSerif-78" d="M 1863 2028 
L 2559 2988 
L 2113 2988 
L 2113 3322 
L 3391 3322 
L 3391 2988 
L 2950 2988 
L 2059 1759 
L 3097 331 
L 3531 331 
L 3531 0 
L 1997 0 
L 1997 331 
L 2419 331 
L 1697 1325 
L 972 331 
L 1403 331 
L 1403 0 
L 141 0 
L 141 331 
L 581 331 
L 1497 1594 
L 488 2988 
L 78 2988 
L 78 3322 
L 1563 3322 
L 1563 2988 
L 1166 2988 
L 1863 2028 
z
" transform="scale(0.015625)"/>
       <path id="DejaVuSerif-74" d="M 691 2988 
L 184 2988 
L 184 3322 
L 691 3322 
L 691 4353 
L 1269 4353 
L 1269 3322 
L 2350 3322 
L 2350 2988 
L 1269 2988 
L 1269 878 
Q 1269 456 1350 337 
Q 1431 219 1650 219 
Q 1875 219 1978 351 
Q 2081 484 2088 781 
L 2522 781 
Q 2497 328 2275 118 
Q 2053 -91 1600 -91 
Q 1103 -91 897 129 
Q 691 350 691 878 
L 691 2988 
z
" transform="scale(0.015625)"/>
       <path id="DejaVuSerif-6e" d="M 263 0 
L 263 331 
L 781 331 
L 781 2988 
L 231 2988 
L 231 3322 
L 1356 3322 
L 1356 2731 
Q 1516 3069 1770 3241 
Q 2025 3413 2363 3413 
Q 2913 3413 3172 3097 
Q 3431 2781 3431 2113 
L 3431 331 
L 3944 331 
L 3944 0 
L 2356 0 
L 2356 331 
L 2853 331 
L 2853 1931 
Q 2853 2541 2703 2767 
Q 2553 2994 2175 2994 
Q 1775 2994 1565 2701 
Q 1356 2409 1356 1850 
L 1356 331 
L 1856 331 
L 1856 0 
L 263 0 
z
" transform="scale(0.015625)"/>
       <path id="DejaVuSerif-66" d="M 2753 4078 
L 2450 4078 
Q 2447 4313 2317 4434 
Q 2188 4556 1941 4556 
Q 1619 4556 1487 4379 
Q 1356 4203 1356 3750 
L 1356 3322 
L 2284 3322 
L 2284 2988 
L 1356 2988 
L 1356 331 
L 2094 331 
L 2094 0 
L 231 0 
L 231 331 
L 781 331 
L 781 2988 
L 231 2988 
L 231 3322 
L 781 3322 
L 781 3738 
Q 781 4294 1070 4578 
Q 1359 4863 1919 4863 
Q 2128 4863 2337 4825 
Q 2547 4788 2753 4709 
L 2753 4078 
z
" transform="scale(0.015625)"/>
       <path id="DejaVuSerif-64" d="M 3359 331 
L 3909 331 
L 3909 0 
L 2784 0 
L 2784 519 
Q 2616 206 2355 57 
Q 2094 -91 1709 -91 
Q 1097 -91 708 395 
Q 319 881 319 1663 
Q 319 2444 706 2928 
Q 1094 3413 1709 3413 
Q 2094 3413 2355 3264 
Q 2616 3116 2784 2803 
L 2784 4531 
L 2241 4531 
L 2241 4863 
L 3359 4863 
L 3359 331 
z
M 2784 1497 
L 2784 1825 
Q 2784 2422 2554 2737 
Q 2325 3053 1888 3053 
Q 1444 3053 1217 2703 
Q 991 2353 991 1663 
Q 991 975 1217 622 
Q 1444 269 1888 269 
Q 2325 269 2554 583 
Q 2784 897 2784 1497 
z
" transform="scale(0.015625)"/>
      </defs>
      <use xlink:href="#DejaVuSerif-47"/>
      <use xlink:href="#DejaVuSerif-65" x="79.882812"/>
      <use xlink:href="#DejaVuSerif-6f" x="139.0625"/>
      <use xlink:href="#DejaVuSerif-67" x="199.267578"/>
      <use xlink:href="#DejaVuSerif-72" x="263.28125"/>
      <use xlink:href="#DejaVuSerif-61" x="311.083984"/>
      <use xlink:href="#DejaVuSerif-70" x="370.703125"/>
      <use xlink:href="#DejaVuSerif-68" x="434.716797"/>
      <use xlink:href="#DejaVuSerif-69" x="499.121094"/>
      <use xlink:href="#DejaVuSerif-63" x="531.103516"/>
      <use xlink:href="#DejaVuSerif-20" x="587.109375"/>
      <use xlink:href="#DejaVuSerif-65" x="618.896484"/>
      <use xlink:href="#DejaVuSerif-78" x="678.076172"/>
      <use xlink:href="#DejaVuSerif-74" x="734.472656"/>
      <use xlink:href="#DejaVuSerif-65" x="774.658203"/>
      <use xlink:href="#DejaVuSerif-6e" x="833.837891"/>
      <use xlink:href="#DejaVuSerif-74" x="898.242188"/>
      <use xlink:href="#DejaVuSerif-20" x="938.427734"/>
      <use xlink:href="#DejaVuSerif-6f" x="970.214844"/>
      <use xlink:href="#DejaVuSerif-66" x="1030.419922"/>
      <use xlink:href="#DejaVuSerif-20" x="1067.431641"/>
      <use xlink:href="#DejaVuSerif-61" x="1099.21875"/>
      <use xlink:href="#DejaVuSerif-64" x="1158.837891"/>
      <use xlink:href="#DejaVuSerif-6f" x="1222.851562"/>
      <use xlink:href="#DejaVuSerif-70" x="1283.056641"/>
      <use xlink:href="#DejaVuSerif-74" x="1347.070312"/>
      <use xlink:href="#DejaVuSerif-69" x="1387.255859"/>
      <use xlink:href="#DejaVuSerif-6f" x="1419.238281"/>
      <use xlink:href="#DejaVuSerif-6e" x="1479.443359"/>
     </g>
    </g>
   </g>
   <g id="line2d_8">
    <path d="M 47.652041 306.64742 
L 50.424513 306.521687 
L 53.196985 306.148387 
L 55.969458 305.533272 
L 58.74193 304.681978 
L 61.514402 303.600022 
L 64.286874 302.29281 
L 67.059346 300.765633 
L 69.831819 299.023673 
L 73.297409 296.551905 
L 76.762999 293.762139 
L 80.22859 290.663802 
L 83.69418 287.266076 
L 87.15977 283.577904 
L 90.62536 279.607993 
L 94.784069 274.484129 
L 98.942777 268.980992 
L 101.022131 266.172552 
L 109.339548 260.890113 
L 118.350083 255.439937 
L 127.360617 250.259461 
L 136.371152 245.335338 
L 145.381687 240.654882 
L 155.08534 235.873078 
L 164.788992 231.345608 
L 174.492645 227.058945 
L 184.889416 222.718776 
L 195.286187 218.625462 
L 205.682958 214.764964 
L 216.772847 210.888809 
L 227.862736 207.247361 
L 239.645742 203.619611 
L 251.428749 200.224806 
L 263.904874 196.867602 
L 276.380999 193.738212 
L 289.550243 190.66505 
L 303.412604 187.66719 
L 317.274965 184.894493 
L 331.830444 182.207006 
L 347.079041 179.618139 
L 363.020757 177.139121 
L 379.65559 174.779006 
L 396.983541 172.544728 
L 415.004611 170.441189 
L 434.411916 168.402325 
L 454.51234 166.512927 
L 475.999 164.716303 
L 498.871896 163.028233 
L 523.131028 161.460266 
L 549.469514 159.98378 
L 577.887354 158.618176 
L 608.384548 157.376502 
L 641.654215 156.244344 
L 678.389472 155.217603 
L 719.283437 154.298684 
L 740.076979 153.906592 
L 740.076979 153.906592 
" clip-path="url(#p9d304f43c0)" style="fill: none; stroke: #e67e22; stroke-width: 2.5; stroke-linecap: square"/>
   </g>
   <g id="line2d_9">
    <path d="M 47.652041 301.450871 
L 446.888041 301.450871 
L 447.581159 296.62835 
L 451.739868 295.029681 
L 455.898576 293.193272 
L 460.057284 291.089596 
L 463.522875 289.109848 
L 466.988465 286.904039 
L 470.454055 284.453146 
L 473.919646 281.73829 
L 477.385236 278.741261 
L 480.850826 275.445133 
L 484.316416 271.834997 
L 487.782007 267.898783 
L 491.247597 263.628145 
L 494.713187 259.019384 
L 498.178778 254.074346 
L 502.337486 247.708454 
L 506.496194 240.898105 
L 510.654903 233.686362 
L 515.506729 224.844252 
L 521.744791 212.982322 
L 539.765861 178.31583 
L 544.617687 169.581418 
L 548.776396 162.482632 
L 552.935104 155.799567 
L 557.093812 149.570678 
L 560.559403 144.744036 
L 564.024993 140.255012 
L 567.490583 136.103391 
L 570.956173 132.283725 
L 574.421764 128.786244 
L 577.887354 125.597776 
L 581.352944 122.702608 
L 584.818535 120.083283 
L 588.284125 117.721287 
L 591.749715 115.597639 
L 595.908423 113.337187 
L 600.067132 111.360655 
L 604.22584 109.637521 
L 608.384548 108.139192 
L 613.236375 106.640192 
L 618.088201 105.373445 
L 623.633146 104.167214 
L 629.871208 103.066523 
L 636.802389 102.10117 
L 644.426687 101.285644 
L 652.744104 100.620899 
L 662.447757 100.063872 
L 674.230764 99.608605 
L 689.479361 99.250576 
L 710.272903 98.998764 
L 740.076979 98.855165 
L 740.076979 98.855165 
" clip-path="url(#p9d304f43c0)" style="fill: none; stroke: #2980b9; stroke-width: 2.5; stroke-linecap: square"/>
   </g>
   <g id="line2d_10">
    <path d="M 447.660601 311.843969 
L 447.660601 46.819969 
" clip-path="url(#p9d304f43c0)" style="fill: none; stroke-dasharray: 1.5,2.475; stroke-dashoffset: 0; stroke: #c0392b; stroke-opacity: 0.7; stroke-width: 1.5"/>
   </g>
   <g id="patch_3">
    <path d="M 21.020313 311.843969 
L 21.020313 46.819969 
" style="fill: none; stroke: #000000; stroke-width: 0.8; stroke-linejoin: miter; stroke-linecap: square"/>
   </g>
   <g id="patch_4">
    <path d="M 21.020313 311.843969 
L 740.076979 311.843969 
" style="fill: none; stroke: #000000; stroke-width: 0.8; stroke-linejoin: miter; stroke-linecap: square"/>
   </g>
   <g id="patch_5">
    <path d="M 443.451037 293.656047 
Q 275.352709 293.656047 107.254382 293.656047 
" style="fill: none; stroke: #7f8c8d; stroke-width: 1.5; stroke-linecap: round"/>
    <path d="M 439.051037 291.456047 
L 443.451037 293.656047 
L 439.051037 295.856047 
" style="fill: none; stroke: #7f8c8d; stroke-width: 1.5; stroke-linecap: round"/>
    <path d="M 111.654382 295.856047 
L 107.254382 293.656047 
L 111.654382 291.456047 
" style="fill: none; stroke: #7f8c8d; stroke-width: 1.5; stroke-linecap: round"/>
   </g>
   <g id="text_10">
    <!-- ~650-year gap -->
    <g style="fill: #7f8c8d" transform="translate(245.046376 267.717224) scale(0.08 -0.08)">
     <defs>
      <path id="DejaVuSerif-Italic-7e" d="M 4684 2522 
L 4684 2059 
Q 4372 1784 4090 1653 
Q 3809 1522 3519 1522 
Q 3219 1522 2675 1728 
L 2644 1741 
Q 2609 1753 2541 1781 
Q 2081 1959 1784 1959 
Q 1497 1959 1226 1845 
Q 956 1731 678 1491 
L 678 1966 
Q 991 2238 1270 2364 
Q 1550 2491 1844 2491 
Q 2144 2491 2688 2284 
L 2719 2272 
Q 2753 2259 2816 2234 
Q 3269 2053 3572 2053 
Q 3859 2053 4134 2168 
Q 4409 2284 4684 2522 
z
" transform="scale(0.015625)"/>
      <path id="DejaVuSerif-Italic-36" d="M 1070 553 
Q 1244 219 1684 219 
Q 2125 219 2425 542 
Q 2725 866 2842 1472 
Q 2959 2078 2786 2401 
Q 2613 2725 2172 2725 
Q 1725 2725 1429 2412 
Q 1134 2100 1019 1509 
Q 897 888 1070 553 
z
M 1122 2569 
Q 1378 2803 1670 2918 
Q 1963 3034 2300 3034 
Q 2997 3034 3320 2615 
Q 3644 2197 3503 1472 
Q 3366 763 2845 336 
Q 2325 -91 1597 -91 
Q 806 -91 497 498 
Q 188 1088 400 2181 
Q 638 3406 1272 4078 
Q 1906 4750 2822 4750 
Q 3069 4750 3331 4703 
Q 3594 4656 3859 4563 
L 3709 3794 
L 3356 3794 
Q 3381 4109 3209 4275 
Q 3038 4441 2694 4441 
Q 2088 4441 1702 3981 
Q 1316 3522 1122 2569 
z
" transform="scale(0.015625)"/>
      <path id="DejaVuSerif-Italic-35" d="M 3681 4666 
L 3581 4153 
L 1444 4153 
L 1184 2816 
Q 1369 2928 1597 2984 
Q 1825 3041 2094 3041 
Q 2850 3041 3206 2622 
Q 3563 2203 3422 1478 
Q 3278 738 2754 323 
Q 2231 -91 1431 -91 
Q 1109 -91 787 -12 
Q 466 66 144 225 
L 319 1131 
L 672 1131 
Q 613 688 822 453 
Q 1031 219 1491 219 
Q 1984 219 2314 544 
Q 2644 869 2763 1478 
Q 2878 2084 2678 2407 
Q 2478 2731 1981 2731 
Q 1700 2731 1465 2631 
Q 1231 2531 1025 2322 
L 756 2322 
L 1213 4666 
L 3681 4666 
z
" transform="scale(0.015625)"/>
      <path id="DejaVuSerif-Italic-30" d="M 1011 744 
Q 1147 219 1625 219 
Q 2103 219 2442 744 
Q 2781 1269 2988 2328 
Q 3194 3391 3058 3916 
Q 2922 4441 2444 4441 
Q 1966 4441 1627 3916 
Q 1288 3391 1081 2328 
Q 875 1269 1011 744 
z
M 1563 -91 
Q 803 -91 501 546 
Q 200 1184 422 2328 
Q 644 3475 1195 4112 
Q 1747 4750 2506 4750 
Q 3269 4750 3569 4112 
Q 3869 3475 3647 2328 
Q 3425 1184 2875 546 
Q 2325 -91 1563 -91 
z
" transform="scale(0.015625)"/>
      <path id="DejaVuSerif-Italic-2d" d="M 328 1959 
L 1928 1959 
L 1834 1472 
L 234 1472 
L 328 1959 
z
" transform="scale(0.015625)"/>
      <path id="DejaVuSerif-Italic-79" d="M 3681 3294 
Q 3372 1506 2828 563 
Q 2031 -822 1391 -1238 
Q 1106 -1422 356 -1422 
Q 209 -1422 60 -1397 
Q -88 -1372 -238 -1325 
L -113 -691 
L 181 -691 
Q 175 -741 175 -788 
Q 175 -919 231 -994 
Q 309 -1100 513 -1100 
Q 1063 -1100 1541 -622 
L 756 2988 
L 378 2988 
L 444 3322 
L 1303 3322 
L 2041 25 
Q 2544 778 2666 1088 
Q 3059 2059 3138 2959 
L 2759 2959 
L 2825 3294 
L 3681 3294 
z
" transform="scale(0.015625)"/>
      <path id="DejaVuSerif-Italic-65" d="M 938 1275 
Q 925 1156 925 1050 
Q 925 756 1031 563 
Q 1216 219 1709 219 
Q 2072 219 2250 328 
Q 2569 525 2644 778 
L 3066 778 
Q 2941 381 2475 103 
Q 2150 -91 1506 -91 
Q 863 -91 516 388 
Q 272 722 272 1206 
Q 272 1419 319 1659 
Q 472 2450 1000 2931 
Q 1528 3413 2278 3413 
Q 3500 3413 3500 2547 
Q 3500 1913 2859 1603 
Q 2206 1288 938 1275 
z
M 2541 1975 
Q 2891 2181 2891 2569 
Q 2891 3103 2181 3103 
Q 1763 3103 1472 2784 
Q 1181 2466 1003 1606 
Q 2006 1653 2541 1975 
z
" transform="scale(0.015625)"/>
      <path id="DejaVuSerif-Italic-61" d="M 2325 519 
Q 1909 -91 1238 -91 
Q 688 -91 409 281 
Q 216 544 216 919 
Q 216 1078 250 1256 
Q 463 2359 1231 2928 
Q 1884 3413 2675 3413 
Q 3206 3413 3388 3322 
L 2806 331 
L 3300 331 
L 3238 0 
L 2225 0 
L 2325 519 
z
M 822 938 
Q 822 269 1469 269 
Q 1863 269 2130 583 
Q 2397 897 2516 1497 
L 2806 3003 
L 2806 3003 
Q 2806 3094 2556 3094 
Q 1956 3094 1491 2625 
Q 1028 2153 863 1297 
Q 822 1097 822 938 
z
" transform="scale(0.015625)"/>
      <path id="DejaVuSerif-Italic-72" d="M 3375 3328 
L 3213 2497 
L 2881 2497 
Q 2891 2559 2891 2613 
Q 2891 2775 2816 2866 
Q 2719 2988 2484 2988 
Q 2059 2988 1775 2694 
Q 1491 2400 1384 1850 
L 1025 0 
L 450 0 
L 1031 2994 
L 481 2994 
L 544 3322 
L 1669 3322 
L 1556 2731 
Q 1791 3078 2089 3245 
Q 2388 3413 2769 3413 
Q 2909 3413 3059 3391 
Q 3209 3369 3375 3328 
z
" transform="scale(0.015625)"/>
      <path id="DejaVuSerif-Italic-20" transform="scale(0.015625)"/>
      <path id="DejaVuSerif-Italic-67" d="M 3822 3322 
L 3188 72 
Q 3044 -672 2581 -1031 
Q 2078 -1422 1381 -1422 
Q 1053 -1422 765 -1362 
Q 478 -1303 225 -1184 
L 363 -488 
L 663 -488 
Q 653 -813 834 -963 
Q 1016 -1113 1406 -1113 
Q 1913 -1113 2203 -825 
Q 2494 -544 2613 72 
L 2700 519 
Q 2472 206 2181 57 
Q 1891 -91 1525 -91 
Q 975 -91 697 281 
Q 522 516 503 841 
Q 491 1031 534 1256 
Q 750 2359 1516 2928 
Q 2169 3409 2931 3413 
Q 3631 3416 3822 3322 
z
M 3184 2988 
Q 3181 3094 2844 3094 
Q 2234 3094 1775 2625 
Q 1316 2153 1147 1297 
Q 1100 1044 1113 853 
Q 1125 659 1203 528 
Q 1356 269 1756 269 
Q 2194 269 2484 583 
Q 2775 897 2891 1497 
L 2953 1825 
L 3184 2988 
z
" transform="scale(0.015625)"/>
      <path id="DejaVuSerif-Italic-70" d="M 1466 1825 
L 1400 1497 
Q 1353 1250 1353 1053 
Q 1353 769 1453 581 
Q 1622 269 2059 269 
Q 2500 269 2795 622 
Q 3091 975 3225 1663 
Q 3284 1978 3284 2225 
Q 3284 2513 3200 2703 
Q 3041 3053 2600 3053 
Q 2163 3053 1872 2737 
Q 1581 2422 1466 1825 
z
M 1116 2988 
L 563 2988 
L 628 3322 
L 1756 3322 
L 1656 2803 
Q 1884 3116 2175 3264 
Q 2466 3413 2850 3413 
Q 3463 3413 3753 2928 
Q 3947 2609 3947 2163 
Q 3947 1928 3897 1663 
Q 3744 881 3262 395 
Q 2781 -91 2169 -91 
Q 1784 -91 1551 57 
Q 1319 206 1213 519 
L 850 -1331 
L 275 -1331 
L 1116 2988 
z
" transform="scale(0.015625)"/>
     </defs>
     <use xlink:href="#DejaVuSerif-Italic-7e"/>
     <use xlink:href="#DejaVuSerif-Italic-36" x="83.789062"/>
     <use xlink:href="#DejaVuSerif-Italic-35" x="147.412109"/>
     <use xlink:href="#DejaVuSerif-Italic-30" x="211.035156"/>
     <use xlink:href="#DejaVuSerif-Italic-2d" x="274.658203"/>
     <use xlink:href="#DejaVuSerif-Italic-79" x="308.447266"/>
     <use xlink:href="#DejaVuSerif-Italic-65" x="364.941406"/>
     <use xlink:href="#DejaVuSerif-Italic-61" x="424.121094"/>
     <use xlink:href="#DejaVuSerif-Italic-72" x="483.740234"/>
     <use xlink:href="#DejaVuSerif-Italic-20" x="531.542969"/>
     <use xlink:href="#DejaVuSerif-Italic-67" x="563.330078"/>
     <use xlink:href="#DejaVuSerif-Italic-61" x="627.34375"/>
     <use xlink:href="#DejaVuSerif-Italic-70" x="686.962891"/>
    </g>
    <!-- Knowledge exists in China -->
    <g style="fill: #7f8c8d" transform="translate(221.393251 276.789224) scale(0.08 -0.08)">
     <defs>
      <path id="DejaVuSerif-Italic-4b" d="M -97 0 
L -34 331 
L 559 331 
L 1338 4331 
L 744 4331 
L 809 4666 
L 2631 4666 
L 2566 4331 
L 1972 4331 
L 1628 2566 
L 3981 4331 
L 3475 4331 
L 3541 4666 
L 5091 4666 
L 5025 4331 
L 4500 4331 
L 2156 2572 
L 3959 331 
L 4491 331 
L 4428 0 
L 3344 0 
L 1563 2216 
L 1194 331 
L 1788 331 
L 1725 0 
L -97 0 
z
" transform="scale(0.015625)"/>
      <path id="DejaVuSerif-Italic-6e" d="M 450 0 
L 1031 2988 
L 481 2988 
L 544 3322 
L 1669 3322 
L 1556 2731 
Q 1781 3069 2068 3241 
Q 2356 3413 2694 3413 
Q 3244 3413 3444 3097 
Q 3563 2906 3563 2588 
Q 3563 2378 3509 2113 
L 3163 331 
L 3675 331 
L 3613 0 
L 2522 0 
L 2897 1931 
Q 2959 2253 2959 2469 
Q 2959 2659 2909 2769 
Q 2803 2994 2425 2994 
Q 2025 2994 1759 2701 
Q 1494 2409 1384 1850 
L 1025 0 
L 450 0 
z
" transform="scale(0.015625)"/>
      <path id="DejaVuSerif-Italic-6f" d="M 1644 219 
Q 2106 219 2414 584 
Q 2722 950 2859 1663 
Q 2922 1988 2922 2241 
Q 2922 2541 2834 2738 
Q 2669 3103 2206 3103 
Q 1744 3103 1436 2739 
Q 1128 2375 991 1663 
Q 928 1338 928 1088 
Q 928 784 1019 584 
Q 1184 219 1644 219 
z
M 1584 -91 
Q 859 -91 513 388 
Q 272 722 272 1203 
Q 272 1419 319 1663 
Q 472 2456 1005 2934 
Q 1538 3413 2266 3413 
Q 2994 3413 3341 2934 
Q 3578 2603 3578 2122 
Q 3578 1906 3531 1663 
Q 3378 869 2845 389 
Q 2313 -91 1584 -91 
z
" transform="scale(0.015625)"/>
      <path id="DejaVuSerif-Italic-77" d="M 3741 728 
Q 4156 1178 4250 1344 
Q 4594 1969 4931 2988 
L 4447 2984 
L 4513 3322 
L 5347 3322 
L 5281 2984 
L 5278 2984 
Q 4959 1825 4656 1266 
Q 4209 469 3719 0 
L 3241 0 
L 2900 2484 
L 1597 0 
L 1138 0 
L 734 2988 
L 359 2981 
L 425 3322 
L 1281 3322 
L 1631 728 
L 2991 3322 
L 3394 3322 
L 3741 728 
z
" transform="scale(0.015625)"/>
      <path id="DejaVuSerif-Italic-6c" d="M 903 331 
L 1447 331 
L 1384 0 
L 266 0 
L 1147 4531 
L 594 4531 
L 656 4863 
L 1784 4863 
L 903 331 
z
" transform="scale(0.015625)"/>
      <path id="DejaVuSerif-Italic-64" d="M 3841 4863 
L 2897 0 
L 2322 0 
L 2422 519 
Q 2191 206 1902 57 
Q 1613 -91 1228 -91 
Q 616 -91 322 394 
Q 125 716 125 1166 
Q 125 1397 178 1663 
Q 331 2444 812 2928 
Q 1294 3413 1909 3413 
Q 2294 3413 2525 3264 
Q 2756 3116 2866 2803 
L 3200 4531 
L 2656 4531 
L 2722 4863 
L 3841 4863 
z
M 2613 1497 
L 2675 1825 
Q 2722 2069 2722 2266 
Q 2722 2550 2622 2738 
Q 2456 3053 2019 3053 
Q 1575 3053 1279 2703 
Q 984 2353 850 1663 
Q 788 1347 788 1103 
Q 788 813 875 622 
Q 1031 269 1475 269 
Q 1913 269 2203 583 
Q 2494 897 2613 1497 
z
" transform="scale(0.015625)"/>
      <path id="DejaVuSerif-Italic-78" d="M 409 0 
L 19 0 
L 1484 1594 
L 747 2988 
L 338 2988 
L 400 3322 
L 1244 3322 
L 1934 2028 
L 3125 3322 
L 3516 3322 
L 2078 1759 
L 2838 331 
L 3272 331 
L 3209 0 
L 2338 0 
L 1631 1325 
L 409 0 
z
" transform="scale(0.015625)"/>
      <path id="DejaVuSerif-Italic-69" d="M 1009 4353 
Q 1038 4497 1163 4603 
Q 1288 4709 1434 4709 
Q 1578 4709 1663 4603 
Q 1728 4522 1728 4422 
Q 1728 4388 1719 4353 
Q 1691 4206 1567 4103 
Q 1444 4000 1297 4000 
Q 1150 4000 1066 4103 
Q 1003 4181 1003 4281 
Q 1003 4316 1009 4353 
z
M 963 331 
L 1506 331 
L 1444 0 
L 325 0 
L 903 2988 
L 353 2988 
L 419 3322 
L 1544 3322 
L 963 331 
z
" transform="scale(0.015625)"/>
      <path id="DejaVuSerif-Italic-73" d="M 222 959 
L 553 959 
Q 541 869 541 788 
Q 541 219 1313 219 
Q 2088 219 2200 788 
Q 2209 844 2209 944 
Q 2209 1041 2103 1158 
Q 1997 1275 1550 1428 
L 1159 1569 
Q 759 1706 629 1882 
Q 500 2059 500 2263 
Q 500 2344 516 2438 
Q 606 2894 990 3153 
Q 1375 3413 1931 3413 
Q 2484 3413 3066 3144 
L 2925 2419 
L 2594 2419 
Q 2606 2491 2606 2553 
Q 2606 2781 2448 2942 
Q 2291 3103 1925 3103 
Q 1191 3103 1091 2591 
Q 1078 2538 1078 2444 
Q 1078 2347 1179 2237 
Q 1281 2128 1678 1997 
L 2106 1856 
Q 2550 1709 2716 1488 
Q 2831 1331 2831 1178 
Q 2831 522 2306 181 
Q 1894 -91 1262 -91 
Q 631 -91 72 184 
L 222 959 
z
" transform="scale(0.015625)"/>
      <path id="DejaVuSerif-Italic-74" d="M 856 2988 
L 350 2988 
L 416 3322 
L 922 3322 
L 1122 4353 
L 1700 4353 
L 1500 3322 
L 2581 3322 
L 2516 2988 
L 1434 2988 
L 1025 878 
Q 978 631 978 488 
Q 978 388 1000 338 
Q 1059 219 1278 219 
Q 1503 219 1633 351 
Q 1763 484 1825 781 
L 2259 781 
Q 2147 328 1884 118 
Q 1622 -91 1169 -91 
Q 672 -91 506 131 
Q 406 266 406 516 
Q 406 675 447 878 
L 856 2988 
z
" transform="scale(0.015625)"/>
      <path id="DejaVuSerif-Italic-43" d="M 4300 1234 
Q 3966 581 3414 245 
Q 2863 -91 2119 -91 
Q 1663 -91 1303 65 
Q 944 222 700 525 
Q 419 875 334 1320 
Q 250 1766 359 2328 
Q 572 3416 1330 4083 
Q 2088 4750 3116 4750 
Q 3497 4750 3908 4650 
Q 4319 4550 4775 4347 
L 4569 3272 
L 4216 3272 
Q 4213 3859 3919 4137 
Q 3625 4416 2997 4416 
Q 2250 4416 1762 3886 
Q 1275 3356 1075 2328 
Q 875 1303 1156 773 
Q 1438 244 2184 244 
Q 2706 244 3092 492 
Q 3478 741 3725 1234 
L 4300 1234 
z
" transform="scale(0.015625)"/>
      <path id="DejaVuSerif-Italic-68" d="M 309 0 
L 1191 4531 
L 641 4531 
L 703 4863 
L 1828 4863 
L 1416 2731 
Q 1641 3069 1928 3241 
Q 2216 3413 2553 3413 
Q 3103 3413 3300 3097 
Q 3422 2906 3422 2588 
Q 3422 2378 3369 2113 
L 3022 331 
L 3534 331 
L 3472 0 
L 2381 0 
L 2756 1931 
Q 2819 2253 2819 2469 
Q 2819 2659 2769 2763 
Q 2666 2988 2284 2988 
Q 1884 2988 1617 2697 
Q 1350 2406 1244 1850 
L 884 0 
L 309 0 
z
" transform="scale(0.015625)"/>
     </defs>
     <use xlink:href="#DejaVuSerif-Italic-4b"/>
     <use xlink:href="#DejaVuSerif-Italic-6e" x="74.707031"/>
     <use xlink:href="#DejaVuSerif-Italic-6f" x="139.111328"/>
     <use xlink:href="#DejaVuSerif-Italic-77" x="199.316406"/>
     <use xlink:href="#DejaVuSerif-Italic-6c" x="284.912109"/>
     <use xlink:href="#DejaVuSerif-Italic-65" x="316.894531"/>
     <use xlink:href="#DejaVuSerif-Italic-64" x="376.074219"/>
     <use xlink:href="#DejaVuSerif-Italic-67" x="440.087891"/>
     <use xlink:href="#DejaVuSerif-Italic-65" x="504.101562"/>
     <use xlink:href="#DejaVuSerif-Italic-20" x="563.28125"/>
     <use xlink:href="#DejaVuSerif-Italic-65" x="595.068359"/>
     <use xlink:href="#DejaVuSerif-Italic-78" x="654.248047"/>
     <use xlink:href="#DejaVuSerif-Italic-69" x="710.644531"/>
     <use xlink:href="#DejaVuSerif-Italic-73" x="742.626953"/>
     <use xlink:href="#DejaVuSerif-Italic-74" x="793.945312"/>
     <use xlink:href="#DejaVuSerif-Italic-73" x="834.130859"/>
     <use xlink:href="#DejaVuSerif-Italic-20" x="885.449219"/>
     <use xlink:href="#DejaVuSerif-Italic-69" x="917.236328"/>
     <use xlink:href="#DejaVuSerif-Italic-6e" x="949.21875"/>
     <use xlink:href="#DejaVuSerif-Italic-20" x="1013.623047"/>
     <use xlink:href="#DejaVuSerif-Italic-43" x="1045.410156"/>
     <use xlink:href="#DejaVuSerif-Italic-68" x="1121.923828"/>
     <use xlink:href="#DejaVuSerif-Italic-69" x="1186.328125"/>
     <use xlink:href="#DejaVuSerif-Italic-6e" x="1218.310547"/>
     <use xlink:href="#DejaVuSerif-Italic-61" x="1282.714844"/>
    </g>
    <!-- but hasn't transferred west -->
    <g style="fill: #7f8c8d" transform="translate(219.647626 285.861224) scale(0.08 -0.08)">
     <defs>
      <path id="DejaVuSerif-Italic-62" d="M 1153 4531 
L 600 4531 
L 666 4863 
L 1794 4863 
L 1394 2803 
Q 1622 3116 1912 3264 
Q 2203 3413 2588 3413 
Q 3200 3413 3494 2928 
Q 3688 2609 3688 2163 
Q 3688 1928 3634 1663 
Q 3481 881 3000 395 
Q 2519 -91 1906 -91 
Q 1522 -91 1289 57 
Q 1056 206 950 519 
L 850 0 
L 275 0 
L 1153 4531 
z
M 1141 1497 
Q 1091 1250 1091 1053 
Q 1091 769 1191 581 
Q 1359 269 1797 269 
Q 2238 269 2533 622 
Q 2828 975 2963 1663 
Q 3025 1978 3025 2225 
Q 3025 2513 2938 2703 
Q 2781 3053 2338 3053 
Q 1900 3053 1609 2737 
Q 1319 2422 1203 1825 
L 1141 1497 
z
" transform="scale(0.015625)"/>
      <path id="DejaVuSerif-Italic-75" d="M 3097 3322 
L 3672 3322 
L 3091 331 
L 3634 331 
L 3572 0 
L 2453 0 
L 2566 588 
Q 2341 256 2055 82 
Q 1769 -91 1434 -91 
Q 881 -91 681 225 
Q 559 413 559 734 
Q 559 944 613 1209 
L 956 2988 
L 438 2988 
L 503 3322 
L 1600 3322 
L 1225 1388 
Q 1163 1066 1163 853 
Q 1163 663 1213 556 
Q 1316 331 1697 331 
Q 2097 331 2364 625 
Q 2631 919 2738 1478 
L 3097 3322 
z
" transform="scale(0.015625)"/>
      <path id="DejaVuSerif-Italic-27" d="M 1125 4666 
L 1125 2931 
L 628 2931 
L 628 4666 
L 1125 4666 
z
" transform="scale(0.015625)"/>
      <path id="DejaVuSerif-Italic-66" d="M 3191 4078 
L 2888 4078 
Q 2900 4144 2900 4203 
Q 2900 4347 2825 4434 
Q 2719 4556 2472 4556 
Q 2150 4556 1984 4379 
Q 1819 4203 1731 3750 
L 1647 3322 
L 2575 3322 
L 2509 2988 
L 1581 2988 
L 963 -206 
Q 853 -763 509 -1047 
Q 166 -1331 -394 -1331 
L -356 -1025 
Q -28 -1025 131 -850 
Q 297 -663 388 -206 
L 1006 2988 
L 456 2988 
L 522 3322 
L 1072 3322 
L 1153 3738 
Q 1263 4297 1606 4578 
Q 1950 4863 2509 4863 
Q 2719 4863 2920 4825 
Q 3122 4788 3316 4709 
L 3191 4078 
z
" transform="scale(0.015625)"/>
     </defs>
     <use xlink:href="#DejaVuSerif-Italic-62"/>
     <use xlink:href="#DejaVuSerif-Italic-75" x="64.013672"/>
     <use xlink:href="#DejaVuSerif-Italic-74" x="128.417969"/>
     <use xlink:href="#DejaVuSerif-Italic-20" x="168.603516"/>
     <use xlink:href="#DejaVuSerif-Italic-68" x="200.390625"/>
     <use xlink:href="#DejaVuSerif-Italic-61" x="264.794922"/>
     <use xlink:href="#DejaVuSerif-Italic-73" x="324.414062"/>
     <use xlink:href="#DejaVuSerif-Italic-6e" x="375.732422"/>
     <use xlink:href="#DejaVuSerif-Italic-27" x="440.136719"/>
     <use xlink:href="#DejaVuSerif-Italic-74" x="467.626953"/>
     <use xlink:href="#DejaVuSerif-Italic-20" x="507.8125"/>
     <use xlink:href="#DejaVuSerif-Italic-74" x="539.599609"/>
     <use xlink:href="#DejaVuSerif-Italic-72" x="579.785156"/>
     <use xlink:href="#DejaVuSerif-Italic-61" x="627.587891"/>
     <use xlink:href="#DejaVuSerif-Italic-6e" x="687.207031"/>
     <use xlink:href="#DejaVuSerif-Italic-73" x="751.611328"/>
     <use xlink:href="#DejaVuSerif-Italic-66" x="802.929688"/>
     <use xlink:href="#DejaVuSerif-Italic-65" x="839.941406"/>
     <use xlink:href="#DejaVuSerif-Italic-72" x="899.121094"/>
     <use xlink:href="#DejaVuSerif-Italic-72" x="946.923828"/>
     <use xlink:href="#DejaVuSerif-Italic-65" x="994.726562"/>
     <use xlink:href="#DejaVuSerif-Italic-64" x="1053.90625"/>
     <use xlink:href="#DejaVuSerif-Italic-20" x="1117.919922"/>
     <use xlink:href="#DejaVuSerif-Italic-77" x="1149.707031"/>
     <use xlink:href="#DejaVuSerif-Italic-65" x="1235.302734"/>
     <use xlink:href="#DejaVuSerif-Italic-73" x="1294.482422"/>
     <use xlink:href="#DejaVuSerif-Italic-74" x="1345.800781"/>
    </g>
   </g>
   <g id="text_11">
    <g id="patch_6">
     <path d="M 366.110758 142.331295 
L 447.660601 142.331295 
Q 450.360601 142.331295 450.360601 139.631295 
L 450.360601 110.76492 
Q 450.360601 108.06492 447.660601 108.06492 
L 366.110758 108.06492 
Q 363.410758 108.06492 363.410758 110.76492 
L 363.410758 139.631295 
Q 363.410758 142.331295 366.110758 142.331295 
z
" style="fill: #ffffff; opacity: 0.8; stroke: #c0392b; stroke-linejoin: miter"/>
    </g>
    <!-- Battle of Talas -->
    <g style="fill: #c0392b" transform="translate(374.642476 117.603514) scale(0.09 -0.09)">
     <defs>
      <path id="DejaVuSerif-Bold-42" d="M 300 0 
L 300 378 
L 897 378 
L 897 4288 
L 300 4288 
L 300 4666 
L 3066 4666 
Q 3919 4666 4347 4378 
Q 4775 4091 4775 3513 
Q 4775 3097 4479 2853 
Q 4184 2609 3603 2547 
Q 4306 2481 4681 2172 
Q 5056 1863 5056 1350 
Q 5056 656 4532 328 
Q 4009 0 2894 0 
L 300 0 
z
M 2100 2719 
L 2509 2719 
Q 3047 2719 3306 2914 
Q 3566 3109 3566 3513 
Q 3566 3919 3314 4103 
Q 3063 4288 2509 4288 
L 2100 4288 
L 2100 2719 
z
M 2100 378 
L 2547 378 
Q 3144 378 3431 615 
Q 3719 853 3719 1350 
Q 3719 1850 3428 2097 
Q 3138 2344 2547 2344 
L 2100 2344 
L 2100 378 
z
" transform="scale(0.015625)"/>
      <path id="DejaVuSerif-Bold-61" d="M 3525 2041 
L 3525 378 
L 4000 378 
L 4000 0 
L 2419 0 
L 2419 422 
Q 2200 159 1931 34 
Q 1663 -91 1319 -91 
Q 809 -91 536 182 
Q 263 456 263 966 
Q 263 1525 655 1803 
Q 1047 2081 1838 2081 
L 2419 2081 
L 2419 2278 
Q 2419 2681 2228 2873 
Q 2038 3066 1638 3066 
Q 1306 3066 1126 2930 
Q 947 2794 872 2484 
L 519 2484 
L 519 3200 
Q 816 3306 1134 3359 
Q 1453 3413 1806 3413 
Q 2697 3413 3111 3081 
Q 3525 2750 3525 2041 
z
M 2419 1044 
L 2419 1709 
L 2003 1709 
Q 1694 1709 1528 1540 
Q 1363 1372 1363 1056 
Q 1363 741 1483 584 
Q 1603 428 1850 428 
Q 2106 428 2262 597 
Q 2419 766 2419 1044 
z
" transform="scale(0.015625)"/>
      <path id="DejaVuSerif-Bold-74" d="M 634 2944 
L 153 2944 
L 153 3322 
L 634 3322 
L 634 4353 
L 1741 4353 
L 1741 3322 
L 2663 3322 
L 2663 2944 
L 1741 2944 
L 1741 909 
Q 1741 475 1809 369 
Q 1878 263 2059 263 
Q 2259 263 2356 397 
Q 2453 531 2459 813 
L 2925 813 
Q 2897 313 2651 111 
Q 2406 -91 1806 -91 
Q 1122 -91 878 123 
Q 634 338 634 909 
L 634 2944 
z
" transform="scale(0.015625)"/>
      <path id="DejaVuSerif-Bold-6c" d="M 1797 378 
L 2272 378 
L 2272 0 
L 219 0 
L 219 378 
L 691 378 
L 691 4488 
L 219 4488 
L 219 4863 
L 1797 4863 
L 1797 378 
z
" transform="scale(0.015625)"/>
      <path id="DejaVuSerif-Bold-65" d="M 2566 1875 
Q 2566 2531 2444 2795 
Q 2322 3059 2028 3059 
Q 1744 3059 1620 2800 
Q 1497 2541 1497 1931 
L 1497 1875 
L 2566 1875 
z
M 3781 1503 
L 1497 1503 
L 1497 1478 
Q 1497 834 1690 548 
Q 1884 263 2316 263 
Q 2675 263 2897 453 
Q 3119 644 3181 1006 
L 3700 1006 
Q 3566 441 3166 175 
Q 2766 -91 2047 -91 
Q 1184 -91 723 364 
Q 263 819 263 1663 
Q 263 2488 734 2950 
Q 1206 3413 2047 3413 
Q 2872 3413 3312 2927 
Q 3753 2441 3781 1503 
z
" transform="scale(0.015625)"/>
      <path id="DejaVuSerif-Bold-20" transform="scale(0.015625)"/>
      <path id="DejaVuSerif-Bold-6f" d="M 2138 263 
Q 2488 263 2630 563 
Q 2772 863 2772 1663 
Q 2772 2463 2631 2761 
Q 2491 3059 2138 3059 
Q 1784 3059 1640 2757 
Q 1497 2456 1497 1663 
Q 1497 869 1640 566 
Q 1784 263 2138 263 
z
M 2138 -91 
Q 1259 -91 761 376 
Q 263 844 263 1663 
Q 263 2484 761 2948 
Q 1259 3413 2138 3413 
Q 3019 3413 3516 2948 
Q 4013 2484 4013 1663 
Q 4013 844 3514 376 
Q 3016 -91 2138 -91 
z
" transform="scale(0.015625)"/>
      <path id="DejaVuSerif-Bold-66" d="M 3097 4031 
L 2747 4031 
Q 2722 4275 2605 4394 
Q 2488 4513 2272 4513 
Q 2022 4513 1909 4333 
Q 1797 4153 1797 3750 
L 1797 3322 
L 2631 3322 
L 2631 2944 
L 1797 2944 
L 1797 378 
L 2438 378 
L 2438 0 
L 219 0 
L 219 378 
L 691 378 
L 691 2944 
L 197 2944 
L 197 3322 
L 691 3322 
L 691 3738 
Q 691 4291 1044 4577 
Q 1397 4863 2081 4863 
Q 2347 4863 2600 4833 
Q 2853 4803 3097 4744 
L 3097 4031 
z
" transform="scale(0.015625)"/>
      <path id="DejaVuSerif-Bold-54" d="M 1159 0 
L 1159 378 
L 1778 378 
L 1778 4238 
L 500 4238 
L 500 3500 
L 72 3500 
L 72 4666 
L 4697 4666 
L 4697 3500 
L 4275 3500 
L 4275 4238 
L 2988 4238 
L 2988 378 
L 3609 378 
L 3609 0 
L 1159 0 
z
" transform="scale(0.015625)"/>
      <path id="DejaVuSerif-Bold-73" d="M 300 97 
L 300 1025 
L 653 1025 
Q 697 653 931 458 
Q 1166 263 1569 263 
Q 1906 263 2086 380 
Q 2266 497 2266 716 
Q 2266 916 2152 1025 
Q 2038 1134 1709 1216 
L 1253 1331 
Q 738 1459 506 1698 
Q 275 1938 275 2344 
Q 275 2884 650 3148 
Q 1025 3413 1806 3413 
Q 2100 3413 2433 3364 
Q 2766 3316 3169 3213 
L 3169 2375 
L 2816 2375 
Q 2788 2716 2573 2887 
Q 2359 3059 1959 3059 
Q 1622 3059 1448 2951 
Q 1275 2844 1275 2638 
Q 1275 2469 1375 2372 
Q 1475 2275 1734 2209 
L 2188 2094 
Q 2841 1928 3091 1684 
Q 3341 1441 3341 1006 
Q 3341 444 2939 176 
Q 2538 -91 1691 -91 
Q 1381 -91 1034 -44 
Q 688 3 300 97 
z
" transform="scale(0.015625)"/>
     </defs>
     <use xlink:href="#DejaVuSerif-Bold-42"/>
     <use xlink:href="#DejaVuSerif-Bold-61" x="84.521484"/>
     <use xlink:href="#DejaVuSerif-Bold-74" x="149.316406"/>
     <use xlink:href="#DejaVuSerif-Bold-74" x="195.507812"/>
     <use xlink:href="#DejaVuSerif-Bold-6c" x="241.699219"/>
     <use xlink:href="#DejaVuSerif-Bold-65" x="279.6875"/>
     <use xlink:href="#DejaVuSerif-Bold-20" x="343.310547"/>
     <use xlink:href="#DejaVuSerif-Bold-6f" x="378.125"/>
     <use xlink:href="#DejaVuSerif-Bold-66" x="444.824219"/>
     <use xlink:href="#DejaVuSerif-Bold-20" x="487.841797"/>
     <use xlink:href="#DejaVuSerif-Bold-54" x="522.65625"/>
     <use xlink:href="#DejaVuSerif-Bold-61" x="587.445312"/>
     <use xlink:href="#DejaVuSerif-Bold-6c" x="652.240234"/>
     <use xlink:href="#DejaVuSerif-Bold-61" x="690.228516"/>
     <use xlink:href="#DejaVuSerif-Bold-73" x="755.023438"/>
    </g>
    <!-- 751 CE -->
    <g style="fill: #c0392b" transform="translate(411.718258 127.681545) scale(0.09 -0.09)">
     <defs>
      <path id="DejaVuSerif-Bold-37" d="M 3922 3872 
L 1997 0 
L 1363 0 
L 3238 3781 
L 934 3781 
L 934 3150 
L 506 3150 
L 506 4666 
L 3922 4666 
L 3922 3872 
z
" transform="scale(0.015625)"/>
      <path id="DejaVuSerif-Bold-35" d="M 3609 4666 
L 3609 3847 
L 1113 3847 
L 1113 2822 
Q 1319 2981 1572 3062 
Q 1825 3144 2106 3144 
Q 2969 3144 3469 2708 
Q 3969 2272 3969 1522 
Q 3969 759 3469 334 
Q 2969 -91 2069 -91 
Q 1688 -91 1311 -28 
Q 934 34 525 166 
L 525 1184 
L 900 1184 
Q 919 725 1139 500 
Q 1359 275 1791 275 
Q 2250 275 2472 583 
Q 2694 891 2694 1522 
Q 2694 2144 2476 2451 
Q 2259 2759 1819 2759 
Q 1581 2759 1395 2661 
Q 1209 2563 1050 2356 
L 738 2356 
L 738 4666 
L 3609 4666 
z
" transform="scale(0.015625)"/>
      <path id="DejaVuSerif-Bold-31" d="M 878 0 
L 878 378 
L 1753 378 
L 1753 4153 
L 781 3578 
L 781 4044 
L 1953 4750 
L 2938 4750 
L 2938 378 
L 3816 378 
L 3816 0 
L 878 0 
z
" transform="scale(0.015625)"/>
      <path id="DejaVuSerif-Bold-43" d="M 4769 1331 
Q 4584 609 4106 259 
Q 3628 -91 2822 -91 
Q 1641 -91 955 561 
Q 269 1213 269 2328 
Q 269 3447 955 4098 
Q 1641 4750 2822 4750 
Q 3238 4750 3688 4650 
Q 4138 4550 4641 4347 
L 4641 3200 
L 4244 3200 
Q 4122 3788 3800 4080 
Q 3478 4372 2950 4372 
Q 2269 4372 1937 3870 
Q 1606 3369 1606 2328 
Q 1606 1288 1937 788 
Q 2269 288 2956 288 
Q 3422 288 3717 547 
Q 4013 806 4147 1331 
L 4769 1331 
z
" transform="scale(0.015625)"/>
      <path id="DejaVuSerif-Bold-45" d="M 300 0 
L 300 378 
L 897 378 
L 897 4288 
L 300 4288 
L 300 4666 
L 4494 4666 
L 4494 3566 
L 4063 3566 
L 4063 4238 
L 2100 4238 
L 2100 2741 
L 3322 2741 
L 3322 3334 
L 3750 3334 
L 3750 1722 
L 3322 1722 
L 3322 2316 
L 2100 2316 
L 2100 428 
L 4122 428 
L 4122 1100 
L 4550 1100 
L 4550 0 
L 300 0 
z
" transform="scale(0.015625)"/>
     </defs>
     <use xlink:href="#DejaVuSerif-Bold-37"/>
     <use xlink:href="#DejaVuSerif-Bold-35" x="69.580078"/>
     <use xlink:href="#DejaVuSerif-Bold-31" x="139.160156"/>
     <use xlink:href="#DejaVuSerif-Bold-20" x="208.740234"/>
     <use xlink:href="#DejaVuSerif-Bold-43" x="243.554688"/>
     <use xlink:href="#DejaVuSerif-Bold-45" x="323.144531"/>
    </g>
    <!-- Threshold event -->
    <g style="fill: #c0392b" transform="translate(366.110758 137.759577) scale(0.09 -0.09)">
     <defs>
      <path id="DejaVuSerif-Bold-68" d="M 219 0 
L 219 378 
L 691 378 
L 691 4488 
L 197 4488 
L 197 4863 
L 1797 4863 
L 1797 2853 
Q 1997 3150 2253 3281 
Q 2509 3413 2900 3413 
Q 3459 3413 3745 3083 
Q 4031 2753 4031 2113 
L 4031 378 
L 4506 378 
L 4506 0 
L 2522 0 
L 2522 378 
L 2925 378 
L 2925 2144 
Q 2925 2566 2817 2730 
Q 2709 2894 2444 2894 
Q 2109 2894 1953 2648 
Q 1797 2403 1797 1869 
L 1797 378 
L 2203 378 
L 2203 0 
L 219 0 
z
" transform="scale(0.015625)"/>
      <path id="DejaVuSerif-Bold-72" d="M 3438 3359 
L 3438 2369 
L 3084 2369 
Q 3066 2634 2941 2764 
Q 2816 2894 2578 2894 
Q 2216 2894 2006 2575 
Q 1797 2256 1797 1691 
L 1797 378 
L 2400 378 
L 2400 0 
L 219 0 
L 219 378 
L 691 378 
L 691 2944 
L 184 2944 
L 184 3322 
L 1797 3322 
L 1797 2731 
Q 1959 3078 2226 3245 
Q 2494 3413 2881 3413 
Q 2978 3413 3117 3398 
Q 3256 3384 3438 3359 
z
" transform="scale(0.015625)"/>
      <path id="DejaVuSerif-Bold-64" d="M 2747 1497 
L 2747 1825 
Q 2747 2406 2597 2665 
Q 2447 2925 2119 2925 
Q 1775 2925 1636 2651 
Q 1497 2378 1497 1663 
Q 1497 947 1637 672 
Q 1778 397 2119 397 
Q 2447 397 2597 656 
Q 2747 916 2747 1497 
z
M 3853 378 
L 4325 378 
L 4325 0 
L 2747 0 
L 2747 422 
Q 2606 163 2367 36 
Q 2128 -91 1778 -91 
Q 1072 -91 667 378 
Q 263 847 263 1663 
Q 263 2481 667 2947 
Q 1072 3413 1778 3413 
Q 2128 3413 2367 3286 
Q 2606 3159 2747 2900 
L 2747 4488 
L 2272 4488 
L 2272 4863 
L 3853 4863 
L 3853 378 
z
" transform="scale(0.015625)"/>
      <path id="DejaVuSerif-Bold-76" d="M 1428 0 
L 250 2944 
L -116 2944 
L -116 3322 
L 1791 3322 
L 1791 2944 
L 1388 2944 
L 2228 844 
L 3066 2944 
L 2631 2944 
L 2631 3322 
L 3878 3322 
L 3878 2944 
L 3494 2944 
L 2316 0 
L 1428 0 
z
" transform="scale(0.015625)"/>
      <path id="DejaVuSerif-Bold-6e" d="M 219 0 
L 219 378 
L 691 378 
L 691 2944 
L 219 2944 
L 219 3322 
L 1797 3322 
L 1797 2853 
Q 1997 3150 2253 3281 
Q 2509 3413 2900 3413 
Q 3459 3413 3745 3083 
Q 4031 2753 4031 2113 
L 4031 378 
L 4506 378 
L 4506 0 
L 2522 0 
L 2522 378 
L 2925 378 
L 2925 2144 
Q 2925 2566 2817 2730 
Q 2709 2894 2444 2894 
Q 2109 2894 1953 2648 
Q 1797 2403 1797 1869 
L 1797 378 
L 2203 378 
L 2203 0 
L 219 0 
z
" transform="scale(0.015625)"/>
     </defs>
     <use xlink:href="#DejaVuSerif-Bold-54"/>
     <use xlink:href="#DejaVuSerif-Bold-68" x="74.414062"/>
     <use xlink:href="#DejaVuSerif-Bold-72" x="147.119141"/>
     <use xlink:href="#DejaVuSerif-Bold-65" x="199.804688"/>
     <use xlink:href="#DejaVuSerif-Bold-73" x="263.427734"/>
     <use xlink:href="#DejaVuSerif-Bold-68" x="319.726562"/>
     <use xlink:href="#DejaVuSerif-Bold-6f" x="392.431641"/>
     <use xlink:href="#DejaVuSerif-Bold-6c" x="459.130859"/>
     <use xlink:href="#DejaVuSerif-Bold-64" x="497.119141"/>
     <use xlink:href="#DejaVuSerif-Bold-20" x="567.041016"/>
     <use xlink:href="#DejaVuSerif-Bold-65" x="601.855469"/>
     <use xlink:href="#DejaVuSerif-Bold-76" x="665.478516"/>
     <use xlink:href="#DejaVuSerif-Bold-65" x="723.583984"/>
     <use xlink:href="#DejaVuSerif-Bold-6e" x="787.207031"/>
     <use xlink:href="#DejaVuSerif-Bold-74" x="859.912109"/>
    </g>
   </g>
   <g id="text_12">
    <!-- Samarkand -->
    <g style="fill: #2980b9" transform="translate(432.188766 268.705514) scale(0.07 -0.07)">
     <defs>
      <path id="DejaVuSerif-53" d="M 594 225 
L 594 1288 
L 953 1284 
Q 969 753 1261 498 
Q 1553 244 2150 244 
Q 2706 244 2998 464 
Q 3291 684 3291 1106 
Q 3291 1444 3114 1625 
Q 2938 1806 2369 1978 
L 1753 2163 
Q 1084 2366 811 2669 
Q 538 2972 538 3500 
Q 538 4094 959 4422 
Q 1381 4750 2144 4750 
Q 2469 4750 2856 4679 
Q 3244 4609 3681 4475 
L 3681 3481 
L 3328 3481 
Q 3275 3975 2998 4195 
Q 2722 4416 2156 4416 
Q 1663 4416 1405 4214 
Q 1147 4013 1147 3628 
Q 1147 3294 1340 3103 
Q 1534 2913 2163 2725 
L 2741 2553 
Q 3375 2363 3645 2067 
Q 3916 1772 3916 1275 
Q 3916 597 3481 253 
Q 3047 -91 2188 -91 
Q 1803 -91 1404 -12 
Q 1006 66 594 225 
z
" transform="scale(0.015625)"/>
      <path id="DejaVuSerif-6d" d="M 3316 2675 
Q 3481 3041 3739 3227 
Q 3997 3413 4341 3413 
Q 4863 3413 5119 3089 
Q 5375 2766 5375 2113 
L 5375 331 
L 5894 331 
L 5894 0 
L 4300 0 
L 4300 331 
L 4800 331 
L 4800 2047 
Q 4800 2556 4650 2772 
Q 4500 2988 4153 2988 
Q 3769 2988 3567 2697 
Q 3366 2406 3366 1850 
L 3366 331 
L 3866 331 
L 3866 0 
L 2291 0 
L 2291 331 
L 2791 331 
L 2791 2069 
Q 2791 2566 2641 2777 
Q 2491 2988 2144 2988 
Q 1759 2988 1557 2697 
Q 1356 2406 1356 1850 
L 1356 331 
L 1856 331 
L 1856 0 
L 263 0 
L 263 331 
L 781 331 
L 781 2994 
L 231 2994 
L 231 3322 
L 1356 3322 
L 1356 2731 
Q 1516 3063 1762 3238 
Q 2009 3413 2322 3413 
Q 2709 3413 2968 3220 
Q 3228 3028 3316 2675 
z
" transform="scale(0.015625)"/>
      <path id="DejaVuSerif-6b" d="M 1831 0 
L 219 0 
L 219 331 
L 738 331 
L 738 4531 
L 184 4531 
L 184 4863 
L 1313 4863 
L 1313 1697 
L 2713 2988 
L 2234 2988 
L 2234 3322 
L 3738 3322 
L 3738 2988 
L 3169 2988 
L 2181 2075 
L 3444 331 
L 3922 331 
L 3922 0 
L 2284 0 
L 2284 331 
L 2759 331 
L 1766 1697 
L 1313 1275 
L 1313 331 
L 1831 331 
L 1831 0 
z
" transform="scale(0.015625)"/>
     </defs>
     <use xlink:href="#DejaVuSerif-53"/>
     <use xlink:href="#DejaVuSerif-61" x="68.505859"/>
     <use xlink:href="#DejaVuSerif-6d" x="128.125"/>
     <use xlink:href="#DejaVuSerif-61" x="222.949219"/>
     <use xlink:href="#DejaVuSerif-72" x="282.568359"/>
     <use xlink:href="#DejaVuSerif-6b" x="330.371094"/>
     <use xlink:href="#DejaVuSerif-61" x="390.966797"/>
     <use xlink:href="#DejaVuSerif-6e" x="450.585938"/>
     <use xlink:href="#DejaVuSerif-64" x="514.990234"/>
    </g>
    <!-- ~750s -->
    <g style="fill: #2980b9" transform="translate(441.044859 276.543983) scale(0.07 -0.07)">
     <defs>
      <path id="DejaVuSerif-7e" d="M 4684 2522 
L 4684 2059 
Q 4372 1784 4090 1653 
Q 3809 1522 3519 1522 
Q 3219 1522 2675 1728 
L 2644 1741 
Q 2609 1753 2541 1781 
Q 2081 1959 1784 1959 
Q 1497 1959 1226 1845 
Q 956 1731 678 1491 
L 678 1966 
Q 991 2238 1270 2364 
Q 1550 2491 1844 2491 
Q 2144 2491 2688 2284 
L 2719 2272 
Q 2753 2259 2816 2234 
Q 3269 2053 3572 2053 
Q 3859 2053 4134 2168 
Q 4409 2284 4684 2522 
z
" transform="scale(0.015625)"/>
      <path id="DejaVuSerif-37" d="M 3609 4347 
L 1784 0 
L 1319 0 
L 3059 4153 
L 903 4153 
L 903 3578 
L 538 3578 
L 538 4666 
L 3609 4666 
L 3609 4347 
z
" transform="scale(0.015625)"/>
      <path id="DejaVuSerif-35" d="M 3219 4666 
L 3219 4153 
L 1081 4153 
L 1081 2816 
Q 1244 2928 1461 2984 
Q 1678 3041 1947 3041 
Q 2703 3041 3140 2622 
Q 3578 2203 3578 1478 
Q 3578 738 3136 323 
Q 2694 -91 1894 -91 
Q 1572 -91 1234 -12 
Q 897 66 544 225 
L 544 1131 
L 897 1131 
Q 925 688 1179 453 
Q 1434 219 1894 219 
Q 2388 219 2653 544 
Q 2919 869 2919 1478 
Q 2919 2084 2655 2407 
Q 2391 2731 1894 2731 
Q 1613 2731 1398 2631 
Q 1184 2531 1019 2322 
L 750 2322 
L 750 4666 
L 3219 4666 
z
" transform="scale(0.015625)"/>
      <path id="DejaVuSerif-73" d="M 359 184 
L 359 959 
L 691 959 
Q 703 588 923 403 
Q 1144 219 1575 219 
Q 1963 219 2166 364 
Q 2369 509 2369 788 
Q 2369 1006 2220 1140 
Q 2072 1275 1594 1428 
L 1178 1569 
Q 750 1706 558 1912 
Q 366 2119 366 2438 
Q 366 2894 700 3153 
Q 1034 3413 1625 3413 
Q 1888 3413 2178 3344 
Q 2469 3275 2778 3144 
L 2778 2419 
L 2447 2419 
Q 2434 2741 2221 2922 
Q 2009 3103 1644 3103 
Q 1281 3103 1095 2975 
Q 909 2847 909 2591 
Q 909 2381 1050 2254 
Q 1191 2128 1613 1997 
L 2069 1856 
Q 2541 1709 2748 1489 
Q 2956 1269 2956 922 
Q 2956 450 2595 179 
Q 2234 -91 1600 -91 
Q 1278 -91 972 -22 
Q 666 47 359 184 
z
" transform="scale(0.015625)"/>
     </defs>
     <use xlink:href="#DejaVuSerif-7e"/>
     <use xlink:href="#DejaVuSerif-37" x="83.789062"/>
     <use xlink:href="#DejaVuSerif-35" x="147.412109"/>
     <use xlink:href="#DejaVuSerif-30" x="211.035156"/>
     <use xlink:href="#DejaVuSerif-73" x="274.658203"/>
    </g>
   </g>
   <g id="text_13">
    <!-- Baghdad -->
    <g style="fill: #2980b9" transform="translate(455.37496 257.844419) scale(0.07 -0.07)">
     <defs>
      <path id="DejaVuSerif-42" d="M 1581 331 
L 2516 331 
Q 3078 331 3337 575 
Q 3597 819 3597 1350 
Q 3597 1878 3339 2120 
Q 3081 2363 2516 2363 
L 1581 2363 
L 1581 331 
z
M 1581 2694 
L 2375 2694 
Q 2888 2694 3123 2891 
Q 3359 3088 3359 3513 
Q 3359 3941 3123 4136 
Q 2888 4331 2375 4331 
L 1581 4331 
L 1581 2694 
z
M 353 0 
L 353 331 
L 947 331 
L 947 4331 
L 353 4331 
L 353 4666 
L 2656 4666 
Q 3363 4666 3720 4377 
Q 4078 4088 4078 3513 
Q 4078 3097 3829 2850 
Q 3581 2603 3103 2547 
Q 3697 2472 4005 2167 
Q 4313 1863 4313 1350 
Q 4313 656 3875 328 
Q 3438 0 2509 0 
L 353 0 
z
" transform="scale(0.015625)"/>
     </defs>
     <use xlink:href="#DejaVuSerif-42"/>
     <use xlink:href="#DejaVuSerif-61" x="73.486328"/>
     <use xlink:href="#DejaVuSerif-67" x="133.105469"/>
     <use xlink:href="#DejaVuSerif-68" x="197.119141"/>
     <use xlink:href="#DejaVuSerif-64" x="261.523438"/>
     <use xlink:href="#DejaVuSerif-61" x="325.537109"/>
     <use xlink:href="#DejaVuSerif-64" x="385.15625"/>
    </g>
    <!-- ~790s -->
    <g style="fill: #2980b9" transform="translate(459.687069 265.782419) scale(0.07 -0.07)">
     <defs>
      <path id="DejaVuSerif-39" d="M 2994 2091 
Q 2784 1856 2512 1740 
Q 2241 1625 1900 1625 
Q 1206 1625 804 2044 
Q 403 2463 403 3188 
Q 403 3897 839 4323 
Q 1275 4750 2003 4750 
Q 2794 4750 3217 4161 
Q 3641 3572 3641 2478 
Q 3641 1253 3137 581 
Q 2634 -91 1722 -91 
Q 1475 -91 1203 -44 
Q 931 3 647 97 
L 647 872 
L 997 872 
Q 1038 556 1241 387 
Q 1444 219 1784 219 
Q 2391 219 2687 676 
Q 2984 1134 2994 2091 
z
M 1978 4441 
Q 1534 4441 1298 4117 
Q 1063 3794 1063 3188 
Q 1063 2581 1298 2256 
Q 1534 1931 1978 1931 
Q 2422 1931 2658 2245 
Q 2894 2559 2894 3150 
Q 2894 3772 2656 4106 
Q 2419 4441 1978 4441 
z
" transform="scale(0.015625)"/>
     </defs>
     <use xlink:href="#DejaVuSerif-7e"/>
     <use xlink:href="#DejaVuSerif-37" x="83.789062"/>
     <use xlink:href="#DejaVuSerif-39" x="147.412109"/>
     <use xlink:href="#DejaVuSerif-30" x="211.035156"/>
     <use xlink:href="#DejaVuSerif-73" x="274.658203"/>
    </g>
   </g>
   <g id="text_14">
    <!-- Egypt -->
    <g style="fill: #2980b9" transform="translate(516.602996 176.590518) scale(0.07 -0.07)">
     <defs>
      <path id="DejaVuSerif-79" d="M 1381 -609 
L 1600 -56 
L 359 2988 
L -19 2988 
L -19 3322 
L 1509 3322 
L 1509 2988 
L 978 2988 
L 1913 703 
L 2847 2988 
L 2350 2988 
L 2350 3322 
L 3597 3322 
L 3597 2988 
L 3225 2988 
L 1703 -750 
Q 1547 -1138 1356 -1280 
Q 1166 -1422 819 -1422 
Q 672 -1422 517 -1397 
Q 363 -1372 206 -1325 
L 206 -691 
L 500 -691 
Q 519 -903 608 -995 
Q 697 -1088 884 -1088 
Q 1056 -1088 1161 -992 
Q 1266 -897 1381 -609 
z
" transform="scale(0.015625)"/>
     </defs>
     <use xlink:href="#DejaVuSerif-45"/>
     <use xlink:href="#DejaVuSerif-67" x="72.998047"/>
     <use xlink:href="#DejaVuSerif-79" x="137.011719"/>
     <use xlink:href="#DejaVuSerif-70" x="193.505859"/>
     <use xlink:href="#DejaVuSerif-74" x="257.519531"/>
    </g>
    <!-- ~900s -->
    <g style="fill: #2980b9" transform="translate(515.613699 184.528518) scale(0.07 -0.07)">
     <use xlink:href="#DejaVuSerif-7e"/>
     <use xlink:href="#DejaVuSerif-39" x="83.789062"/>
     <use xlink:href="#DejaVuSerif-30" x="147.412109"/>
     <use xlink:href="#DejaVuSerif-30" x="211.035156"/>
     <use xlink:href="#DejaVuSerif-73" x="274.658203"/>
    </g>
   </g>
   <g id="text_15">
    <!-- Europe -->
    <g style="fill: #2980b9" transform="translate(620.648737 76.497717) scale(0.07 -0.07)">
     <defs>
      <path id="DejaVuSerif-75" d="M 2266 3322 
L 3341 3322 
L 3341 331 
L 3884 331 
L 3884 0 
L 2766 0 
L 2766 588 
Q 2606 256 2353 82 
Q 2100 -91 1766 -91 
Q 1213 -91 952 223 
Q 691 538 691 1209 
L 691 2988 
L 172 2988 
L 172 3322 
L 1269 3322 
L 1269 1388 
Q 1269 781 1417 556 
Q 1566 331 1947 331 
Q 2347 331 2556 625 
Q 2766 919 2766 1478 
L 2766 2988 
L 2266 2988 
L 2266 3322 
z
" transform="scale(0.015625)"/>
     </defs>
     <use xlink:href="#DejaVuSerif-45"/>
     <use xlink:href="#DejaVuSerif-75" x="72.998047"/>
     <use xlink:href="#DejaVuSerif-72" x="137.402344"/>
     <use xlink:href="#DejaVuSerif-6f" x="185.205078"/>
     <use xlink:href="#DejaVuSerif-70" x="245.410156"/>
     <use xlink:href="#DejaVuSerif-65" x="309.423828"/>
    </g>
    <!-- ~1100s -->
    <g style="fill: #2980b9" transform="translate(619.913737 84.336186) scale(0.07 -0.07)">
     <use xlink:href="#DejaVuSerif-7e"/>
     <use xlink:href="#DejaVuSerif-31" x="83.789062"/>
     <use xlink:href="#DejaVuSerif-31" x="147.412109"/>
     <use xlink:href="#DejaVuSerif-30" x="211.035156"/>
     <use xlink:href="#DejaVuSerif-30" x="274.658203"/>
     <use xlink:href="#DejaVuSerif-73" x="338.28125"/>
    </g>
   </g>
   <g id="text_16">
    <g id="patch_7">
     <path d="M 606.918337 246.390244 
L 755.708025 246.390244 
Q 758.408025 246.390244 758.408025 243.690244 
L 758.408025 214.439963 
Q 758.408025 211.739963 755.708025 211.739963 
L 606.918337 211.739963 
Q 604.218337 211.739963 604.218337 214.439963 
L 604.218337 243.690244 
Q 604.218337 246.390244 606.918337 246.390244 
z
" style="fill: #ffffff; opacity: 0.7; stroke: #2980b9; stroke-linejoin: miter"/>
    </g>
    <!-- The idea is its own supply chain. -->
    <g style="fill: #2980b9" transform="translate(606.918337 221.278557) scale(0.09 -0.09)">
     <defs>
      <path id="DejaVuSerif-Italic-54" d="M 769 0 
L 831 331 
L 1428 331 
L 2200 4294 
L 828 4294 
L 688 3566 
L 303 3566 
L 516 4666 
L 4659 4666 
L 4447 3566 
L 4063 3566 
L 4203 4294 
L 2831 4294 
L 2059 331 
L 2656 331 
L 2594 0 
L 769 0 
z
" transform="scale(0.015625)"/>
      <path id="DejaVuSerif-Italic-63" d="M 3163 997 
Q 2938 466 2536 187 
Q 2134 -91 1584 -91 
Q 859 -91 513 388 
Q 272 722 272 1203 
Q 272 1419 319 1663 
Q 475 2459 1008 2936 
Q 1541 3413 2266 3413 
Q 2581 3413 2879 3339 
Q 3178 3266 3463 3116 
L 3300 2266 
L 2966 2266 
Q 2966 2309 2966 2347 
Q 2966 2722 2803 2903 
Q 2622 3103 2213 3103 
Q 1747 3103 1439 2742 
Q 1131 2381 991 1663 
Q 928 1334 928 1078 
Q 928 778 1016 581 
Q 1181 219 1650 219 
Q 2022 219 2281 412 
Q 2541 606 2700 997 
L 3163 997 
z
" transform="scale(0.015625)"/>
      <path id="DejaVuSerif-Italic-2e" d="M 664 29 
Q 569 150 603 325 
Q 638 500 780 622 
Q 922 744 1100 744 
Q 1272 744 1370 622 
Q 1469 500 1434 325 
Q 1400 153 1254 31 
Q 1109 -91 938 -91 
Q 759 -91 664 29 
z
" transform="scale(0.015625)"/>
     </defs>
     <use xlink:href="#DejaVuSerif-Italic-54"/>
     <use xlink:href="#DejaVuSerif-Italic-68" x="66.699219"/>
     <use xlink:href="#DejaVuSerif-Italic-65" x="131.103516"/>
     <use xlink:href="#DejaVuSerif-Italic-20" x="190.283203"/>
     <use xlink:href="#DejaVuSerif-Italic-69" x="222.070312"/>
     <use xlink:href="#DejaVuSerif-Italic-64" x="254.052734"/>
     <use xlink:href="#DejaVuSerif-Italic-65" x="318.066406"/>
     <use xlink:href="#DejaVuSerif-Italic-61" x="377.246094"/>
     <use xlink:href="#DejaVuSerif-Italic-20" x="436.865234"/>
     <use xlink:href="#DejaVuSerif-Italic-69" x="468.652344"/>
     <use xlink:href="#DejaVuSerif-Italic-73" x="500.634766"/>
     <use xlink:href="#DejaVuSerif-Italic-20" x="551.953125"/>
     <use xlink:href="#DejaVuSerif-Italic-69" x="583.740234"/>
     <use xlink:href="#DejaVuSerif-Italic-74" x="615.722656"/>
     <use xlink:href="#DejaVuSerif-Italic-73" x="655.908203"/>
     <use xlink:href="#DejaVuSerif-Italic-20" x="707.226562"/>
     <use xlink:href="#DejaVuSerif-Italic-6f" x="739.013672"/>
     <use xlink:href="#DejaVuSerif-Italic-77" x="799.21875"/>
     <use xlink:href="#DejaVuSerif-Italic-6e" x="884.814453"/>
     <use xlink:href="#DejaVuSerif-Italic-20" x="949.21875"/>
     <use xlink:href="#DejaVuSerif-Italic-73" x="981.005859"/>
     <use xlink:href="#DejaVuSerif-Italic-75" x="1032.324219"/>
     <use xlink:href="#DejaVuSerif-Italic-70" x="1096.728516"/>
     <use xlink:href="#DejaVuSerif-Italic-70" x="1160.742188"/>
     <use xlink:href="#DejaVuSerif-Italic-6c" x="1224.755859"/>
     <use xlink:href="#DejaVuSerif-Italic-79" x="1256.738281"/>
     <use xlink:href="#DejaVuSerif-Italic-20" x="1313.232422"/>
     <use xlink:href="#DejaVuSerif-Italic-63" x="1345.019531"/>
     <use xlink:href="#DejaVuSerif-Italic-68" x="1401.025391"/>
     <use xlink:href="#DejaVuSerif-Italic-61" x="1465.429688"/>
     <use xlink:href="#DejaVuSerif-Italic-69" x="1525.048828"/>
     <use xlink:href="#DejaVuSerif-Italic-6e" x="1557.03125"/>
     <use xlink:href="#DejaVuSerif-Italic-2e" x="1621.435547"/>
    </g>
    <!-- Once you have the recipe, -->
    <g style="fill: #2980b9" transform="translate(606.918337 231.484557) scale(0.09 -0.09)">
     <defs>
      <path id="DejaVuSerif-Italic-4f" d="M 2219 244 
Q 2984 244 3478 770 
Q 3972 1297 4172 2328 
Q 4372 3363 4084 3889 
Q 3797 4416 3031 4416 
Q 2263 4416 1769 3889 
Q 1275 3363 1075 2328 
Q 875 1297 1162 770 
Q 1450 244 2219 244 
z
M 2153 -91 
Q 1678 -91 1311 65 
Q 944 222 700 525 
Q 419 875 334 1319 
Q 250 1763 359 2328 
Q 469 2894 725 3339 
Q 981 3784 1400 4134 
Q 1766 4441 2191 4595 
Q 2616 4750 3097 4750 
Q 4113 4750 4608 4084 
Q 5103 3419 4891 2328 
Q 4781 1769 4522 1320 
Q 4263 872 3847 525 
Q 3481 219 3056 64 
Q 2631 -91 2153 -91 
z
" transform="scale(0.015625)"/>
      <path id="DejaVuSerif-Italic-76" d="M 1681 0 
L 1259 0 
L 619 2988 
L 241 2988 
L 303 3322 
L 1163 3322 
L 1725 703 
Q 2084 1016 2325 1413 
Q 2825 2238 3003 2988 
L 2622 2988 
L 2688 3322 
L 3547 3322 
Q 3206 2034 2775 1313 
Q 2400 688 1681 0 
z
" transform="scale(0.015625)"/>
      <path id="DejaVuSerif-Italic-2c" d="M 125 -622 
Q 463 -406 656 -114 
Q 850 178 931 594 
L 953 709 
L 1569 709 
Q 1441 175 1139 -208 
Q 838 -591 328 -872 
L 125 -622 
z
" transform="scale(0.015625)"/>
     </defs>
     <use xlink:href="#DejaVuSerif-Italic-4f"/>
     <use xlink:href="#DejaVuSerif-Italic-6e" x="81.982422"/>
     <use xlink:href="#DejaVuSerif-Italic-63" x="146.386719"/>
     <use xlink:href="#DejaVuSerif-Italic-65" x="202.392578"/>
     <use xlink:href="#DejaVuSerif-Italic-20" x="261.572266"/>
     <use xlink:href="#DejaVuSerif-Italic-79" x="293.359375"/>
     <use xlink:href="#DejaVuSerif-Italic-6f" x="349.853516"/>
     <use xlink:href="#DejaVuSerif-Italic-75" x="410.058594"/>
     <use xlink:href="#DejaVuSerif-Italic-20" x="474.462891"/>
     <use xlink:href="#DejaVuSerif-Italic-68" x="506.25"/>
     <use xlink:href="#DejaVuSerif-Italic-61" x="570.654297"/>
     <use xlink:href="#DejaVuSerif-Italic-76" x="630.273438"/>
     <use xlink:href="#DejaVuSerif-Italic-65" x="686.767578"/>
     <use xlink:href="#DejaVuSerif-Italic-20" x="745.947266"/>
     <use xlink:href="#DejaVuSerif-Italic-74" x="777.734375"/>
     <use xlink:href="#DejaVuSerif-Italic-68" x="817.919922"/>
     <use xlink:href="#DejaVuSerif-Italic-65" x="882.324219"/>
     <use xlink:href="#DejaVuSerif-Italic-20" x="941.503906"/>
     <use xlink:href="#DejaVuSerif-Italic-72" x="973.291016"/>
     <use xlink:href="#DejaVuSerif-Italic-65" x="1021.09375"/>
     <use xlink:href="#DejaVuSerif-Italic-63" x="1080.273438"/>
     <use xlink:href="#DejaVuSerif-Italic-69" x="1136.279297"/>
     <use xlink:href="#DejaVuSerif-Italic-70" x="1168.261719"/>
     <use xlink:href="#DejaVuSerif-Italic-65" x="1232.275391"/>
     <use xlink:href="#DejaVuSerif-Italic-2c" x="1291.455078"/>
    </g>
    <!-- you don't need the trade route. -->
    <g style="fill: #2980b9" transform="translate(606.918337 241.690557) scale(0.09 -0.09)">
     <use xlink:href="#DejaVuSerif-Italic-79"/>
     <use xlink:href="#DejaVuSerif-Italic-6f" x="56.494141"/>
     <use xlink:href="#DejaVuSerif-Italic-75" x="116.699219"/>
     <use xlink:href="#DejaVuSerif-Italic-20" x="181.103516"/>
     <use xlink:href="#DejaVuSerif-Italic-64" x="212.890625"/>
     <use xlink:href="#DejaVuSerif-Italic-6f" x="276.904297"/>
     <use xlink:href="#DejaVuSerif-Italic-6e" x="337.109375"/>
     <use xlink:href="#DejaVuSerif-Italic-27" x="401.513672"/>
     <use xlink:href="#DejaVuSerif-Italic-74" x="429.003906"/>
     <use xlink:href="#DejaVuSerif-Italic-20" x="469.189453"/>
     <use xlink:href="#DejaVuSerif-Italic-6e" x="500.976562"/>
     <use xlink:href="#DejaVuSerif-Italic-65" x="565.380859"/>
     <use xlink:href="#DejaVuSerif-Italic-65" x="624.560547"/>
     <use xlink:href="#DejaVuSerif-Italic-64" x="683.740234"/>
     <use xlink:href="#DejaVuSerif-Italic-20" x="747.753906"/>
     <use xlink:href="#DejaVuSerif-Italic-74" x="779.541016"/>
     <use xlink:href="#DejaVuSerif-Italic-68" x="819.726562"/>
     <use xlink:href="#DejaVuSerif-Italic-65" x="884.130859"/>
     <use xlink:href="#DejaVuSerif-Italic-20" x="943.310547"/>
     <use xlink:href="#DejaVuSerif-Italic-74" x="975.097656"/>
     <use xlink:href="#DejaVuSerif-Italic-72" x="1015.283203"/>
     <use xlink:href="#DejaVuSerif-Italic-61" x="1063.085938"/>
     <use xlink:href="#DejaVuSerif-Italic-64" x="1122.705078"/>
     <use xlink:href="#DejaVuSerif-Italic-65" x="1186.71875"/>
     <use xlink:href="#DejaVuSerif-Italic-20" x="1245.898438"/>
     <use xlink:href="#DejaVuSerif-Italic-72" x="1277.685547"/>
     <use xlink:href="#DejaVuSerif-Italic-6f" x="1325.488281"/>
     <use xlink:href="#DejaVuSerif-Italic-75" x="1385.693359"/>
     <use xlink:href="#DejaVuSerif-Italic-74" x="1450.097656"/>
     <use xlink:href="#DejaVuSerif-Italic-65" x="1490.283203"/>
     <use xlink:href="#DejaVuSerif-Italic-2e" x="1549.462891"/>
    </g>
   </g>
   <g id="text_17">
    <!-- Process Knowledge vs. Commodity Diffusion -->
    <g transform="translate(218.594036 17.077969) scale(0.13 -0.13)">
     <defs>
      <path id="DejaVuSerif-Bold-50" d="M 300 0 
L 300 378 
L 897 378 
L 897 4288 
L 300 4288 
L 300 4666 
L 2956 4666 
Q 3734 4666 4193 4295 
Q 4653 3925 4653 3303 
Q 4653 2678 4192 2304 
Q 3731 1931 2956 1931 
L 2100 1931 
L 2100 378 
L 2853 378 
L 2853 0 
L 300 0 
z
M 2100 2309 
L 2450 2309 
Q 2856 2309 3098 2579 
Q 3341 2850 3341 3303 
Q 3341 3753 3100 4020 
Q 2859 4288 2450 4288 
L 2100 4288 
L 2100 2309 
z
" transform="scale(0.015625)"/>
      <path id="DejaVuSerif-Bold-63" d="M 3609 1038 
Q 3491 469 3123 189 
Q 2756 -91 2125 -91 
Q 1238 -91 750 368 
Q 263 828 263 1663 
Q 263 2488 744 2950 
Q 1225 3413 2081 3413 
Q 2428 3413 2781 3347 
Q 3134 3281 3500 3150 
L 3500 2228 
L 3150 2228 
Q 3100 2650 2903 2854 
Q 2706 3059 2350 3059 
Q 1888 3059 1692 2746 
Q 1497 2434 1497 1663 
Q 1497 909 1687 586 
Q 1878 263 2309 263 
Q 2644 263 2845 463 
Q 3047 663 3091 1038 
L 3609 1038 
z
" transform="scale(0.015625)"/>
      <path id="DejaVuSerif-Bold-4b" d="M 300 0 
L 300 378 
L 897 378 
L 897 4288 
L 300 4288 
L 300 4666 
L 2700 4666 
L 2700 4288 
L 2100 4288 
L 2100 2584 
L 4078 4288 
L 3578 4288 
L 3578 4666 
L 5319 4666 
L 5319 4288 
L 4697 4288 
L 3022 2847 
L 5300 378 
L 5759 378 
L 5759 0 
L 4178 0 
L 2100 2266 
L 2100 378 
L 2700 378 
L 2700 0 
L 300 0 
z
" transform="scale(0.015625)"/>
      <path id="DejaVuSerif-Bold-77" d="M 3450 3322 
L 4206 1106 
L 4831 2944 
L 4397 2944 
L 4397 3322 
L 5638 3322 
L 5638 2944 
L 5247 2944 
L 4244 0 
L 3481 0 
L 2778 2081 
L 2069 0 
L 1313 0 
L 306 2944 
L -56 2944 
L -56 3322 
L 1825 3322 
L 1825 2944 
L 1434 2944 
L 2047 1147 
L 2791 3322 
L 3450 3322 
z
" transform="scale(0.015625)"/>
      <path id="DejaVuSerif-Bold-67" d="M 3853 2944 
L 3853 44 
Q 3853 -656 3354 -1039 
Q 2856 -1422 1947 -1422 
Q 1616 -1422 1275 -1370 
Q 934 -1319 575 -1216 
L 575 -422 
L 928 -422 
Q 975 -750 1192 -909 
Q 1409 -1069 1813 -1069 
Q 2325 -1069 2536 -823 
Q 2747 -578 2747 44 
L 2747 422 
Q 2606 163 2367 36 
Q 2128 -91 1778 -91 
Q 1072 -91 667 378 
Q 263 847 263 1663 
Q 263 2481 667 2947 
Q 1072 3413 1778 3413 
Q 2128 3413 2367 3286 
Q 2606 3159 2747 2900 
L 2747 3322 
L 4325 3322 
L 4325 2944 
L 3853 2944 
z
M 2747 1825 
Q 2747 2406 2597 2665 
Q 2447 2925 2119 2925 
Q 1775 2925 1636 2651 
Q 1497 2378 1497 1663 
Q 1497 947 1637 672 
Q 1778 397 2119 397 
Q 2447 397 2597 656 
Q 2747 916 2747 1497 
L 2747 1825 
z
" transform="scale(0.015625)"/>
      <path id="DejaVuSerif-Bold-2e" d="M 519 506 
Q 519 750 694 925 
Q 869 1100 1113 1100 
Q 1359 1100 1534 925 
Q 1709 750 1709 506 
Q 1709 259 1534 84 
Q 1359 -91 1113 -91 
Q 869 -91 694 84 
Q 519 259 519 506 
z
" transform="scale(0.015625)"/>
      <path id="DejaVuSerif-Bold-6d" d="M 3884 2778 
Q 4116 3109 4384 3261 
Q 4653 3413 5013 3413 
Q 5584 3413 5867 3089 
Q 6150 2766 6150 2113 
L 6150 378 
L 6625 378 
L 6625 0 
L 4647 0 
L 4647 378 
L 5044 378 
L 5044 1947 
Q 5044 2569 4948 2731 
Q 4853 2894 4594 2894 
Q 4300 2894 4137 2667 
Q 3975 2441 3975 2022 
L 3975 378 
L 4372 378 
L 4372 0 
L 2472 0 
L 2472 378 
L 2869 378 
L 2869 1947 
Q 2869 2569 2772 2731 
Q 2675 2894 2419 2894 
Q 2122 2894 1959 2667 
Q 1797 2441 1797 2022 
L 1797 378 
L 2194 378 
L 2194 0 
L 219 0 
L 219 378 
L 691 378 
L 691 2944 
L 219 2944 
L 219 3322 
L 1797 3322 
L 1797 2853 
Q 1991 3144 2241 3278 
Q 2491 3413 2834 3413 
Q 3241 3413 3494 3258 
Q 3747 3103 3884 2778 
z
" transform="scale(0.015625)"/>
      <path id="DejaVuSerif-Bold-69" d="M 588 4263 
Q 588 4516 763 4689 
Q 938 4863 1191 4863 
Q 1438 4863 1611 4689 
Q 1784 4516 1784 4263 
Q 1784 4016 1611 3842 
Q 1438 3669 1191 3669 
Q 938 3669 763 3841 
Q 588 4013 588 4263 
z
M 1797 378 
L 2272 378 
L 2272 0 
L 219 0 
L 219 378 
L 691 378 
L 691 2944 
L 219 2944 
L 219 3322 
L 1797 3322 
L 1797 378 
z
" transform="scale(0.015625)"/>
      <path id="DejaVuSerif-Bold-79" d="M 1997 -750 
Q 1847 -1116 1634 -1269 
Q 1422 -1422 1063 -1422 
Q 909 -1422 721 -1387 
Q 534 -1353 313 -1288 
L 313 -594 
L 666 -597 
Q 675 -838 779 -953 
Q 884 -1069 1094 -1069 
Q 1297 -1069 1422 -958 
Q 1547 -847 1672 -538 
L 1722 -422 
L 275 2944 
L -84 2944 
L -84 3322 
L 1831 3322 
L 1831 2944 
L 1434 2944 
L 2278 978 
L 3066 2944 
L 2625 2944 
L 2625 3322 
L 3872 3322 
L 3872 2944 
L 3469 2944 
L 1997 -750 
z
" transform="scale(0.015625)"/>
      <path id="DejaVuSerif-Bold-44" d="M 2100 378 
L 2534 378 
Q 3266 378 3605 847 
Q 3944 1316 3944 2338 
Q 3944 3353 3606 3820 
Q 3269 4288 2534 4288 
L 2100 4288 
L 2100 378 
z
M 300 0 
L 300 378 
L 897 378 
L 897 4288 
L 300 4288 
L 300 4666 
L 2694 4666 
Q 3950 4666 4615 4066 
Q 5281 3466 5281 2338 
Q 5281 1203 4614 601 
Q 3947 0 2694 0 
L 300 0 
z
" transform="scale(0.015625)"/>
      <path id="DejaVuSerif-Bold-75" d="M 3963 3322 
L 3963 378 
L 4434 378 
L 4434 0 
L 2853 0 
L 2853 469 
Q 2656 172 2400 40 
Q 2144 -91 1753 -91 
Q 1194 -91 908 239 
Q 622 569 622 1209 
L 622 2944 
L 147 2944 
L 147 3322 
L 1728 3322 
L 1728 1381 
Q 1728 763 1831 595 
Q 1934 428 2209 428 
Q 2544 428 2698 675 
Q 2853 922 2853 1459 
L 2853 2944 
L 2450 2944 
L 2450 3322 
L 3963 3322 
z
" transform="scale(0.015625)"/>
     </defs>
     <use xlink:href="#DejaVuSerif-Bold-50"/>
     <use xlink:href="#DejaVuSerif-Bold-72" x="75.195312"/>
     <use xlink:href="#DejaVuSerif-Bold-6f" x="127.880859"/>
     <use xlink:href="#DejaVuSerif-Bold-63" x="194.580078"/>
     <use xlink:href="#DejaVuSerif-Bold-65" x="255.46875"/>
     <use xlink:href="#DejaVuSerif-Bold-73" x="319.091797"/>
     <use xlink:href="#DejaVuSerif-Bold-73" x="375.390625"/>
     <use xlink:href="#DejaVuSerif-Bold-20" x="431.689453"/>
     <use xlink:href="#DejaVuSerif-Bold-4b" x="466.503906"/>
     <use xlink:href="#DejaVuSerif-Bold-6e" x="553.417969"/>
     <use xlink:href="#DejaVuSerif-Bold-6f" x="626.123047"/>
     <use xlink:href="#DejaVuSerif-Bold-77" x="692.822266"/>
     <use xlink:href="#DejaVuSerif-Bold-6c" x="778.90625"/>
     <use xlink:href="#DejaVuSerif-Bold-65" x="816.894531"/>
     <use xlink:href="#DejaVuSerif-Bold-64" x="880.517578"/>
     <use xlink:href="#DejaVuSerif-Bold-67" x="950.439453"/>
     <use xlink:href="#DejaVuSerif-Bold-65" x="1020.361328"/>
     <use xlink:href="#DejaVuSerif-Bold-20" x="1083.984375"/>
     <use xlink:href="#DejaVuSerif-Bold-76" x="1118.798828"/>
     <use xlink:href="#DejaVuSerif-Bold-73" x="1176.904297"/>
     <use xlink:href="#DejaVuSerif-Bold-2e" x="1233.203125"/>
     <use xlink:href="#DejaVuSerif-Bold-20" x="1268.017578"/>
     <use xlink:href="#DejaVuSerif-Bold-43" x="1302.832031"/>
     <use xlink:href="#DejaVuSerif-Bold-6f" x="1382.421875"/>
     <use xlink:href="#DejaVuSerif-Bold-6d" x="1449.121094"/>
     <use xlink:href="#DejaVuSerif-Bold-6d" x="1554.931641"/>
     <use xlink:href="#DejaVuSerif-Bold-6f" x="1660.742188"/>
     <use xlink:href="#DejaVuSerif-Bold-64" x="1727.441406"/>
     <use xlink:href="#DejaVuSerif-Bold-69" x="1797.363281"/>
     <use xlink:href="#DejaVuSerif-Bold-74" x="1835.351562"/>
     <use xlink:href="#DejaVuSerif-Bold-79" x="1881.542969"/>
     <use xlink:href="#DejaVuSerif-Bold-20" x="1939.648438"/>
     <use xlink:href="#DejaVuSerif-Bold-44" x="1974.462891"/>
     <use xlink:href="#DejaVuSerif-Bold-69" x="2061.181641"/>
     <use xlink:href="#DejaVuSerif-Bold-66" x="2099.169922"/>
     <use xlink:href="#DejaVuSerif-Bold-66" x="2142.1875"/>
     <use xlink:href="#DejaVuSerif-Bold-75" x="2185.205078"/>
     <use xlink:href="#DejaVuSerif-Bold-73" x="2257.910156"/>
     <use xlink:href="#DejaVuSerif-Bold-69" x="2314.208984"/>
     <use xlink:href="#DejaVuSerif-Bold-6f" x="2352.197266"/>
     <use xlink:href="#DejaVuSerif-Bold-6e" x="2418.896484"/>
    </g>
    <!-- Two transmission mechanisms, two curve shapes, same corridor -->
    <g transform="translate(146.918333 31.819969) scale(0.13 -0.13)">
     <defs>
      <path id="DejaVuSerif-Bold-2c" d="M 84 -616 
Q 409 -353 562 -28 
Q 716 297 716 728 
L 716 997 
L 1606 997 
L 1606 972 
Q 1606 281 1317 -217 
Q 1028 -716 428 -1056 
L 84 -616 
z
" transform="scale(0.015625)"/>
      <path id="DejaVuSerif-Bold-70" d="M 1728 1825 
L 1728 1497 
Q 1728 916 1876 656 
Q 2025 397 2356 397 
Q 2697 397 2836 672 
Q 2975 947 2975 1663 
Q 2975 2378 2836 2651 
Q 2697 2925 2356 2925 
Q 2025 2925 1876 2665 
Q 1728 2406 1728 1825 
z
M 622 2944 
L 147 2944 
L 147 3322 
L 1728 3322 
L 1728 2900 
Q 1869 3159 2106 3286 
Q 2344 3413 2694 3413 
Q 3403 3413 3811 2945 
Q 4219 2478 4219 1663 
Q 4219 847 3811 378 
Q 3403 -91 2694 -91 
Q 2344 -91 2106 36 
Q 1869 163 1728 422 
L 1728 -953 
L 2241 -953 
L 2241 -1331 
L 147 -1331 
L 147 -953 
L 622 -953 
L 622 2944 
z
" transform="scale(0.015625)"/>
     </defs>
     <use xlink:href="#DejaVuSerif-Bold-54"/>
     <use xlink:href="#DejaVuSerif-Bold-77" x="63.414062"/>
     <use xlink:href="#DejaVuSerif-Bold-6f" x="149.498047"/>
     <use xlink:href="#DejaVuSerif-Bold-20" x="216.197266"/>
     <use xlink:href="#DejaVuSerif-Bold-74" x="251.011719"/>
     <use xlink:href="#DejaVuSerif-Bold-72" x="297.203125"/>
     <use xlink:href="#DejaVuSerif-Bold-61" x="349.888672"/>
     <use xlink:href="#DejaVuSerif-Bold-6e" x="414.683594"/>
     <use xlink:href="#DejaVuSerif-Bold-73" x="487.388672"/>
     <use xlink:href="#DejaVuSerif-Bold-6d" x="543.6875"/>
     <use xlink:href="#DejaVuSerif-Bold-69" x="649.498047"/>
     <use xlink:href="#DejaVuSerif-Bold-73" x="687.486328"/>
     <use xlink:href="#DejaVuSerif-Bold-73" x="743.785156"/>
     <use xlink:href="#DejaVuSerif-Bold-69" x="800.083984"/>
     <use xlink:href="#DejaVuSerif-Bold-6f" x="838.072266"/>
     <use xlink:href="#DejaVuSerif-Bold-6e" x="904.771484"/>
     <use xlink:href="#DejaVuSerif-Bold-20" x="977.476562"/>
     <use xlink:href="#DejaVuSerif-Bold-6d" x="1012.291016"/>
     <use xlink:href="#DejaVuSerif-Bold-65" x="1118.101562"/>
     <use xlink:href="#DejaVuSerif-Bold-63" x="1181.724609"/>
     <use xlink:href="#DejaVuSerif-Bold-68" x="1242.613281"/>
     <use xlink:href="#DejaVuSerif-Bold-61" x="1315.318359"/>
     <use xlink:href="#DejaVuSerif-Bold-6e" x="1380.113281"/>
     <use xlink:href="#DejaVuSerif-Bold-69" x="1452.818359"/>
     <use xlink:href="#DejaVuSerif-Bold-73" x="1490.806641"/>
     <use xlink:href="#DejaVuSerif-Bold-6d" x="1547.105469"/>
     <use xlink:href="#DejaVuSerif-Bold-73" x="1652.916016"/>
     <use xlink:href="#DejaVuSerif-Bold-2c" x="1709.214844"/>
     <use xlink:href="#DejaVuSerif-Bold-20" x="1744.029297"/>
     <use xlink:href="#DejaVuSerif-Bold-74" x="1778.84375"/>
     <use xlink:href="#DejaVuSerif-Bold-77" x="1825.035156"/>
     <use xlink:href="#DejaVuSerif-Bold-6f" x="1911.119141"/>
     <use xlink:href="#DejaVuSerif-Bold-20" x="1977.818359"/>
     <use xlink:href="#DejaVuSerif-Bold-63" x="2012.632812"/>
     <use xlink:href="#DejaVuSerif-Bold-75" x="2073.521484"/>
     <use xlink:href="#DejaVuSerif-Bold-72" x="2146.226562"/>
     <use xlink:href="#DejaVuSerif-Bold-76" x="2198.912109"/>
     <use xlink:href="#DejaVuSerif-Bold-65" x="2257.017578"/>
     <use xlink:href="#DejaVuSerif-Bold-20" x="2320.640625"/>
     <use xlink:href="#DejaVuSerif-Bold-73" x="2355.455078"/>
     <use xlink:href="#DejaVuSerif-Bold-68" x="2411.753906"/>
     <use xlink:href="#DejaVuSerif-Bold-61" x="2484.458984"/>
     <use xlink:href="#DejaVuSerif-Bold-70" x="2549.253906"/>
     <use xlink:href="#DejaVuSerif-Bold-65" x="2619.175781"/>
     <use xlink:href="#DejaVuSerif-Bold-73" x="2682.798828"/>
     <use xlink:href="#DejaVuSerif-Bold-2c" x="2739.097656"/>
     <use xlink:href="#DejaVuSerif-Bold-20" x="2773.912109"/>
     <use xlink:href="#DejaVuSerif-Bold-73" x="2808.726562"/>
     <use xlink:href="#DejaVuSerif-Bold-61" x="2865.025391"/>
     <use xlink:href="#DejaVuSerif-Bold-6d" x="2929.820312"/>
     <use xlink:href="#DejaVuSerif-Bold-65" x="3035.630859"/>
     <use xlink:href="#DejaVuSerif-Bold-20" x="3099.253906"/>
     <use xlink:href="#DejaVuSerif-Bold-63" x="3134.068359"/>
     <use xlink:href="#DejaVuSerif-Bold-6f" x="3194.957031"/>
     <use xlink:href="#DejaVuSerif-Bold-72" x="3261.65625"/>
     <use xlink:href="#DejaVuSerif-Bold-72" x="3314.341797"/>
     <use xlink:href="#DejaVuSerif-Bold-69" x="3367.027344"/>
     <use xlink:href="#DejaVuSerif-Bold-64" x="3405.015625"/>
     <use xlink:href="#DejaVuSerif-Bold-6f" x="3474.9375"/>
     <use xlink:href="#DejaVuSerif-Bold-72" x="3541.636719"/>
    </g>
   </g>
   <g id="line2d_11">
    <defs>
     <path id="m5afc6a4e52" d="M 0 3 
C 0.795609 3 1.55874 2.683901 2.12132 2.12132 
C 2.683901 1.55874 3 0.795609 3 0 
C 3 -0.795609 2.683901 -1.55874 2.12132 -2.12132 
C 1.55874 -2.683901 0.795609 -3 0 -3 
C -0.795609 -3 -1.55874 -2.683901 -2.12132 -2.12132 
C -2.683901 -1.55874 -3 -0.795609 -3 0 
C -3 0.795609 -2.683901 1.55874 -2.12132 2.12132 
C -1.55874 2.683901 -0.795609 3 0 3 
z
" style="stroke: #2980b9"/>
    </defs>
    <g clip-path="url(#p9d304f43c0)">
     <use xlink:href="#m5afc6a4e52" x="452.454313" y="294.731904" style="fill: #2980b9; stroke: #2980b9"/>
    </g>
   </g>
   <g id="line2d_12">
    <g clip-path="url(#p9d304f43c0)">
     <use xlink:href="#m5afc6a4e52" x="471.096522" y="283.970341" style="fill: #2980b9; stroke: #2980b9"/>
    </g>
   </g>
   <g id="line2d_13">
    <g clip-path="url(#p9d304f43c0)">
     <use xlink:href="#m5afc6a4e52" x="527.023152" y="202.716439" style="fill: #2980b9; stroke: #2980b9"/>
    </g>
   </g>
   <g id="line2d_14">
    <g clip-path="url(#p9d304f43c0)">
     <use xlink:href="#m5afc6a4e52" x="633.550066" y="102.524108" style="fill: #2980b9; stroke: #2980b9"/>
    </g>
   </g>
   <g id="legend_1">
    <g id="patch_8">
     <path d="M 27.320313 80.696531 
L 361.241406 80.696531 
Q 363.041406 80.696531 363.041406 78.896531 
L 363.041406 53.119969 
Q 363.041406 51.319969 361.241406 51.319969 
L 27.320313 51.319969 
Q 25.520313 51.319969 25.520313 53.119969 
L 25.520313 78.896531 
Q 25.520313 80.696531 27.320313 80.696531 
z
" style="fill: #ffffff; opacity: 0.9; stroke: #cccccc; stroke-linejoin: miter"/>
    </g>
    <g id="line2d_15">
     <path d="M 29.120313 58.608562 
L 38.120313 58.608562 
L 47.120313 58.608562 
" style="fill: none; stroke: #e67e22; stroke-width: 2.5; stroke-linecap: square"/>
    </g>
    <g id="text_18">
     <!-- Silk (commodity) — continuous supply chain -->
     <g transform="translate(54.320313 61.758562) scale(0.09 -0.09)">
      <defs>
       <path id="DejaVuSerif-6c" d="M 1313 331 
L 1856 331 
L 1856 0 
L 184 0 
L 184 331 
L 738 331 
L 738 4531 
L 184 4531 
L 184 4863 
L 1313 4863 
L 1313 331 
z
" transform="scale(0.015625)"/>
       <path id="DejaVuSerif-2014" d="M 281 1906 
L 6119 1906 
L 6119 1491 
L 281 1491 
L 281 1906 
z
" transform="scale(0.015625)"/>
      </defs>
      <use xlink:href="#DejaVuSerif-53"/>
      <use xlink:href="#DejaVuSerif-69" x="68.505859"/>
      <use xlink:href="#DejaVuSerif-6c" x="100.488281"/>
      <use xlink:href="#DejaVuSerif-6b" x="132.470703"/>
      <use xlink:href="#DejaVuSerif-20" x="193.066406"/>
      <use xlink:href="#DejaVuSerif-28" x="224.853516"/>
      <use xlink:href="#DejaVuSerif-63" x="263.867188"/>
      <use xlink:href="#DejaVuSerif-6f" x="319.873047"/>
      <use xlink:href="#DejaVuSerif-6d" x="380.078125"/>
      <use xlink:href="#DejaVuSerif-6d" x="474.902344"/>
      <use xlink:href="#DejaVuSerif-6f" x="569.726562"/>
      <use xlink:href="#DejaVuSerif-64" x="629.931641"/>
      <use xlink:href="#DejaVuSerif-69" x="693.945312"/>
      <use xlink:href="#DejaVuSerif-74" x="725.927734"/>
      <use xlink:href="#DejaVuSerif-79" x="766.113281"/>
      <use xlink:href="#DejaVuSerif-29" x="822.607422"/>
      <use xlink:href="#DejaVuSerif-20" x="861.621094"/>
      <use xlink:href="#DejaVuSerif-2014" x="893.408203"/>
      <use xlink:href="#DejaVuSerif-20" x="993.408203"/>
      <use xlink:href="#DejaVuSerif-63" x="1025.195312"/>
      <use xlink:href="#DejaVuSerif-6f" x="1081.201172"/>
      <use xlink:href="#DejaVuSerif-6e" x="1141.40625"/>
      <use xlink:href="#DejaVuSerif-74" x="1205.810547"/>
      <use xlink:href="#DejaVuSerif-69" x="1245.996094"/>
      <use xlink:href="#DejaVuSerif-6e" x="1277.978516"/>
      <use xlink:href="#DejaVuSerif-75" x="1342.382812"/>
      <use xlink:href="#DejaVuSerif-6f" x="1406.787109"/>
      <use xlink:href="#DejaVuSerif-75" x="1466.992188"/>
      <use xlink:href="#DejaVuSerif-73" x="1531.396484"/>
      <use xlink:href="#DejaVuSerif-20" x="1582.714844"/>
      <use xlink:href="#DejaVuSerif-73" x="1614.501953"/>
      <use xlink:href="#DejaVuSerif-75" x="1665.820312"/>
      <use xlink:href="#DejaVuSerif-70" x="1730.224609"/>
      <use xlink:href="#DejaVuSerif-70" x="1794.238281"/>
      <use xlink:href="#DejaVuSerif-6c" x="1858.251953"/>
      <use xlink:href="#DejaVuSerif-79" x="1890.234375"/>
      <use xlink:href="#DejaVuSerif-20" x="1946.728516"/>
      <use xlink:href="#DejaVuSerif-63" x="1978.515625"/>
      <use xlink:href="#DejaVuSerif-68" x="2034.521484"/>
      <use xlink:href="#DejaVuSerif-61" x="2098.925781"/>
      <use xlink:href="#DejaVuSerif-69" x="2158.544922"/>
      <use xlink:href="#DejaVuSerif-6e" x="2190.527344"/>
     </g>
    </g>
    <g id="line2d_16">
     <path d="M 29.120313 71.946844 
L 38.120313 71.946844 
L 47.120313 71.946844 
" style="fill: none; stroke: #2980b9; stroke-width: 2.5; stroke-linecap: square"/>
    </g>
    <g id="text_19">
     <!-- Paper (process knowledge) — single threshold, then self-replicates -->
     <g transform="translate(54.320313 75.096844) scale(0.09 -0.09)">
      <defs>
       <path id="DejaVuSerif-50" d="M 1581 2375 
L 2406 2375 
Q 2872 2375 3115 2626 
Q 3359 2878 3359 3353 
Q 3359 3831 3115 4081 
Q 2872 4331 2406 4331 
L 1581 4331 
L 1581 2375 
z
M 353 0 
L 353 331 
L 947 331 
L 947 4331 
L 353 4331 
L 353 4666 
L 2559 4666 
Q 3259 4666 3668 4311 
Q 4078 3956 4078 3353 
Q 4078 2753 3668 2397 
Q 3259 2041 2559 2041 
L 1581 2041 
L 1581 331 
L 2303 331 
L 2303 0 
L 353 0 
z
" transform="scale(0.015625)"/>
       <path id="DejaVuSerif-77" d="M 3072 3322 
L 3922 728 
L 4672 2988 
L 4191 2988 
L 4191 3322 
L 5394 3322 
L 5394 2988 
L 5025 2988 
L 4038 0 
L 3559 0 
L 2741 2484 
L 1919 0 
L 1459 0 
L 475 2988 
L 103 2988 
L 103 3322 
L 1606 3322 
L 1606 2988 
L 1069 2988 
L 1813 728 
L 2669 3322 
L 3072 3322 
z
" transform="scale(0.015625)"/>
       <path id="DejaVuSerif-2c" d="M 231 -622 
Q 525 -406 662 -114 
Q 800 178 800 594 
L 800 709 
L 1416 709 
Q 1391 175 1164 -208 
Q 938 -591 481 -872 
L 231 -622 
z
" transform="scale(0.015625)"/>
       <path id="DejaVuSerif-2d" d="M 281 1959 
L 1881 1959 
L 1881 1472 
L 281 1472 
L 281 1959 
z
" transform="scale(0.015625)"/>
      </defs>
      <use xlink:href="#DejaVuSerif-50"/>
      <use xlink:href="#DejaVuSerif-61" x="62.785156"/>
      <use xlink:href="#DejaVuSerif-70" x="122.404297"/>
      <use xlink:href="#DejaVuSerif-65" x="186.417969"/>
      <use xlink:href="#DejaVuSerif-72" x="245.597656"/>
      <use xlink:href="#DejaVuSerif-20" x="293.400391"/>
      <use xlink:href="#DejaVuSerif-28" x="325.1875"/>
      <use xlink:href="#DejaVuSerif-70" x="364.201172"/>
      <use xlink:href="#DejaVuSerif-72" x="428.214844"/>
      <use xlink:href="#DejaVuSerif-6f" x="476.017578"/>
      <use xlink:href="#DejaVuSerif-63" x="536.222656"/>
      <use xlink:href="#DejaVuSerif-65" x="592.228516"/>
      <use xlink:href="#DejaVuSerif-73" x="651.408203"/>
      <use xlink:href="#DejaVuSerif-73" x="702.726562"/>
      <use xlink:href="#DejaVuSerif-20" x="754.044922"/>
      <use xlink:href="#DejaVuSerif-6b" x="785.832031"/>
      <use xlink:href="#DejaVuSerif-6e" x="846.427734"/>
      <use xlink:href="#DejaVuSerif-6f" x="910.832031"/>
      <use xlink:href="#DejaVuSerif-77" x="971.037109"/>
      <use xlink:href="#DejaVuSerif-6c" x="1056.632812"/>
      <use xlink:href="#DejaVuSerif-65" x="1088.615234"/>
      <use xlink:href="#DejaVuSerif-64" x="1147.794922"/>
      <use xlink:href="#DejaVuSerif-67" x="1211.808594"/>
      <use xlink:href="#DejaVuSerif-65" x="1275.822266"/>
      <use xlink:href="#DejaVuSerif-29" x="1335.001953"/>
      <use xlink:href="#DejaVuSerif-20" x="1374.015625"/>
      <use xlink:href="#DejaVuSerif-2014" x="1405.802734"/>
      <use xlink:href="#DejaVuSerif-20" x="1505.802734"/>
      <use xlink:href="#DejaVuSerif-73" x="1537.589844"/>
      <use xlink:href="#DejaVuSerif-69" x="1588.908203"/>
      <use xlink:href="#DejaVuSerif-6e" x="1620.890625"/>
      <use xlink:href="#DejaVuSerif-67" x="1685.294922"/>
      <use xlink:href="#DejaVuSerif-6c" x="1749.308594"/>
      <use xlink:href="#DejaVuSerif-65" x="1781.291016"/>
      <use xlink:href="#DejaVuSerif-20" x="1840.470703"/>
      <use xlink:href="#DejaVuSerif-74" x="1872.257812"/>
      <use xlink:href="#DejaVuSerif-68" x="1912.443359"/>
      <use xlink:href="#DejaVuSerif-72" x="1976.847656"/>
      <use xlink:href="#DejaVuSerif-65" x="2024.650391"/>
      <use xlink:href="#DejaVuSerif-73" x="2083.830078"/>
      <use xlink:href="#DejaVuSerif-68" x="2135.148438"/>
      <use xlink:href="#DejaVuSerif-6f" x="2199.552734"/>
      <use xlink:href="#DejaVuSerif-6c" x="2259.757812"/>
      <use xlink:href="#DejaVuSerif-64" x="2291.740234"/>
      <use xlink:href="#DejaVuSerif-2c" x="2355.753906"/>
      <use xlink:href="#DejaVuSerif-20" x="2387.541016"/>
      <use xlink:href="#DejaVuSerif-74" x="2419.328125"/>
      <use xlink:href="#DejaVuSerif-68" x="2459.513672"/>
      <use xlink:href="#DejaVuSerif-65" x="2523.917969"/>
      <use xlink:href="#DejaVuSerif-6e" x="2583.097656"/>
      <use xlink:href="#DejaVuSerif-20" x="2647.501953"/>
      <use xlink:href="#DejaVuSerif-73" x="2679.289062"/>
      <use xlink:href="#DejaVuSerif-65" x="2730.607422"/>
      <use xlink:href="#DejaVuSerif-6c" x="2789.787109"/>
      <use xlink:href="#DejaVuSerif-66" x="2821.769531"/>
      <use xlink:href="#DejaVuSerif-2d" x="2855.15625"/>
      <use xlink:href="#DejaVuSerif-72" x="2888.945312"/>
      <use xlink:href="#DejaVuSerif-65" x="2936.748047"/>
      <use xlink:href="#DejaVuSerif-70" x="2995.927734"/>
      <use xlink:href="#DejaVuSerif-6c" x="3059.941406"/>
      <use xlink:href="#DejaVuSerif-69" x="3091.923828"/>
      <use xlink:href="#DejaVuSerif-63" x="3123.90625"/>
      <use xlink:href="#DejaVuSerif-61" x="3179.912109"/>
      <use xlink:href="#DejaVuSerif-74" x="3239.53125"/>
      <use xlink:href="#DejaVuSerif-65" x="3279.716797"/>
      <use xlink:href="#DejaVuSerif-73" x="3338.896484"/>
     </g>
    </g>
   </g>
  </g>
 </g>
 <defs>
  <clipPath id="p9d304f43c0">
   <rect x="21.020313" y="46.819969" width="719.056667" height="265.024"/>
  </clipPath>
 </defs>
</svg>
